<?xml version="1.0" standalone="no"?><!DOCTYPE svg PUBLIC "-//W3C//DTD SVG 1.1//EN" "http://www.w3.org/Graphics/SVG/1.1/DTD/svg11.dtd"><svg t="1656425081933" class="icon" viewBox="0 0 1061 1024" version="1.1" xmlns="http://www.w3.org/2000/svg" p-id="981" width="66.3125" height="64" xmlns:xlink="http://www.w3.org/1999/xlink"><defs><style type="text/css">@font-face { font-family: feedback-iconfont; src: url("//at.alicdn.com/t/font_1031158_u69w8yhxdu.woff2?t=1630033759944") format("woff2"), url("//at.alicdn.com/t/font_1031158_u69w8yhxdu.woff?t=1630033759944") format("woff"), url("//at.alicdn.com/t/font_1031158_u69w8yhxdu.ttf?t=1630033759944") format("truetype"); }
</style></defs><path d="M310.727111 893.610667c-10.619259 10.24-24.955259 16.156444-40.011852 16.573629a60.757333 60.757333 0 0 1-40.997926-14.184296 55.296 55.296 0 0 1-7.698963-77.482667l4.930371-5.309629 106.11674-102.020741H239.198815a121.059556 121.059556 0 0 1-83.816296-33.374815 111.502222 111.502222 0 0 1-34.702223-80.402963V256c0-9.860741 1.327407-19.342222 3.754667-28.444444h-3.754667c-15.701333 0-30.757926-5.992296-41.870222-16.687408A55.751111 55.751111 0 0 1 61.44 170.666667c0-15.094519 6.219852-29.582222 17.370074-40.201482 11.112296-10.695111 26.168889-16.687407 41.870222-16.687407h829.62963c15.739259 0 30.795852 5.992296 41.908148 16.687407 11.112296 10.619259 17.370074 25.106963 17.370074 40.201482s-6.257778 29.582222-17.370074 40.201481c-11.112296 10.695111-26.168889 16.687407-41.908148 16.687408h-3.716741c2.427259 9.102222 3.716741 18.583704 3.716741 28.444444v341.371259c0 30.189037-12.47763 59.126519-34.702222 80.478815a121.059556 121.059556 0 0 1-83.816297 33.298963h-93.904592l106.192592 102.020741 4.930371 5.347555a55.296 55.296 0 0 1-7.698963 77.482667 60.757333 60.757333 0 0 1-40.997926 14.184296 60.453926 60.453926 0 0 1-40.049778-16.573629l-190.084741-182.423704h-69.404444l-190.008889 182.423704z m254.407111-424.239408h-237.037037l-6.068148 0.37926c-10.619259 1.403259-20.366222 6.447407-27.420444 14.260148a41.718519 41.718519 0 0 0-10.922667 28.027259c0 10.315852 3.868444 20.252444 10.922667 28.065185 7.054222 7.736889 16.801185 12.818963 27.45837 14.222222l6.068148 0.37926h237.037037l6.030222-0.37926c11.150222-1.517037 21.31437-6.97837 28.406519-15.36a41.528889 41.528889 0 0 0-4.171852-58.102518 45.511111 45.511111 0 0 0-30.302815-11.491556z m177.796741-170.666666H328.059259l-6.068148 0.379259c-10.619259 1.403259-20.366222 6.447407-27.420444 14.222222a41.718519 41.718519 0 0 0-10.922667 28.065185c0 10.277926 3.868444 20.252444 10.922667 28.02726 7.054222 7.774815 16.801185 12.818963 27.45837 14.222222l6.068148 0.379259h414.795852l6.030222-0.379259c11.150222-1.479111 21.31437-6.940444 28.444445-15.322074a41.528889 41.528889 0 0 0-4.171852-58.140445 45.511111 45.511111 0 0 0-30.340741-11.491555z" fill="#2E78DD" p-id="982"></path></svg>