<?xml version="1.0" encoding="UTF-8"?>
<svg width="400px" height="300px" viewBox="0 0 400 300" version="1.1" xmlns="http://www.w3.org/2000/svg" xmlns:xlink="http://www.w3.org/1999/xlink">
    <title>画板备份 5</title>
    <defs>
        <linearGradient x1="-0.00821089158%" y1="49.9223602%" x2="99.9958934%" y2="49.9223602%" id="linearGradient-1">
            <stop stop-color="#F9E7A8" offset="0%"></stop>
            <stop stop-color="#F5A623" offset="100%"></stop>
        </linearGradient>
        <linearGradient x1="31.2182068%" y1="59.1342978%" x2="66.5261039%" y2="36.890324%" id="linearGradient-2">
            <stop stop-color="#C6DFFE" offset="0%"></stop>
            <stop stop-color="#72B1FE" offset="100%"></stop>
        </linearGradient>
        <linearGradient x1="-0.00816792338%" y1="49.9928234%" x2="99.9822704%" y2="49.9928234%" id="linearGradient-3">
            <stop stop-color="#C6DFFE" offset="0%"></stop>
            <stop stop-color="#72B1FE" offset="100%"></stop>
        </linearGradient>
        <linearGradient x1="-0.0226459219%" y1="50.0002851%" x2="100.143552%" y2="50.0002851%" id="linearGradient-4">
            <stop stop-color="#C6DFFE" offset="0%"></stop>
            <stop stop-color="#72B1FE" offset="100%"></stop>
        </linearGradient>
        <linearGradient x1="-1091.44568%" y1="13.4023393%" x2="-986.289716%" y2="13.4023393%" id="linearGradient-5">
            <stop stop-color="#C6DFFE" offset="0%"></stop>
            <stop stop-color="#72B1FE" offset="100%"></stop>
        </linearGradient>
        <linearGradient x1="-0.0548265901%" y1="50.0076576%" x2="99.9765458%" y2="50.0076576%" id="linearGradient-6">
            <stop stop-color="#C6DFFE" offset="0%"></stop>
            <stop stop-color="#72B1FE" offset="100%"></stop>
        </linearGradient>
        <linearGradient x1="0.0781361852%" y1="50.2588997%" x2="100.014317%" y2="50.2588997%" id="linearGradient-7">
            <stop stop-color="#C6DFFE" offset="0%"></stop>
            <stop stop-color="#72B1FE" offset="100%"></stop>
        </linearGradient>
        <linearGradient x1="0.0103263685%" y1="49.9638039%" x2="99.8372433%" y2="49.9638039%" id="linearGradient-8">
            <stop stop-color="#C6DFFE" offset="0%"></stop>
            <stop stop-color="#72B1FE" offset="100%"></stop>
        </linearGradient>
        <linearGradient x1="0%" y1="49.8768386%" x2="99.9865481%" y2="49.8768386%" id="linearGradient-9">
            <stop stop-color="#C6DFFE" offset="0%"></stop>
            <stop stop-color="#72B1FE" offset="100%"></stop>
        </linearGradient>
        <linearGradient x1="0.00374851787%" y1="50.0000273%" x2="99.9963438%" y2="50.0000273%" id="linearGradient-10">
            <stop stop-color="#C6DFFE" offset="0%"></stop>
            <stop stop-color="#72B1FE" offset="100%"></stop>
        </linearGradient>
        <linearGradient x1="6.46682808e-13%" y1="50%" x2="100%" y2="50%" id="linearGradient-11">
            <stop stop-color="#C6DFFE" offset="0%"></stop>
            <stop stop-color="#72B1FE" offset="100%"></stop>
        </linearGradient>
        <linearGradient x1="0.0108485001%" y1="49.9609761%" x2="100.008471%" y2="49.9609761%" id="linearGradient-12">
            <stop stop-color="#C6DFFE" offset="0%"></stop>
            <stop stop-color="#72B1FE" offset="100%"></stop>
        </linearGradient>
        <linearGradient x1="0%" y1="50%" x2="100%" y2="50%" id="linearGradient-13">
            <stop stop-color="#F9E7A8" offset="0%"></stop>
            <stop stop-color="#F5A623" offset="100%"></stop>
        </linearGradient>
        <linearGradient x1="1.28314715e-13%" y1="49.8898801%" x2="100%" y2="49.8898801%" id="linearGradient-14">
            <stop stop-color="#F3835D" offset="0%"></stop>
            <stop stop-color="#FFC644" offset="100%"></stop>
        </linearGradient>
        <linearGradient x1="0.0330961443%" y1="49.9740888%" x2="100%" y2="49.9740888%" id="linearGradient-15">
            <stop stop-color="#1A1114" offset="0%"></stop>
            <stop stop-color="#30231E" offset="25%"></stop>
            <stop stop-color="#4A372A" offset="50%"></stop>
            <stop stop-color="#5A372A" offset="59%"></stop>
            <stop stop-color="#60372A" offset="66%"></stop>
            <stop stop-color="#98372A" offset="98%"></stop>
        </linearGradient>
        <linearGradient x1="0.00403125607%" y1="50.0131722%" x2="100%" y2="50.0131722%" id="linearGradient-16">
            <stop stop-color="#F3835D" offset="0%"></stop>
            <stop stop-color="#FFC644" offset="100%"></stop>
        </linearGradient>
        <linearGradient x1="0.184077312%" y1="49.9949917%" x2="100%" y2="49.9949917%" id="linearGradient-17">
            <stop stop-color="#F3835D" offset="0%"></stop>
            <stop stop-color="#FFC644" offset="100%"></stop>
        </linearGradient>
        <linearGradient x1="-8.83649715e-15%" y1="50%" x2="100%" y2="50%" id="linearGradient-18">
            <stop stop-color="#C6DFFE" offset="0%"></stop>
            <stop stop-color="#72B1FE" offset="100%"></stop>
        </linearGradient>
        <linearGradient x1="0%" y1="49.8898193%" x2="100%" y2="49.8898193%" id="linearGradient-19">
            <stop stop-color="#C6DFFE" offset="0%"></stop>
            <stop stop-color="#72B1FE" offset="100%"></stop>
        </linearGradient>
        <linearGradient x1="84.8632219%" y1="166.726444%" x2="46.8054711%" y2="74.5866261%" id="linearGradient-20">
            <stop stop-color="#C6DFFE" offset="0%"></stop>
            <stop stop-color="#72B1FE" offset="100%"></stop>
        </linearGradient>
        <linearGradient x1="57.8082751%" y1="45.9426376%" x2="41.5472455%" y2="44.7323127%" id="linearGradient-21">
            <stop stop-color="#C6DFFE" offset="0%"></stop>
            <stop stop-color="#72B1FE" offset="100%"></stop>
        </linearGradient>
        <linearGradient x1="101.561644%" y1="221.931507%" x2="63.6484018%" y2="130.141553%" id="linearGradient-22">
            <stop stop-color="#C6DFFE" offset="0%"></stop>
            <stop stop-color="#72B1FE" offset="100%"></stop>
        </linearGradient>
        <linearGradient x1="57.4586227%" y1="42.316059%" x2="41.0554748%" y2="41.1054105%" id="linearGradient-23">
            <stop stop-color="#C6DFFE" offset="0%"></stop>
            <stop stop-color="#72B1FE" offset="100%"></stop>
        </linearGradient>
        <linearGradient x1="99.4726027%" y1="13.2671233%" x2="-0.869863014%" y2="10.2568493%" id="linearGradient-24">
            <stop stop-color="#C6DFFE" offset="0%"></stop>
            <stop stop-color="#72B1FE" offset="100%"></stop>
        </linearGradient>
        <linearGradient x1="57.8383878%" y1="38.283776%" x2="41.3112725%" y2="37.0641693%" id="linearGradient-25">
            <stop stop-color="#C6DFFE" offset="0%"></stop>
            <stop stop-color="#72B1FE" offset="100%"></stop>
        </linearGradient>
    </defs>
    <g id="画板备份-5" stroke="none" stroke-width="1" fill="none" fill-rule="evenodd">
        <g id="资源-6" transform="translate(16.000000, 1.000000)">
            <path d="M185.68,0 C152.588744,-0.0768105047 120.368128,10.5990541 93.87,30.420416 L104.12,30.420416 C106.451253,30.420416 108.687024,31.3465027 110.335469,32.9949474 C111.983913,34.6433922 112.91,36.8791631 112.91,39.210416 L112.91,39.210416 L112.91,39.890416 C112.91,44.744999 108.974583,48.680416 104.12,48.680416 L73.58,48.680416 C67.7772753,54.9277597 62.5181997,61.6588412 57.86,68.800416 L43.35,68.800416 C38.1237691,68.8059348 33.8899971,73.0441822 33.89,78.270416 L33.89,78.800416 C33.8866193,83.0171095 36.6773219,86.7258064 40.73,87.890416 L54.09,87.890416 C60.0634359,87.8959291 64.9044869,92.7369801 64.91,98.710416 L64.91,98.710416 L64.91,102.090416 C64.91,108.066137 60.065721,112.910416 54.09,112.910416 L8.18,112.910416 C3.37206252,114.120077 0,118.44264 0,123.400416 L0,124.000416 C0,129.976137 4.84427901,134.820416 10.82,134.820416 L34.6,134.820416 C34.1333333,139.633749 33.8966667,144.500416 33.89,149.420416 C33.89,231.940416 101.89,298.840416 185.68,298.840416 C252.74,298.840416 309.68,256.040416 329.73,196.680416 L335.42,196.680416 C337.41268,196.666371 339.118372,195.247634 339.495144,193.290848 C339.871917,191.334061 338.814992,189.383392 336.97,188.630416 L329.97,188.630416 C325.11932,188.630419 321.185518,184.701093 321.18,179.850416 L321.18,179.850416 L321.18,179.170416 C321.18,174.315833 325.115417,170.380416 329.97,170.380416 L336,170.380416 L336,170.270416 L351,170.270416 C354.838379,170.270416 357.95,167.158795 357.95,163.320416 C357.95,159.482037 354.838379,156.370416 351,156.370416 L337.31,156.370416 C337.423333,154.070416 337.476667,151.737083 337.47,149.370416 C337.491021,128.029098 332.860213,106.939641 323.9,87.570416 L348.2,87.570416 C358.652464,87.5648988 367.124483,79.0928802 367.13,68.640416 L367.13,67.580416 C367.13,57.5485328 359.305239,49.2580575 349.29,48.680416 L263.68,48.680416 C259.946555,48.680416 256.92,45.653861 256.92,41.920416 C256.92,38.1869711 259.946555,35.160416 263.68,35.160416 L283.5,35.160416 L283,34.750416 L292.86,34.750416 C296.267113,34.7504171 299.534534,33.3962626 301.942788,30.9861323 C304.351043,28.5760019 305.702654,25.3075281 305.7,21.900416 L305.7,21.190416 C305.702654,17.783304 304.351043,14.5148302 301.942788,12.1046998 C299.534534,9.69456947 296.267113,8.34041501 292.86,8.34041604 L235.81,8.34041604 C219.677935,2.80040978 202.736812,-0.0180415623 185.68,0 Z" id="背景" fill="#EDF0F4" opacity="0.35"></path>
            <path d="M182,233.000416 C216.36,233.000416 247.3,235.800416 268.93,240.280416 C290.08,240.420416 307.12,246.760416 307.12,254.550416 C307.12,260.730416 296.42,265.990416 281.45,267.980416 C277.87,269.040416 273.85,270.030416 269.45,270.980416 C269.561511,271.570597 269.618419,272.169795 269.62,272.770416 C269.62,286.370416 240.04,297.400416 203.56,297.400416 C170.74,297.400416 143.56,288.470416 138.37,276.770416 C94.58,273.450416 63.6099943,265.260416 63.6099943,255.690416 C63.59,243.110416 116.6,233.000416 182,233.000416 Z" id="形状结合" fill="url(#linearGradient-1)" opacity="0.27"></path>
            <path d="M93.25,262.820416 C99.31,259.960416 109.81,250.820416 103.08,234.600416 C96.73,218.170416 86.23,227.280416 82.93,216.350416 C79.63,205.420416 80.07,202.430416 71.19,198.290416 C62.31,194.150416 67.27,190.000416 60.83,185.140416 C54.39,180.280416 50.83,179.660416 46.31,181.800416 C41.79,183.940416 49.52,196.470416 45.31,201.240416 C41.1,206.010416 40.84,207.500416 48,214.780416 C55.16,222.060416 57.93,222.120416 55.53,228.780416 C53.13,235.440416 55.53,237.580416 60.01,237.310416 C64.49,237.040416 71.43,237.020416 68.78,246.120416 C66.13,255.220416 67.18,258.440416 75.91,261.260416 C84.64,264.080416 84.91,266.720416 93.28,262.800416 L93.25,262.820416 Z" id="路径" fill="url(#linearGradient-2)" fill-rule="nonzero"></path>
            <path d="M96.68,260.280416 C96.5792369,260.328286 96.4635691,260.334102 96.3585122,260.296582 C96.2534553,260.259062 96.1676412,260.181287 96.12,260.080416 L58.5,204.730416 C58.32,204.350416 58.32,204.350416 58.7,204.180416 C59.08,204.010416 59.08,204.000416 59.26,204.380416 L96.88,259.720416 C97.06,260.100416 97.06,260.100416 96.68,260.280416 Z" id="路径" fill="url(#linearGradient-3)" fill-rule="nonzero"></path>
            <path d="M72.09,223.770416 C71.71,223.940416 71.53,223.570416 71.35,223.190416 L72.44,208.800416 C72.44,208.800416 72.64,208.250416 72.82,208.630416 C72.82,208.630416 73.37,208.830416 73,209.000416 L72.09,223.770416 L72.09,223.770416 Z M78.23,232.890416 L66.81,233.190416 C66.7106964,233.237896 66.5964723,233.243453 66.4930287,233.205837 C66.3895851,233.168221 66.3056106,233.090592 66.26,232.990416 C66.2092599,232.890096 66.2019392,232.773342 66.2397507,232.66747 C66.2775623,232.561598 66.3571885,232.475896 66.46,232.430416 L77.46,232.310416 C78.22,231.960416 78.39,232.310416 78.19,232.890416 L78.23,232.890416 Z M86.92,245.450416 L86.92,245.450416 C86.54,245.630416 86.37,245.250416 86.19,244.870416 L87.85,229.750416 C87.85,229.750416 88.05,229.190416 88.23,229.570416 C88.23,229.570416 88.79,229.770416 88.41,229.950416 L86.92,245.450416 Z M92,253.240416 L76.26,253.240416 C75.88,253.410416 75.7,253.040416 76.08,252.860416 C75.9,252.480416 76.28,252.300416 76.46,252.680416 L91.8,252.850416 C92.18,252.670416 92.18,252.670416 91.98,253.230416 L92,253.240416 Z" id="形状" fill="url(#linearGradient-4)" fill-rule="nonzero"></path>
            <path d="M102.33,258.540416 C107.63,256.040416 110.44,256.110416 110.24,248.810416 C109.83,242.060416 114.95,239.190416 111.68,235.180416 C108.41,231.170416 105.18,233.180416 105.98,223.070416 C106.78,212.960416 101.07,208.730416 97.73,207.530416 C94.39,206.330416 92.73,203.850416 89.73,198.360416 C86.73,192.870416 81.36,196.290416 80.92,199.270416 C80.48,202.250416 84.04,209.820416 81.68,214.630416 C79.32,219.440416 83.91,223.300416 87.78,225.630416 C91.65,227.960416 89.3,232.780416 87.16,236.100416 C85.16,239.790416 80.4,245.300416 84.07,248.190416 C87.74,251.080416 93.65,262.640416 102.35,258.540416 L102.33,258.540416 Z" id="路径" fill="url(#linearGradient-5)" fill-rule="nonzero"></path>
            <path d="M103.09,258.180416 C102.98968,258.231156 102.872926,258.238477 102.767054,258.200665 C102.661182,258.162854 102.57548,258.083228 102.53,257.980416 L92.66,216.390416 C92.6092599,216.290096 92.6019392,216.173342 92.6397507,216.06747 C92.6775623,215.961598 92.7571885,215.875896 92.86,215.830416 C92.9607631,215.782546 93.0764309,215.77673 93.1814878,215.81425 C93.2865447,215.851771 93.3723588,215.929545 93.42,216.030416 L103.09,258.180416 C103.29,257.620416 103.47,258.000416 103.09,258.180416 Z" id="路径" fill="url(#linearGradient-6)" fill-rule="nonzero"></path>
            <path d="M97.34,232.220416 L97.34,232.220416 C96.78,232.020416 96.78,232.020416 96.6,231.640416 L100.83,219.000416 L101.21,218.820416 L101.39,219.200416 L97.39,232.200416 L97.34,232.220416 Z M101.42,249.720416 L101.42,249.720416 L89,244.000416 L88.83,243.620416 L89.2,243.440416 L101.2,249.340416 C101.62,249.160416 101.8,249.540416 101.42,249.720416 Z" id="形状" fill="url(#linearGradient-7)" fill-rule="nonzero"></path>
            <path d="M128.27,266.560416 C129.683782,266.521943 130.997642,265.822497 131.818946,264.671098 C132.640251,263.519699 132.873874,262.049709 132.45,260.700416 C131.62,257.350416 130.36,259.030416 129.94,261.540416 C129.52,264.050416 130.36,260.280416 127.85,259.450416 C125.34,259.030416 127.85,263.630416 127.01,264.450416 C125.76,264.860416 124.09,260.260416 122.41,262.350416 C120.73,264.440416 124.5,266.540416 128.27,266.540416 L128.27,266.560416 Z" id="路径" fill="url(#linearGradient-8)" fill-rule="nonzero"></path>
            <path d="M298.76,247.210416 C294.57,247.210416 289.97,242.210416 289.55,238.840416 C289.55,235.080416 294.15,235.500416 294.15,233.840416 C294.15,232.180416 291.23,232.170416 291.64,230.910416 C292.05,229.650416 294.57,229.240416 294.15,228.400416 C293.73,227.560416 290.81,228.820416 291.64,226.730416 C292.48,224.220416 294.15,225.480416 292.9,222.550416 C291.65,219.620416 295.41,222.550416 294.15,220.040416 C292.9,217.110416 291.64,215.040416 294.15,213.760416 C296.66,212.480416 296.25,222.130416 297.08,221.290416 C298.34,220.870416 300.01,220.040416 300.43,222.970416 C300.85,225.900416 298.76,226.730416 302.52,227.150416 C305.87,227.570416 301.27,232.590416 303.78,233.840416 C306.29,235.090416 309.63,238.440416 306.7,241.840416 C304.19,244.770416 302.52,247.280416 298.76,247.280416 L298.76,247.210416 Z" id="路径" fill="url(#linearGradient-9)" fill-rule="nonzero"></path>
            <path d="M298.76,247.210541 C298.870494,247.210541 298.976323,247.165883 299.053507,247.086816 C299.130691,247.00775 299.172695,246.900877 299.17,246.790416 L296.66,223.790416 C296.665609,223.679149 296.62456,223.570584 296.546737,223.490863 C296.468914,223.411142 296.36137,223.36749 296.25,223.370278 C296.137782,223.367644 296.029335,223.411003 295.949961,223.490377 C295.870587,223.569751 295.827228,223.678198 295.83,223.790416 L298.34,246.790416 C298.337228,246.902634 298.380587,247.011081 298.459961,247.090455 C298.539335,247.169829 298.647782,247.213188 298.76,247.210541 L298.76,247.210541 Z" id="路径" fill="url(#linearGradient-10)" fill-rule="nonzero"></path>
            <path d="M298.34,243.440416 L298.34,243.440416 C298.76,243.030416 298.76,243.030416 298.76,242.610416 L292.9,238.000416 L292.48,238.000416 L292.48,238.410416 L298.34,243.440416 Z M297.5,235.080416 L297.5,235.080416 L301.27,229.640416 L301.27,229.220416 L300.85,229.220416 L297.08,234.660416 L297.5,235.080416 Z" id="形状" fill="url(#linearGradient-11)" fill-rule="nonzero"></path>
            <path d="M279.93,246.790416 C279.93,246.790416 281.6,248.050416 285.79,245.950416 C289.97,243.440416 289.13,241.350416 287.04,242.190416 C284.95,243.030416 281.19,247.630416 280.35,246.370416 C279.51,245.110416 282.86,242.610416 280.77,240.100416 C278.68,237.590416 279.93,243.030416 279.09,243.030416 C278.68,243.030416 277.84,240.100416 277,241.350416 C276.16,242.600416 278.26,246.350416 278.68,246.790416 C279.51,247.210416 278.26,247.210416 276.16,246.370416 C274.07,245.120416 273.65,247.630416 275.75,248.460416 C277.85,249.290416 279.93,246.790416 279.93,246.790416 L279.93,246.790416 Z" id="路径" fill="url(#linearGradient-12)" fill-rule="nonzero"></path>
            <ellipse id="椭圆形" fill="url(#linearGradient-13)" fill-rule="nonzero" opacity="0.41" cx="232.63" cy="251.040416" rx="45.5" ry="6.72"></ellipse>
            <path d="M213.21,247.320416 C213.65,247.320416 214.05,248.010416 213.89,249.630416 C213.73,251.250416 213.96,252.150416 212.61,252.190416 C211.44,252.190416 203.73,251.710416 201.61,251.590416 C200.88,251.590416 201.1,250.820416 201.14,250.590416 C201.32,249.810416 201.96,248.640416 204.3,248.590416 C206.03,248.380416 207.78,246.850416 208.54,246.890416 C209.3,246.930416 209.59,247.670416 210.81,247.670416 C212.03,247.670416 212.45,247.320416 213.21,247.320416 Z" id="路径" fill="#000000" fill-rule="nonzero"></path>
            <path d="M266.18,247.000416 C266.62,247.000416 267.06,247.630416 267.01,249.260416 C266.96,250.890416 267.25,251.760416 265.9,251.900416 C264.74,252.010416 257.01,252.010416 254.9,252.030416 C254.17,252.030416 254.34,251.300416 254.37,251.120416 C254.49,250.320416 255.06,249.120416 257.37,248.870416 C259.08,248.550416 260.73,246.870416 261.49,246.870416 C262.25,246.870416 262.59,247.580416 263.81,247.500416 C265.03,247.420416 265.42,247.000416 266.18,247.000416 Z" id="路径" fill="#000000" fill-rule="nonzero"></path>
            <path d="M212.07,168.000416 C211.499118,166.133655 210.83155,164.297843 210.07,162.500416 L214.17,159.340416 C215.00161,161.280907 215.946573,163.170834 217,165.000416 C217.990849,165.624623 219.06475,166.106027 220.19,166.430416 C219.07,172.290416 216.06,173.570416 211.25,170.430416 C211.601324,169.64886 211.875945,168.835043 212.07,168.000416 L212.07,168.000416 Z" id="路径" fill="#E2AD96" fill-rule="nonzero"></path>
            <path d="M204,155.630416 C204.11,154.320416 205.56,152.290416 209.05,151.120416 C216,148.790416 215.33,158.230416 215.33,158.230416 C215.33,158.230416 216.02,161.090416 215.99,161.470416 C215.84,163.330416 213.99,165.530416 210.71,165.530416 C207.43,165.530416 203.85,157.630416 204,155.630416 Z" id="路径" fill="#EFBA9E" fill-rule="nonzero"></path>
            <path d="M215.59,155.780416 C215.15,156.460416 213.97,157.780416 213.97,157.780416 C213.97,157.780416 213.16,155.630416 212.75,155.780416 C212.34,155.930416 209.18,154.280416 208.28,154.560416 C207.66,154.760416 206.28,157.410416 206.28,157.410416 C206.28,157.410416 205.1,160.140416 204.28,159.410416 C203.46,158.680416 202.28,153.720416 205.09,151.290416 C207.9,148.860416 212.92,149.840416 214.49,150.770416 C216.06,151.700416 215.59,155.780416 215.59,155.780416 Z" id="路径" fill="#212938" fill-rule="nonzero"></path>
            <path d="M214.06,156.580416 C214.27,156.090416 215.8,154.950416 216.38,156.000416 C216.96,157.050416 217,159.220416 216.38,159.690416 C215.865789,159.909974 215.284211,159.909974 214.77,159.690416 C214.66,159.630416 213.85,157.060416 214.06,156.580416 Z" id="路径" fill="#F79E86" fill-rule="nonzero"></path>
            <path d="M213.51,176.380416 C213.51,176.380416 199,181.000416 197.82,179.840416 C196.64,178.680416 191.36,167.290416 191.36,167.290416 L194.3,163.290416 C194.3,163.290416 200.5,172.060416 201.66,172.860416 C202.38,173.370416 211.44,168.910416 211.44,168.910416 L213.51,176.380416 Z" id="路径" fill="url(#linearGradient-14)" fill-rule="nonzero"></path>
            <path d="M267.8,247.220416 L240.99,216.220416 L242.13,192.760416 L242.13,191.760416 L226.13,190.760416 C226.13,190.760416 209.04,205.760416 208.5,207.530416 C207.96,209.300416 207.37,247.240416 207.37,247.240416 L214.37,248.650416 L218.44,213.150416 L229.42,202.000416 C229.42,202.000416 228.7,215.280416 229.42,218.050416 C229.82,219.630416 259.51,247.870416 259.51,247.870416 L267.8,247.220416 Z" id="路径" fill="url(#linearGradient-15)" fill-rule="nonzero"></path>
            <path d="M243.07,192.750416 C236.46,180.000416 232.88,172.000416 224.38,167.410416 L218.23,165.300416 C217.36,171.710416 213.07,172.440416 211.98,167.400416 C211.98,167.400416 209.88,170.020416 210.36,171.780416 C210.84,173.540416 218.78,189.780416 220.14,197.490416 C229.34,198.280416 237.12,197.240416 243.07,192.750416 Z" id="路径" fill="url(#linearGradient-16)" fill-rule="nonzero"></path>
            <path d="M211.25,140.380416 C210.461686,139.269859 209.791391,138.080085 209.25,136.830416 C209.408727,135.736296 209.625702,134.651422 209.9,133.580416 C210.169815,132.399814 210.503642,131.23476 210.9,130.090416 C211.06,130.040416 211.6,130.090416 211.61,130.430416 C211.62,130.770416 211.07,133.140416 211.07,133.140416 C211.07,133.140416 212.22,130.730416 212.27,130.490416 C212.32,130.250416 212.34,127.710416 212.58,127.770416 C212.909056,127.88672 213.176353,128.132344 213.32,128.450416 C213.376484,129.145938 213.376484,129.844894 213.32,130.540416 C213.32,130.540416 212.63,133.590416 212.56,133.700416 C212.113098,134.527544 211.712481,135.378855 211.36,136.250416 L212.71,138.450416 L211.25,140.380416 Z" id="路径" fill="#EFBA9E" fill-rule="nonzero"></path>
            <path d="M193.63,167.400416 C192.841686,166.289859 192.171391,165.100085 191.63,163.850416 C191.785012,162.754894 192.005406,161.669623 192.29,160.600416 C192.549113,159.417085 192.883118,158.251406 193.29,157.110416 C193.44,157.050416 193.99,157.110416 193.99,157.440416 C193.99,157.770416 193.45,160.150416 193.45,160.150416 C193.45,160.150416 194.6,157.750416 194.65,157.510416 C194.7,157.270416 194.72,154.730416 194.96,154.780416 C195.289722,154.901052 195.55663,155.149925 195.7,155.470416 C195.761504,156.165725 195.761504,156.865107 195.7,157.560416 C195.7,157.560416 195.01,160.560416 194.95,160.710416 C194.497711,161.539739 194.093705,162.394496 193.74,163.270416 L195.09,165.460416 L193.63,167.400416 Z" id="路径" fill="#EFBA9E" fill-rule="nonzero"></path>
            <path d="M230.92,172.290416 C230.92,172.290416 230.92,154.950416 229.92,153.540416 C228.92,152.130416 212.27,135.280416 212.27,135.280416 L209.19,139.790416 C209.19,139.790416 221.97,155.190416 222.19,156.060416 C222.41,156.930416 220.12,165.610416 220.12,165.610416 C220.13,169.300416 227.08,173.200416 230.92,172.290416 Z" id="路径" fill="url(#linearGradient-17)" fill-rule="nonzero"></path>
            <path d="M124,200.240416 C114.678812,200.239125 105.389516,199.151794 96.32,197.000416 L100.46,181.110416 C100.76,181.180416 130.68,188.720416 151.36,178.380416 C163.66,172.230416 177.66,151.250416 188.91,134.380416 C197.67,121.250416 205.24,109.910416 212.22,104.510416 C228.78,91.700416 255,89.890416 256.09,89.820416 L257.14,106.210416 C256.93,106.210416 234.81,107.800416 222.27,117.500416 C217.41,121.270416 209.86,132.570416 202.57,143.500416 C189.57,162.930416 174.9,184.960416 158.7,193.060416 C147.6,198.610416 135,200.240416 124,200.240416 Z" id="路径" fill="url(#linearGradient-18)" fill-rule="nonzero"></path>
            <path d="M282.13,94.410416 L246.64,76.410416 C254.78,91.600416 257.19,106.730416 253.18,121.790416 L282.13,94.410416 Z" id="路径" fill="url(#linearGradient-19)" fill-rule="nonzero"></path>
            <g id="编组" opacity="0.47" transform="translate(301.255174, 117.013551)" fill-rule="nonzero">
                <circle id="椭圆形" fill="url(#linearGradient-20)" transform="translate(4.348656, 28.459425) rotate(-65.830000) translate(-4.348656, -28.459425) " cx="4.34865626" cy="28.4594248" r="3.29"></circle>
                <path d="M0.744826163,4.14686531 C0.744826163,5.45686531 1.80482616,13.1468653 2.74482616,19.6568653 C2.87731905,20.5213028 3.60892339,21.1673782 4.48311075,21.191934 C5.35729811,21.2164899 6.12401658,20.6125022 6.30482616,19.7568653 C7.66482616,13.2868653 9.21482616,5.70686531 9.24482616,4.39686531 C9.31386176,2.03860943 7.45808204,0.0709009067 5.09982616,0.00186531295 C2.74157028,-0.0671702808 0.773861756,1.78860943 0.704826163,4.14686531 L0.744826163,4.14686531 Z" id="路径" fill="url(#linearGradient-21)"></path>
            </g>
            <g id="编组" opacity="0.47" transform="translate(108.825633, 83.339288)" fill-rule="nonzero">
                <circle id="椭圆形" fill="url(#linearGradient-22)" transform="translate(2.894698, 18.906800) rotate(-65.830000) translate(-2.894698, -18.906800) " cx="2.89469824" cy="18.9068004" r="2.19"></circle>
                <path d="M0.524366774,2.76112788 C0.524366774,3.63112788 1.22436677,8.76112788 1.88436677,13.0611279 C1.97418794,13.6335149 2.46015598,14.0599827 3.03936049,14.0747082 C3.61856501,14.0894338 4.12557602,13.6882112 4.24436677,13.1211279 C5.14436677,8.83112788 6.17436677,3.80112788 6.24436677,2.92112788 C6.27294802,1.90649361 5.75805724,0.953684961 4.89364881,0.421615737 C4.02924037,-0.110453487 2.94663849,-0.140949315 2.05364881,0.341615737 C1.16065912,0.824180788 0.592948021,1.74649361 0.564366774,2.76112788 L0.524366774,2.76112788 Z" id="路径" fill="url(#linearGradient-23)"></path>
            </g>
            <g id="编组" opacity="0.47" transform="translate(207.220000, 23.911643)" fill-rule="nonzero">
                <circle id="椭圆形" fill="url(#linearGradient-24)" cx="1.58" cy="12.5587731" r="1.46"></circle>
                <path d="M0,1.76877313 C0,2.34877313 0.47,5.76877313 0.9,8.64877313 C0.961968033,9.03700952 1.29684923,9.32267793 1.69,9.32267793 C2.08315077,9.32267793 2.41803197,9.03700952 2.48,8.64877313 C3.09,5.77877313 3.77,2.40877313 3.79,1.82877313 C3.75249329,0.829159333 2.94635409,0.0298337669 1.94645794,0.00081303449 C0.946561802,-0.0282076979 0.0954198099,0.723017358 0,1.71877313 L0,1.76877313 Z" id="路径" fill="url(#linearGradient-25)"></path>
            </g>
        </g>
    </g>
</svg>