<?xml version="1.0" encoding="UTF-8"?>
<svg width="400px" height="300px" viewBox="0 0 400 300" version="1.1" xmlns="http://www.w3.org/2000/svg" xmlns:xlink="http://www.w3.org/1999/xlink">
    <title>画板备份</title>
    <defs>
        <linearGradient x1="-0.00821089158%" y1="49.9223602%" x2="99.9958934%" y2="49.9223602%" id="linearGradient-1">
            <stop stop-color="#F9E7A8" offset="0%"></stop>
            <stop stop-color="#F5A623" offset="100%"></stop>
        </linearGradient>
        <linearGradient x1="31.2034761%" y1="59.1306206%" x2="66.5194105%" y2="36.8815833%" id="linearGradient-2">
            <stop stop-color="#C6DFFE" offset="0%"></stop>
            <stop stop-color="#72B1FE" offset="100%"></stop>
        </linearGradient>
        <linearGradient x1="-0.00816792338%" y1="49.9928234%" x2="99.9822704%" y2="49.9928234%" id="linearGradient-3">
            <stop stop-color="#C6DFFE" offset="0%"></stop>
            <stop stop-color="#72B1FE" offset="100%"></stop>
        </linearGradient>
        <linearGradient x1="-0.0226459219%" y1="50.0002851%" x2="100.143552%" y2="50.0002851%" id="linearGradient-4">
            <stop stop-color="#C6DFFE" offset="0%"></stop>
            <stop stop-color="#72B1FE" offset="100%"></stop>
        </linearGradient>
        <linearGradient x1="-544.910581%" y1="75.4072026%" x2="-439.75462%" y2="75.4072026%" id="linearGradient-5">
            <stop stop-color="#C6DFFE" offset="0%"></stop>
            <stop stop-color="#72B1FE" offset="100%"></stop>
        </linearGradient>
        <linearGradient x1="-0.0548265901%" y1="50.0076576%" x2="99.9765458%" y2="50.0076576%" id="linearGradient-6">
            <stop stop-color="#C6DFFE" offset="0%"></stop>
            <stop stop-color="#72B1FE" offset="100%"></stop>
        </linearGradient>
        <linearGradient x1="0.0781361852%" y1="50.2588997%" x2="100.014317%" y2="50.2588997%" id="linearGradient-7">
            <stop stop-color="#C6DFFE" offset="0%"></stop>
            <stop stop-color="#72B1FE" offset="100%"></stop>
        </linearGradient>
        <linearGradient x1="0.0103263685%" y1="49.9638039%" x2="99.8372433%" y2="49.9638039%" id="linearGradient-8">
            <stop stop-color="#C6DFFE" offset="0%"></stop>
            <stop stop-color="#72B1FE" offset="100%"></stop>
        </linearGradient>
        <linearGradient x1="0%" y1="49.8768386%" x2="99.9865481%" y2="49.8768386%" id="linearGradient-9">
            <stop stop-color="#C6DFFE" offset="0%"></stop>
            <stop stop-color="#72B1FE" offset="100%"></stop>
        </linearGradient>
        <linearGradient x1="0.00374851787%" y1="50.0000273%" x2="99.9963438%" y2="50.0000273%" id="linearGradient-10">
            <stop stop-color="#C6DFFE" offset="0%"></stop>
            <stop stop-color="#72B1FE" offset="100%"></stop>
        </linearGradient>
        <linearGradient x1="6.46682808e-13%" y1="50%" x2="100%" y2="50%" id="linearGradient-11">
            <stop stop-color="#C6DFFE" offset="0%"></stop>
            <stop stop-color="#72B1FE" offset="100%"></stop>
        </linearGradient>
        <linearGradient x1="0.0108485001%" y1="49.9609761%" x2="100.008471%" y2="49.9609761%" id="linearGradient-12">
            <stop stop-color="#C6DFFE" offset="0%"></stop>
            <stop stop-color="#72B1FE" offset="100%"></stop>
        </linearGradient>
        <linearGradient x1="0%" y1="50%" x2="100%" y2="50%" id="linearGradient-13">
            <stop stop-color="#F9E7A8" offset="0%"></stop>
            <stop stop-color="#F5A623" offset="100%"></stop>
        </linearGradient>
        <linearGradient x1="49.9873476%" y1="99.9999234%" x2="49.9873476%" y2="3.25952169e-05%" id="linearGradient-14">
            <stop stop-color="#C6DFFE" offset="0%"></stop>
            <stop stop-color="#72B1FE" offset="100%"></stop>
        </linearGradient>
        <linearGradient x1="49.9975317%" y1="100%" x2="49.9975317%" y2="-1.25040517e-13%" id="linearGradient-15">
            <stop stop-color="#C6DFFE" offset="0%"></stop>
            <stop stop-color="#72B1FE" offset="100%"></stop>
        </linearGradient>
        <linearGradient x1="0%" y1="50%" x2="100%" y2="50%" id="linearGradient-16">
            <stop stop-color="#C6DFFE" offset="0%"></stop>
            <stop stop-color="#72B1FE" offset="100%"></stop>
        </linearGradient>
        <linearGradient x1="0%" y1="50%" x2="100%" y2="50%" id="linearGradient-17">
            <stop stop-color="#BFD4FA" offset="0%"></stop>
            <stop stop-color="#5792F0" offset="100%"></stop>
        </linearGradient>
        <linearGradient x1="0.0983480762%" y1="49.7262282%" x2="100.118342%" y2="49.7262282%" id="linearGradient-18">
            <stop stop-color="#1A1114" offset="0%"></stop>
            <stop stop-color="#30231E" offset="25%"></stop>
            <stop stop-color="#4A372A" offset="50%"></stop>
            <stop stop-color="#5A372A" offset="59%"></stop>
            <stop stop-color="#60372A" offset="66%"></stop>
            <stop stop-color="#98372A" offset="98%"></stop>
        </linearGradient>
        <linearGradient x1="100%" y1="49.9462969%" x2="-7.72679006e-13%" y2="49.9462969%" id="linearGradient-19">
            <stop stop-color="#F3835D" offset="0%"></stop>
            <stop stop-color="#FFC644" offset="100%"></stop>
        </linearGradient>
        <linearGradient x1="-1.28779834e-13%" y1="49.9462969%" x2="100%" y2="49.9462969%" id="linearGradient-20">
            <stop stop-color="#F3835D" offset="0%"></stop>
            <stop stop-color="#FFC644" offset="100%"></stop>
        </linearGradient>
        <linearGradient x1="0%" y1="50%" x2="100%" y2="50%" id="linearGradient-21">
            <stop stop-color="#EAF2FD" offset="0%"></stop>
            <stop stop-color="#C4DFFD" offset="100%"></stop>
        </linearGradient>
    </defs>
    <g id="画板备份" stroke="none" stroke-width="1" fill="none" fill-rule="evenodd">
        <g id="资源-2" transform="translate(16.000000, 1.000000)">
            <path d="M185.68,0 C152.588744,-0.0768105047 120.368128,10.5990541 93.87,30.420416 L104.12,30.420416 C106.451253,30.420416 108.687024,31.3465027 110.335469,32.9949474 C111.983913,34.6433922 112.91,36.8791631 112.91,39.210416 L112.91,39.210416 L112.91,39.890416 C112.91,44.744999 108.974583,48.680416 104.12,48.680416 L73.58,48.680416 C67.7772753,54.9277597 62.5181997,61.6588412 57.86,68.800416 L43.35,68.800416 C38.1237691,68.8059348 33.8899971,73.0441822 33.89,78.270416 L33.89,78.800416 C33.8866193,83.0171095 36.6773219,86.7258064 40.73,87.890416 L54.09,87.890416 C60.0634359,87.8959291 64.9044869,92.7369801 64.91,98.710416 L64.91,98.710416 L64.91,102.090416 C64.91,108.066137 60.065721,112.910416 54.09,112.910416 L8.18,112.910416 C3.37206252,114.120077 0,118.44264 0,123.400416 L0,124.000416 C0,129.976137 4.84427901,134.820416 10.82,134.820416 L34.6,134.820416 C34.1333333,139.633749 33.8966667,144.500416 33.89,149.420416 C33.89,231.940416 101.89,298.840416 185.68,298.840416 C252.74,298.840416 309.68,256.040416 329.73,196.680416 L335.42,196.680416 C337.41268,196.666371 339.118372,195.247634 339.495144,193.290848 C339.871917,191.334061 338.814992,189.383392 336.97,188.630416 L329.97,188.630416 C325.11932,188.630419 321.185518,184.701093 321.18,179.850416 L321.18,179.850416 L321.18,179.170416 C321.18,174.315833 325.115417,170.380416 329.97,170.380416 L336,170.380416 L336,170.270416 L351,170.270416 C354.838379,170.270416 357.95,167.158795 357.95,163.320416 C357.95,159.482037 354.838379,156.370416 351,156.370416 L337.31,156.370416 C337.423333,154.070416 337.476667,151.737083 337.47,149.370416 C337.491021,128.029098 332.860213,106.939641 323.9,87.570416 L348.2,87.570416 C358.652464,87.5648988 367.124483,79.0928802 367.13,68.640416 L367.13,67.580416 C367.13,57.5485328 359.305239,49.2580575 349.29,48.680416 L263.68,48.680416 C259.946555,48.680416 256.92,45.653861 256.92,41.920416 C256.92,38.1869711 259.946555,35.160416 263.68,35.160416 L283.5,35.160416 L283,34.750416 L292.86,34.750416 C296.267113,34.7504171 299.534534,33.3962626 301.942788,30.9861323 C304.351043,28.5760019 305.702654,25.3075281 305.7,21.900416 L305.7,21.190416 C305.702654,17.783304 304.351043,14.5148302 301.942788,12.1046998 C299.534534,9.69456947 296.267113,8.34041501 292.86,8.34041604 L235.81,8.34041604 C219.677935,2.80040978 202.736812,-0.0180415623 185.68,0 Z" id="背景" fill="#EDF0F4" opacity="0.35"></path>
            <path d="M182,233.000416 C216.36,233.000416 247.3,235.800416 268.93,240.280416 C290.08,240.420416 307.12,246.760416 307.12,254.550416 C307.12,260.730416 296.42,265.990416 281.45,267.980416 C277.87,269.040416 273.85,270.030416 269.45,270.980416 C269.561511,271.570597 269.618419,272.169795 269.62,272.770416 C269.62,286.370416 240.04,297.400416 203.56,297.400416 C170.74,297.400416 143.56,288.470416 138.37,276.770416 C94.58,273.450416 63.6099943,265.260416 63.6099943,255.690416 C63.59,243.110416 116.6,233.000416 182,233.000416 Z" id="形状结合" fill="url(#linearGradient-1)" opacity="0.27"></path>
            <path d="M93.25,262.820416 C99.31,259.960416 109.81,250.820416 103.08,234.600416 C96.73,218.170416 86.23,227.280416 82.93,216.350416 C79.63,205.420416 80.07,202.430416 71.19,198.290416 C62.31,194.150416 67.27,190.000416 60.83,185.140416 C54.39,180.280416 50.83,179.660416 46.31,181.800416 C41.79,183.940416 49.52,196.470416 45.31,201.240416 C41.1,206.010416 40.84,207.500416 48,214.780416 C55.16,222.060416 57.93,222.120416 55.53,228.780416 C53.13,235.440416 55.53,237.580416 60.01,237.310416 C64.49,237.040416 71.43,237.020416 68.78,246.120416 C66.13,255.220416 67.18,258.440416 75.91,261.260416 C84.64,264.080416 84.91,266.720416 93.28,262.800416 L93.25,262.820416 Z" id="路径" fill="url(#linearGradient-2)" fill-rule="nonzero"></path>
            <path d="M96.68,260.280416 C96.5792369,260.328286 96.4635691,260.334102 96.3585122,260.296582 C96.2534553,260.259062 96.1676412,260.181287 96.12,260.080416 L58.5,204.730416 C58.32,204.350416 58.32,204.350416 58.7,204.180416 C59.08,204.010416 59.08,204.000416 59.26,204.380416 L96.88,259.720416 C97.06,260.100416 97.06,260.100416 96.68,260.280416 Z" id="路径" fill="url(#linearGradient-3)" fill-rule="nonzero"></path>
            <path d="M72.09,223.770416 C71.71,223.940416 71.53,223.570416 71.35,223.190416 L72.44,208.800416 C72.44,208.800416 72.64,208.250416 72.82,208.630416 C72.82,208.630416 73.37,208.830416 73,209.000416 L72.09,223.770416 L72.09,223.770416 Z M78.23,232.890416 L66.81,233.190416 C66.7106964,233.237896 66.5964723,233.243453 66.4930287,233.205837 C66.3895851,233.168221 66.3056106,233.090592 66.26,232.990416 C66.2092599,232.890096 66.2019392,232.773342 66.2397507,232.66747 C66.2775623,232.561598 66.3571885,232.475896 66.46,232.430416 L77.46,232.310416 C78.22,231.960416 78.39,232.310416 78.19,232.890416 L78.23,232.890416 Z M86.92,245.450416 L86.92,245.450416 C86.54,245.630416 86.37,245.250416 86.19,244.870416 L87.85,229.750416 C87.85,229.750416 88.05,229.190416 88.23,229.570416 C88.23,229.570416 88.79,229.770416 88.41,229.950416 L86.92,245.450416 Z M92,253.240416 L76.26,253.240416 C75.88,253.410416 75.7,253.040416 76.08,252.860416 C75.9,252.480416 76.28,252.300416 76.46,252.680416 L91.8,252.850416 C92.18,252.670416 92.18,252.670416 91.98,253.230416 L92,253.240416 Z" id="形状" fill="url(#linearGradient-4)" fill-rule="nonzero"></path>
            <path d="M102.33,258.540416 C107.63,256.040416 110.44,256.110416 110.24,248.810416 C109.83,242.060416 114.95,239.190416 111.68,235.180416 C108.41,231.170416 105.18,233.180416 105.98,223.070416 C106.78,212.960416 101.07,208.730416 97.73,207.530416 C94.39,206.330416 92.73,203.850416 89.73,198.360416 C86.73,192.870416 81.36,196.290416 80.92,199.270416 C80.48,202.250416 84.04,209.820416 81.68,214.630416 C79.32,219.440416 83.91,223.300416 87.78,225.630416 C91.65,227.960416 89.3,232.780416 87.16,236.100416 C85.16,239.790416 80.4,245.300416 84.07,248.190416 C87.74,251.080416 93.65,262.640416 102.35,258.540416 L102.33,258.540416 Z" id="路径" fill="url(#linearGradient-5)" fill-rule="nonzero"></path>
            <path d="M103.09,258.180416 C102.98968,258.231156 102.872926,258.238477 102.767054,258.200665 C102.661182,258.162854 102.57548,258.083228 102.53,257.980416 L92.66,216.390416 C92.6092599,216.290096 92.6019392,216.173342 92.6397507,216.06747 C92.6775623,215.961598 92.7571885,215.875896 92.86,215.830416 C92.9607631,215.782546 93.0764309,215.77673 93.1814878,215.81425 C93.2865447,215.851771 93.3723588,215.929545 93.42,216.030416 L103.09,258.180416 C103.29,257.620416 103.47,258.000416 103.09,258.180416 Z" id="路径" fill="url(#linearGradient-6)" fill-rule="nonzero"></path>
            <path d="M97.34,232.220416 L97.34,232.220416 C96.78,232.020416 96.78,232.020416 96.6,231.640416 L100.83,219.000416 L101.21,218.820416 L101.39,219.200416 L97.39,232.200416 L97.34,232.220416 Z M101.42,249.720416 L101.42,249.720416 L89,244.000416 L88.83,243.620416 L89.2,243.440416 L101.2,249.340416 C101.62,249.160416 101.8,249.540416 101.42,249.720416 Z" id="形状" fill="url(#linearGradient-7)" fill-rule="nonzero"></path>
            <path d="M128.27,266.560416 C129.683782,266.521943 130.997642,265.822497 131.818946,264.671098 C132.640251,263.519699 132.873874,262.049709 132.45,260.700416 C131.62,257.350416 130.36,259.030416 129.94,261.540416 C129.52,264.050416 130.36,260.280416 127.85,259.450416 C125.34,259.030416 127.85,263.630416 127.01,264.450416 C125.76,264.860416 124.09,260.260416 122.41,262.350416 C120.73,264.440416 124.5,266.540416 128.27,266.540416 L128.27,266.560416 Z" id="路径" fill="url(#linearGradient-8)" fill-rule="nonzero"></path>
            <path d="M298.76,247.210416 C294.57,247.210416 289.97,242.210416 289.55,238.840416 C289.55,235.080416 294.15,235.500416 294.15,233.840416 C294.15,232.180416 291.23,232.170416 291.64,230.910416 C292.05,229.650416 294.57,229.240416 294.15,228.400416 C293.73,227.560416 290.81,228.820416 291.64,226.730416 C292.48,224.220416 294.15,225.480416 292.9,222.550416 C291.65,219.620416 295.41,222.550416 294.15,220.040416 C292.9,217.110416 291.64,215.040416 294.15,213.760416 C296.66,212.480416 296.25,222.130416 297.08,221.290416 C298.34,220.870416 300.01,220.040416 300.43,222.970416 C300.85,225.900416 298.76,226.730416 302.52,227.150416 C305.87,227.570416 301.27,232.590416 303.78,233.840416 C306.29,235.090416 309.63,238.440416 306.7,241.840416 C304.19,244.770416 302.52,247.280416 298.76,247.280416 L298.76,247.210416 Z" id="路径" fill="url(#linearGradient-9)" fill-rule="nonzero"></path>
            <path d="M298.76,247.210541 C298.870494,247.210541 298.976323,247.165883 299.053507,247.086816 C299.130691,247.00775 299.172695,246.900877 299.17,246.790416 L296.66,223.790416 C296.665609,223.679149 296.62456,223.570584 296.546737,223.490863 C296.468914,223.411142 296.36137,223.36749 296.25,223.370278 C296.137782,223.367644 296.029335,223.411003 295.949961,223.490377 C295.870587,223.569751 295.827228,223.678198 295.83,223.790416 L298.34,246.790416 C298.337228,246.902634 298.380587,247.011081 298.459961,247.090455 C298.539335,247.169829 298.647782,247.213188 298.76,247.210541 L298.76,247.210541 Z" id="路径" fill="url(#linearGradient-10)" fill-rule="nonzero"></path>
            <path d="M298.34,243.440416 L298.34,243.440416 C298.76,243.030416 298.76,243.030416 298.76,242.610416 L292.9,238.000416 L292.48,238.000416 L292.48,238.410416 L298.34,243.440416 Z M297.5,235.080416 L297.5,235.080416 L301.27,229.640416 L301.27,229.220416 L300.85,229.220416 L297.08,234.660416 L297.5,235.080416 Z" id="形状" fill="url(#linearGradient-11)" fill-rule="nonzero"></path>
            <path d="M279.93,246.790416 C279.93,246.790416 281.6,248.050416 285.79,245.950416 C289.97,243.440416 289.13,241.350416 287.04,242.190416 C284.95,243.030416 281.19,247.630416 280.35,246.370416 C279.51,245.110416 282.86,242.610416 280.77,240.100416 C278.68,237.590416 279.93,243.030416 279.09,243.030416 C278.68,243.030416 277.84,240.100416 277,241.350416 C276.16,242.600416 278.26,246.350416 278.68,246.790416 C279.51,247.210416 278.26,247.210416 276.16,246.370416 C274.07,245.120416 273.65,247.630416 275.75,248.460416 C277.85,249.290416 279.93,246.790416 279.93,246.790416 L279.93,246.790416 Z" id="路径" fill="url(#linearGradient-12)" fill-rule="nonzero"></path>
            <ellipse id="椭圆形" fill="url(#linearGradient-13)" fill-rule="nonzero" opacity="0.41" cx="156.13" cy="246.650416" rx="26" ry="5.69"></ellipse>
            <path d="M237,85.3703659 L126.21,85.3703659 C124.000861,85.3703659 122.209979,87.161277 122.209979,89.370416 L122.209979,235.160416 C122.208413,235.655483 122.296501,236.146744 122.47,236.610416 C122.982029,237.929998 124.153321,238.880723 125.55,239.110416 L125.55,239.110416 C125.766596,239.15893 125.988046,239.182417 126.21,239.180534 L237,239.180534 C238.662645,239.186376 240.155611,238.163196 240.75,236.610416 C240.931645,236.148724 241.023292,235.656545 241.020086,235.160416 L241.020086,89.380416 C241.022679,88.3143438 240.599683,87.2913087 239.844915,86.5384187 C239.090148,85.7855288 238.066062,85.3650823 237,85.3703659 Z M137.39,105.870416 L225.83,105.870416 L225.83,109.220416 L137.38,109.220416 L137.39,105.870416 Z M231.300002,161.540416 C231.304045,169.971228 226.228024,177.573949 218.439743,180.80215 C210.651462,184.03035 201.685382,182.248004 195.723897,176.286519 C189.762412,170.325034 187.980066,161.358954 191.208266,153.570673 C194.436467,145.782392 202.039188,140.706372 210.47,140.710414 C221.9679,140.721449 231.284488,150.042512 231.29,161.540416 L231.300002,161.540416 Z M137.38,129.000416 L207.38,129.000416 L207.38,132.340416 L137.38,132.340416 L137.38,129.000416 Z M137.38,151.510416 L184.9,151.510416 L184.9,154.860416 L137.38,154.860416 L137.38,151.510416 Z M137.38,175.240416 L171.51,175.240416 L171.51,178.580416 L137.38,178.580416 L137.38,175.240416 Z" id="形状" fill="url(#linearGradient-14)" fill-rule="nonzero"></path>
            <path d="M125.84,239.180416 C125.84,239.180416 142.78,237.540416 142.78,216.450416 L262.07,216.450416 C262.07,216.450416 264.01,239.180416 245.2,239.180416 L125.84,239.180416 Z" id="路径" fill="url(#linearGradient-15)" fill-rule="nonzero"></path>
            <rect id="矩形" fill="url(#linearGradient-16)" fill-rule="nonzero" x="157.32" y="80.680416" width="46.55" height="9.66" rx="1.98"></rect>
            <path d="M210.52,143.820416 C200.838448,143.820416 192.99,151.668864 192.99,161.350416 C192.99,171.031968 200.838448,178.880416 210.52,178.880416 C220.201552,178.880416 228.05,171.031968 228.05,161.350416 C228.05,151.668864 220.201552,143.820416 210.52,143.820416 Z M218.3,166.600416 C218.805463,167.040219 219.022989,167.725485 218.863723,168.376295 C218.704457,169.027105 218.195069,169.534481 217.543632,169.691168 C216.892196,169.847855 216.207798,169.627617 215.77,169.120416 L210.52,163.870416 L205.27,169.120416 C204.574121,169.816295 203.445879,169.816295 202.75,169.120416 C202.054121,168.424537 202.054121,167.296295 202.75,166.600416 L208,161.350416 L202.75,156.100416 C202.299845,155.650261 202.12404,154.994147 202.288808,154.379224 C202.453576,153.764301 202.933885,153.283992 203.548808,153.119224 C204.163731,152.954456 204.819845,153.130261 205.27,153.580416 L210.52,158.830416 L215.77,153.580416 C216.207798,153.073215 216.892196,152.852977 217.543632,153.009664 C218.195069,153.166352 218.704457,153.673727 218.863723,154.324537 C219.022989,154.975348 218.805463,155.660613 218.3,156.100416 L213.05,161.350416 L218.3,166.600416 Z" id="形状" fill="url(#linearGradient-17)" fill-rule="nonzero"></path>
            <path d="M155.53,195.000416 L155.53,199.580416 C155.53,199.580416 156.35,200.730416 157.17,200.730416 C157.99,200.730416 158.82,199.580416 158.82,199.580416 L158.82,195.000416 L155.53,195.000416 Z" id="路径" fill="#E2AD96" fill-rule="nonzero"></path>
            <path d="M151.05,186.660416 C151.05,186.660416 150.81,192.180416 152.05,193.840416 C153.29,195.500416 156.16,196.100416 156.88,196.200416 C157.6,196.300416 161.52,195.140416 162.27,194.060416 C163.02,192.980416 163.42,187.240416 163.42,187.240416 L157.85,182.590416 L151.05,186.660416 Z" id="路径" fill="#EFBA9E" fill-rule="nonzero"></path>
            <path d="M157.53,180.760416 C157.53,180.760416 152.05,181.760416 150.72,184.840416 C149.23,187.000416 150.31,187.750416 152.13,187.410416 C153.95,187.070416 155.62,185.830416 157.45,185.500416 C159.28,185.170416 163.18,191.060416 164.84,189.820416 C165.84,189.030416 163.84,184.330416 162.6,182.670416 C161.36,181.010416 157.53,180.760416 157.53,180.760416 Z" id="路径" fill="#131322" fill-rule="nonzero"></path>
            <path d="M152.64,197.230416 C152.64,197.230416 153.25,197.520416 156.97,197.670416 C160.03,197.790416 161.17,196.830416 162.4,197.230416 C165.12,198.110416 175.6,229.450416 175.6,229.450416 L160.07,238.720416 L140.28,228.130416 L152.64,197.230416 Z" id="路径" fill="#F7BC5C" fill-rule="nonzero"></path>
            <path d="M143.52,252.000416 L147.52,248.000416 L165.89,247.860416 L170.52,252.490416 C170.52,252.490416 185.52,235.130416 182.09,230.490416 C175.25,221.370416 163.29,234.830416 158.95,236.570416 C154.61,238.310416 147.95,230.200416 141.88,228.180416 C135.2,225.950416 132.62,227.310416 131.76,232.520416 C131.81,241.130416 143.52,252.000416 143.52,252.000416 Z" id="路径" fill="url(#linearGradient-18)" fill-rule="nonzero"></path>
            <polygon id="路径" fill="#EFBA9E" fill-rule="nonzero" points="143.81 250.250416 149.88 256.320416 152.78 256.320416 146.41 245.910416"></polygon>
            <polygon id="路径" fill="#EFBA9E" fill-rule="nonzero" points="169.84 249.960416 163.77 256.030416 160.88 256.030416 167.24 245.620416"></polygon>
            <path d="M150.17,255.160416 C150.17,255.160416 145.84,258.920416 145.26,260.080416 C144.68,261.240416 144.97,261.530416 145.55,261.820416 C146.13,262.110416 152.2,259.210416 152.78,258.350416 C153.36,257.490416 153.36,257.480416 153.36,256.900416 C153.36,256.320416 151.62,254.430416 151.62,254.430416 L150.17,255.160416 Z" id="路径" fill="#1B1718" fill-rule="nonzero"></path>
            <path d="M163.17,255.160416 C163.17,255.160416 167.5,258.920416 168.08,260.080416 C168.66,261.240416 168.37,261.530416 167.79,261.820416 C167.21,262.110416 161.14,259.210416 160.56,258.350416 C159.98,257.490416 159.98,257.480416 159.98,256.900416 C159.98,256.320416 161.72,254.430416 161.72,254.430416 L163.17,255.160416 Z" id="路径" fill="#1B1718" fill-rule="nonzero"></path>
            <path d="M132.34,237.000416 L135.53,236.890416 C136.233563,238.198196 136.84181,239.555055 137.35,240.950416 C137.35,241.480416 137.88,243.860416 137.35,243.860416 C136.82,243.860416 135.77,240.950416 135.77,240.950416 L135.5,241.220416 L135.5,245.440416 C135.5,245.440416 136.03,246.230416 135.77,246.490416 C135.51,246.750416 133.13,245.180416 133.13,245.180416 L132.34,243.590416 L132.34,237.000416 Z" id="路径" fill="#EFBA9E" fill-rule="nonzero"></path>
            <path d="M153.52,197.230416 C153.52,197.230416 149.99,195.900416 146.02,199.430416 C140.28,203.000416 131.45,237.000416 131.45,237.000416 L136.75,238.320416 L150.43,203.000416 L153.52,197.230416 Z" id="路径" fill="url(#linearGradient-19)" fill-rule="nonzero"></path>
            <path d="M181.78,237.000416 L178.58,236.890416 C177.876437,238.198196 177.26819,239.555055 176.76,240.950416 C176.76,241.480416 176.23,243.860416 176.76,243.860416 C177.29,243.860416 178.35,240.950416 178.35,240.950416 L178.61,241.220416 L178.61,245.440416 C178.61,245.440416 178.08,246.230416 178.35,246.490416 C178.62,246.750416 180.98,245.180416 180.98,245.180416 L181.78,243.590416 L181.78,237.000416 Z" id="路径" fill="#EFBA9E" fill-rule="nonzero"></path>
            <path d="M160.59,197.230416 C160.59,197.230416 164.12,195.900416 168.09,199.430416 C173.83,203.000416 182.66,237.000416 182.66,237.000416 L177.36,238.320416 L163.68,203.000416 L160.59,197.230416 Z" id="路径" fill="url(#linearGradient-20)" fill-rule="nonzero"></path>
            <circle id="椭圆形" fill="url(#linearGradient-21)" fill-rule="nonzero" opacity="0.54" cx="92.63" cy="111.260416" r="8.5"></circle>
            <circle id="椭圆形" fill="url(#linearGradient-21)" fill-rule="nonzero" opacity="0.54" cx="228.63" cy="38.260416" r="4.5"></circle>
            <circle id="椭圆形" fill="url(#linearGradient-21)" fill-rule="nonzero" opacity="0.54" cx="283.63" cy="172.260416" r="11.5"></circle>
        </g>
    </g>
</svg>