<?xml version="1.0" encoding="UTF-8"?>
<svg width="400px" height="300px" viewBox="0 0 400 300" version="1.1" xmlns="http://www.w3.org/2000/svg" xmlns:xlink="http://www.w3.org/1999/xlink">
    <title>画板备份 7</title>
    <defs>
        <linearGradient x1="-0.00821089158%" y1="49.9223602%" x2="99.9958934%" y2="49.9223602%" id="linearGradient-1">
            <stop stop-color="#F9E7A8" offset="0%"></stop>
            <stop stop-color="#F5A623" offset="100%"></stop>
        </linearGradient>
        <linearGradient x1="31.2283465%" y1="59.1342172%" x2="66.5442809%" y2="36.8851799%" id="linearGradient-2">
            <stop stop-color="#C6DFFE" offset="0%"></stop>
            <stop stop-color="#72B1FE" offset="100%"></stop>
        </linearGradient>
        <linearGradient x1="-0.00816792338%" y1="49.9928234%" x2="99.9822704%" y2="49.9928234%" id="linearGradient-3">
            <stop stop-color="#C6DFFE" offset="0%"></stop>
            <stop stop-color="#72B1FE" offset="100%"></stop>
        </linearGradient>
        <linearGradient x1="-0.0226459219%" y1="50.0002851%" x2="100.143552%" y2="50.0002851%" id="linearGradient-4">
            <stop stop-color="#C6DFFE" offset="0%"></stop>
            <stop stop-color="#72B1FE" offset="100%"></stop>
        </linearGradient>
        <linearGradient x1="-1336.02578%" y1="560.783649%" x2="-1230.86982%" y2="560.783649%" id="linearGradient-5">
            <stop stop-color="#C6DFFE" offset="0%"></stop>
            <stop stop-color="#72B1FE" offset="100%"></stop>
        </linearGradient>
        <linearGradient x1="-0.0548265901%" y1="50.0076576%" x2="99.9765458%" y2="50.0076576%" id="linearGradient-6">
            <stop stop-color="#C6DFFE" offset="0%"></stop>
            <stop stop-color="#72B1FE" offset="100%"></stop>
        </linearGradient>
        <linearGradient x1="0.0781361852%" y1="50.2588997%" x2="100.014317%" y2="50.2588997%" id="linearGradient-7">
            <stop stop-color="#C6DFFE" offset="0%"></stop>
            <stop stop-color="#72B1FE" offset="100%"></stop>
        </linearGradient>
        <linearGradient x1="0.0103263685%" y1="49.9638039%" x2="99.8372433%" y2="49.9638039%" id="linearGradient-8">
            <stop stop-color="#C6DFFE" offset="0%"></stop>
            <stop stop-color="#72B1FE" offset="100%"></stop>
        </linearGradient>
        <linearGradient x1="0%" y1="50%" x2="100%" y2="50%" id="linearGradient-9">
            <stop stop-color="#EAF2FD" offset="0%"></stop>
            <stop stop-color="#C4DFFD" offset="100%"></stop>
        </linearGradient>
        <linearGradient x1="5.68434189e-13%" y1="50.2%" x2="100%" y2="50.2%" id="linearGradient-10">
            <stop stop-color="#EAF2FD" offset="0%"></stop>
            <stop stop-color="#C4DFFD" offset="100%"></stop>
        </linearGradient>
        <linearGradient x1="-0.0354609929%" y1="49.929078%" x2="100%" y2="49.929078%" id="linearGradient-11">
            <stop stop-color="#EAF2FD" offset="0%"></stop>
            <stop stop-color="#C4DFFD" offset="100%"></stop>
        </linearGradient>
        <linearGradient x1="-0.0810372771%" y1="50.1618123%" x2="99.9189627%" y2="50.1618123%" id="linearGradient-12">
            <stop stop-color="#EAF2FD" offset="0%"></stop>
            <stop stop-color="#C4DFFD" offset="100%"></stop>
        </linearGradient>
        <linearGradient x1="2.30321794e-13%" y1="49.8381877%" x2="100%" y2="49.8381877%" id="linearGradient-13">
            <stop stop-color="#EAF2FD" offset="0%"></stop>
            <stop stop-color="#C4DFFD" offset="100%"></stop>
        </linearGradient>
        <linearGradient x1="-0.0523743017%" y1="50%" x2="100%" y2="50%" id="linearGradient-14">
            <stop stop-color="#C6DFFE" offset="0%"></stop>
            <stop stop-color="#72B1FE" offset="100%"></stop>
        </linearGradient>
        <linearGradient x1="20.9750552%" y1="17.8785396%" x2="58.5428089%" y2="57.7818121%" id="linearGradient-15">
            <stop stop-color="#C6DFFE" offset="0%"></stop>
            <stop stop-color="#72B1FE" offset="100%"></stop>
        </linearGradient>
        <linearGradient x1="0%" y1="50%" x2="100%" y2="50%" id="linearGradient-16">
            <stop stop-color="#C6DFFE" offset="0%"></stop>
            <stop stop-color="#72B1FE" offset="100%"></stop>
        </linearGradient>
        <linearGradient x1="-3.26686315e-14%" y1="50%" x2="100%" y2="50%" id="linearGradient-17">
            <stop stop-color="#F9E7A8" offset="0%"></stop>
            <stop stop-color="#F5A623" offset="100%"></stop>
        </linearGradient>
        <linearGradient x1="0%" y1="49.9510885%" x2="99.9865481%" y2="49.9510885%" id="linearGradient-18">
            <stop stop-color="#C6DFFE" offset="0%"></stop>
            <stop stop-color="#72B1FE" offset="100%"></stop>
        </linearGradient>
        <linearGradient x1="0.00374851787%" y1="50.0000273%" x2="99.9963438%" y2="50.0000273%" id="linearGradient-19">
            <stop stop-color="#C6DFFE" offset="0%"></stop>
            <stop stop-color="#72B1FE" offset="100%"></stop>
        </linearGradient>
        <linearGradient x1="6.46682808e-13%" y1="50%" x2="100%" y2="50%" id="linearGradient-20">
            <stop stop-color="#C6DFFE" offset="0%"></stop>
            <stop stop-color="#72B1FE" offset="100%"></stop>
        </linearGradient>
        <linearGradient x1="0.0108485001%" y1="49.9609761%" x2="100.008471%" y2="49.9609761%" id="linearGradient-21">
            <stop stop-color="#C6DFFE" offset="0%"></stop>
            <stop stop-color="#72B1FE" offset="100%"></stop>
        </linearGradient>
        <linearGradient x1="0%" y1="50.0194704%" x2="100.160471%" y2="50.0194704%" id="linearGradient-22">
            <stop stop-color="#1A1114" offset="0%"></stop>
            <stop stop-color="#30231E" offset="25%"></stop>
            <stop stop-color="#4A372A" offset="50%"></stop>
            <stop stop-color="#5A372A" offset="59%"></stop>
            <stop stop-color="#60372A" offset="66%"></stop>
            <stop stop-color="#98372A" offset="98%"></stop>
        </linearGradient>
        <linearGradient x1="0.00271954112%" y1="50.0095438%" x2="99.9837746%" y2="50.0095438%" id="linearGradient-23">
            <stop stop-color="#1A1114" offset="0%"></stop>
            <stop stop-color="#30231E" offset="25%"></stop>
            <stop stop-color="#4A372A" offset="50%"></stop>
            <stop stop-color="#5A372A" offset="59%"></stop>
            <stop stop-color="#60372A" offset="66%"></stop>
            <stop stop-color="#98372A" offset="98%"></stop>
        </linearGradient>
        <linearGradient x1="-7.87317087e-14%" y1="49.9905397%" x2="99.9184352%" y2="49.9905397%" id="linearGradient-24">
            <stop stop-color="#F3835D" offset="0%"></stop>
            <stop stop-color="#FFC644" offset="100%"></stop>
        </linearGradient>
        <linearGradient x1="0%" y1="50.1233299%" x2="100.016069%" y2="50.1233299%" id="linearGradient-25">
            <stop stop-color="#F3835D" offset="0%"></stop>
            <stop stop-color="#FFC644" offset="100%"></stop>
        </linearGradient>
    </defs>
    <g id="画板备份-7" stroke="none" stroke-width="1" fill="none" fill-rule="evenodd">
        <g id="资源-8" transform="translate(16.000000, 1.000000)">
            <path d="M185.68,0 C152.588744,-0.0768105047 120.368128,10.5990541 93.87,30.420416 L104.12,30.420416 C106.451253,30.420416 108.687024,31.3465027 110.335469,32.9949474 C111.983913,34.6433922 112.91,36.8791631 112.91,39.210416 L112.91,39.210416 L112.91,39.890416 C112.91,44.744999 108.974583,48.680416 104.12,48.680416 L73.58,48.680416 C67.7772753,54.9277597 62.5181997,61.6588412 57.86,68.800416 L43.35,68.800416 C38.1237691,68.8059348 33.8899971,73.0441822 33.89,78.270416 L33.89,78.800416 C33.8866193,83.0171095 36.6773219,86.7258064 40.73,87.890416 L54.09,87.890416 C60.0634359,87.8959291 64.9044869,92.7369801 64.91,98.710416 L64.91,98.710416 L64.91,102.090416 C64.91,108.066137 60.065721,112.910416 54.09,112.910416 L8.18,112.910416 C3.37206252,114.120077 0,118.44264 0,123.400416 L0,124.000416 C0,129.976137 4.84427901,134.820416 10.82,134.820416 L34.6,134.820416 C34.1333333,139.633749 33.8966667,144.500416 33.89,149.420416 C33.89,231.940416 101.89,298.840416 185.68,298.840416 C252.74,298.840416 309.68,256.040416 329.73,196.680416 L335.42,196.680416 C337.41268,196.666371 339.118372,195.247634 339.495144,193.290848 C339.871917,191.334061 338.814992,189.383392 336.97,188.630416 L329.97,188.630416 C325.11932,188.630419 321.185518,184.701093 321.18,179.850416 L321.18,179.850416 L321.18,179.170416 C321.18,174.315833 325.115417,170.380416 329.97,170.380416 L336,170.380416 L336,170.270416 L351,170.270416 C354.838379,170.270416 357.95,167.158795 357.95,163.320416 C357.95,159.482037 354.838379,156.370416 351,156.370416 L337.31,156.370416 C337.423333,154.070416 337.476667,151.737083 337.47,149.370416 C337.491021,128.029098 332.860213,106.939641 323.9,87.570416 L348.2,87.570416 C358.652464,87.5648988 367.124483,79.0928802 367.13,68.640416 L367.13,67.580416 C367.13,57.5485328 359.305239,49.2580575 349.29,48.680416 L263.68,48.680416 C259.946555,48.680416 256.92,45.653861 256.92,41.920416 C256.92,38.1869711 259.946555,35.160416 263.68,35.160416 L283.5,35.160416 L283,34.750416 L292.86,34.750416 C296.267113,34.7504171 299.534534,33.3962626 301.942788,30.9861323 C304.351043,28.5760019 305.702654,25.3075281 305.7,21.900416 L305.7,21.190416 C305.702654,17.783304 304.351043,14.5148302 301.942788,12.1046998 C299.534534,9.69456947 296.267113,8.34041501 292.86,8.34041604 L235.81,8.34041604 C219.677935,2.80040978 202.736812,-0.0180415623 185.68,0 Z" id="背景" fill="#EDF0F4" opacity="0.35"></path>
            <path d="M182,233.000416 C216.36,233.000416 247.3,235.800416 268.93,240.280416 C290.08,240.420416 307.12,246.760416 307.12,254.550416 C307.12,260.730416 296.42,265.990416 281.45,267.980416 C277.87,269.040416 273.85,270.030416 269.45,270.980416 C269.561511,271.570597 269.618419,272.169795 269.62,272.770416 C269.62,286.370416 240.04,297.400416 203.56,297.400416 C170.74,297.400416 143.56,288.470416 138.37,276.770416 C94.58,273.450416 63.6099943,265.260416 63.6099943,255.690416 C63.59,243.110416 116.6,233.000416 182,233.000416 Z" id="形状结合" fill="url(#linearGradient-1)" opacity="0.27"></path>
            <path d="M93.25,262.820416 C99.31,259.960416 109.81,250.820416 103.08,234.600416 C96.73,218.170416 86.23,227.280416 82.93,216.350416 C79.63,205.420416 80.07,202.430416 71.19,198.290416 C62.31,194.150416 67.27,190.000416 60.83,185.140416 C54.39,180.280416 50.83,179.660416 46.31,181.800416 C41.79,183.940416 49.52,196.470416 45.31,201.240416 C41.1,206.010416 40.84,207.500416 48,214.780416 C55.16,222.060416 57.93,222.120416 55.53,228.780416 C53.13,235.440416 55.53,237.580416 60.01,237.310416 C64.49,237.040416 71.43,237.020416 68.78,246.120416 C66.13,255.220416 67.18,258.440416 75.91,261.260416 C84.64,264.080416 84.91,266.720416 93.28,262.800416 L93.25,262.820416 Z" id="路径" fill="url(#linearGradient-2)" fill-rule="nonzero"></path>
            <path d="M96.68,260.280416 C96.5792369,260.328286 96.4635691,260.334102 96.3585122,260.296582 C96.2534553,260.259062 96.1676412,260.181287 96.12,260.080416 L58.5,204.730416 C58.32,204.350416 58.32,204.350416 58.7,204.180416 C59.08,204.010416 59.08,204.000416 59.26,204.380416 L96.88,259.720416 C97.06,260.100416 97.06,260.100416 96.68,260.280416 Z" id="路径" fill="url(#linearGradient-3)" fill-rule="nonzero"></path>
            <path d="M72.09,223.770416 C71.71,223.940416 71.53,223.570416 71.35,223.190416 L72.44,208.800416 C72.44,208.800416 72.64,208.250416 72.82,208.630416 C72.82,208.630416 73.37,208.830416 73,209.000416 L72.09,223.770416 L72.09,223.770416 Z M78.23,232.890416 L66.81,233.190416 C66.7106964,233.237896 66.5964723,233.243453 66.4930287,233.205837 C66.3895851,233.168221 66.3056106,233.090592 66.26,232.990416 C66.2092599,232.890096 66.2019392,232.773342 66.2397507,232.66747 C66.2775623,232.561598 66.3571885,232.475896 66.46,232.430416 L77.46,232.310416 C78.22,231.960416 78.39,232.310416 78.19,232.890416 L78.23,232.890416 Z M86.92,245.450416 L86.92,245.450416 C86.54,245.630416 86.37,245.250416 86.19,244.870416 L87.85,229.750416 C87.85,229.750416 88.05,229.190416 88.23,229.570416 C88.23,229.570416 88.79,229.770416 88.41,229.950416 L86.92,245.450416 Z M92,253.240416 L76.26,253.240416 C75.88,253.410416 75.7,253.040416 76.08,252.860416 C75.9,252.480416 76.28,252.300416 76.46,252.680416 L91.8,252.850416 C92.18,252.670416 92.18,252.670416 91.98,253.230416 L92,253.240416 Z" id="形状" fill="url(#linearGradient-4)" fill-rule="nonzero"></path>
            <path d="M102.33,258.540416 C107.63,256.040416 110.44,256.110416 110.24,248.810416 C109.83,242.060416 114.95,239.190416 111.68,235.180416 C108.41,231.170416 105.18,233.180416 105.98,223.070416 C106.78,212.960416 101.07,208.730416 97.73,207.530416 C94.39,206.330416 92.73,203.850416 89.73,198.360416 C86.73,192.870416 81.36,196.290416 80.92,199.270416 C80.48,202.250416 84.04,209.820416 81.68,214.630416 C79.32,219.440416 83.91,223.300416 87.78,225.630416 C91.65,227.960416 89.3,232.780416 87.16,236.100416 C85.16,239.790416 80.4,245.300416 84.07,248.190416 C87.74,251.080416 93.65,262.640416 102.35,258.540416 L102.33,258.540416 Z" id="路径" fill="url(#linearGradient-5)" fill-rule="nonzero"></path>
            <path d="M103.09,258.180416 C102.98968,258.231156 102.872926,258.238477 102.767054,258.200665 C102.661182,258.162854 102.57548,258.083228 102.53,257.980416 L92.66,216.390416 C92.6092599,216.290096 92.6019392,216.173342 92.6397507,216.06747 C92.6775623,215.961598 92.7571885,215.875896 92.86,215.830416 C92.9607631,215.782546 93.0764309,215.77673 93.1814878,215.81425 C93.2865447,215.851771 93.3723588,215.929545 93.42,216.030416 L103.09,258.180416 C103.29,257.620416 103.47,258.000416 103.09,258.180416 Z" id="路径" fill="url(#linearGradient-6)" fill-rule="nonzero"></path>
            <path d="M97.34,232.220416 L97.34,232.220416 C96.78,232.020416 96.78,232.020416 96.6,231.640416 L100.83,219.000416 L101.21,218.820416 L101.39,219.200416 L97.39,232.200416 L97.34,232.220416 Z M101.42,249.720416 L101.42,249.720416 L89,244.000416 L88.83,243.620416 L89.2,243.440416 L101.2,249.340416 C101.62,249.160416 101.8,249.540416 101.42,249.720416 Z" id="形状" fill="url(#linearGradient-7)" fill-rule="nonzero"></path>
            <path d="M128.27,266.560416 C129.683782,266.521943 130.997642,265.822497 131.818946,264.671098 C132.640251,263.519699 132.873874,262.049709 132.45,260.700416 C131.62,257.350416 130.36,259.030416 129.94,261.540416 C129.52,264.050416 130.36,260.280416 127.85,259.450416 C125.34,259.030416 127.85,263.630416 127.01,264.450416 C125.76,264.860416 124.09,260.260416 122.41,262.350416 C120.73,264.440416 124.5,266.540416 128.27,266.540416 L128.27,266.560416 Z" id="路径" fill="url(#linearGradient-8)" fill-rule="nonzero"></path>
            <rect id="矩形" fill="url(#linearGradient-9)" fill-rule="nonzero" transform="translate(91.133357, 79.264340) rotate(45.000000) translate(-91.133357, -79.264340) " x="81.1333575" y="76.7643405" width="20" height="5" rx="2.5"></rect>
            <rect id="矩形" fill="url(#linearGradient-10)" fill-rule="nonzero" transform="translate(91.126076, 79.273774) rotate(135.000000) translate(-91.126076, -79.273774) " x="81.1260756" y="76.7737735" width="20" height="5" rx="2.5"></rect>
            <rect id="矩形" fill="url(#linearGradient-11)" fill-rule="nonzero" transform="translate(280.130110, 78.263951) rotate(45.000000) translate(-280.130110, -78.263951) " x="266.03011" y="74.7389509" width="28.2" height="7.05" rx="2.5"></rect>
            <rect id="矩形" fill="url(#linearGradient-11)" fill-rule="nonzero" transform="translate(280.126465, 78.270526) rotate(135.000000) translate(-280.126465, -78.270526) " x="266.026465" y="74.7455264" width="28.2" height="7.05" rx="2.5"></rect>
            <rect id="矩形" fill="url(#linearGradient-12)" fill-rule="nonzero" transform="translate(162.125024, 17.271837) rotate(45.000000) translate(-162.125024, -17.271837) " x="155.955024" y="15.7268371" width="12.34" height="3.09" rx="1.54"></rect>
            <rect id="矩形" fill="url(#linearGradient-13)" fill-rule="nonzero" transform="translate(162.128579, 17.265440) rotate(135.000000) translate(-162.128579, -17.265440) " x="155.958579" y="15.7204399" width="12.34" height="3.09" rx="1.54"></rect>
            <path d="M126.8,105.490416 L108.05,105.490416 L106.8,107.310416 L80,146.600416 L77.83,149.780416 L77.83,165.060416 L111.68,165.060416 L111.68,181.350416 L126.8,181.350416 L126.8,165.060416 L135.11,165.060416 L135.11,151.730416 L126.8,151.730416 L126.8,105.490416 Z M92.62,151.730416 L111.62,123.870416 L111.62,151.730416 L92.62,151.730416 Z" id="形状" fill="url(#linearGradient-14)" fill-rule="nonzero"></path>
            <path d="M281.63,150.730416 L278.8,146.810416 L275.14,141.730416 L275.14,141.730416 L272.76,138.450416 L270.67,135.540416 L270.67,135.540416 L268.46,135.540416 L220.9,136.770416 L217.06,136.870416 L215.47,138.000416 L214.81,138.480416 L208.81,142.810416 L204.66,145.810416 L224.47,173.270416 L211.26,182.800416 L220.13,195.090416 L233.33,185.550416 L244.15,177.750416 L281.63,150.730416 Z M224.14,150.060416 L257.86,149.190416 L235.27,165.490416 L224.14,150.060416 Z" id="形状" fill="url(#linearGradient-15)" fill-rule="nonzero"></path>
            <path d="M169.69,104.690416 C154.55,104.690416 142.26,122.570416 142.26,144.630416 C142.26,166.690416 154.55,184.570416 169.69,184.570416 C184.83,184.570416 197.11,166.690416 197.11,144.630416 C197.11,122.570416 184.84,104.690416 169.69,104.690416 Z M170.09,170.780416 C163.38,170.780416 157.94,159.160416 157.94,144.780416 C157.94,130.400416 163.38,118.780416 170.09,118.780416 C176.8,118.780416 182.25,130.410416 182.25,144.780416 C182.25,159.150416 176.81,170.780416 170.09,170.780416 Z" id="形状" fill="url(#linearGradient-16)" fill-rule="nonzero"></path>
            <ellipse id="椭圆形" fill="url(#linearGradient-17)" fill-rule="nonzero" opacity="0.41" cx="263.97" cy="254.710416" rx="43.5" ry="6.72"></ellipse>
            <path d="M287.76,277.210416 C283.57,277.210416 278.97,272.210416 278.55,268.840416 C278.55,265.080416 283.15,265.500416 283.15,263.840416 C283.15,262.180416 280.23,262.170416 280.64,260.910416 C281.05,259.650416 283.57,259.240416 283.15,258.400416 C282.73,257.560416 279.81,258.820416 280.64,256.730416 C281.48,254.220416 283.15,255.480416 281.9,252.550416 C280.65,249.620416 284.41,252.550416 283.15,250.040416 C281.9,247.110416 280.64,245.040416 283.15,243.760416 C285.66,242.480416 285.25,252.130416 286.08,251.290416 C287.34,250.870416 289.01,250.040416 289.43,252.970416 C289.85,255.900416 287.76,256.730416 291.52,257.150416 C294.87,257.570416 290.27,262.590416 292.78,263.840416 C295.29,265.090416 298.63,268.440416 295.7,271.790416 C293.19,274.720416 291.52,277.230416 287.76,277.230416 L287.76,277.210416 Z" id="路径" fill="url(#linearGradient-18)" fill-rule="nonzero"></path>
            <path d="M287.76,277.210541 C287.870494,277.210541 287.976323,277.165883 288.053507,277.086816 C288.130691,277.00775 288.172695,276.900877 288.17,276.790416 L285.66,253.790416 C285.665609,253.679149 285.62456,253.570584 285.546737,253.490863 C285.468914,253.411142 285.36137,253.36749 285.25,253.370278 C285.137782,253.367644 285.029335,253.411003 284.949961,253.490377 C284.870587,253.569751 284.827228,253.678198 284.83,253.790416 L287.34,276.790416 C287.337228,276.902634 287.380587,277.011081 287.459961,277.090455 C287.539335,277.169829 287.647782,277.213188 287.76,277.210541 L287.76,277.210541 Z" id="路径" fill="url(#linearGradient-19)" fill-rule="nonzero"></path>
            <path d="M287.34,273.440416 L287.34,273.440416 C287.76,273.030416 287.76,273.030416 287.76,272.610416 L281.9,268.000416 L281.48,268.000416 L281.48,268.410416 L287.34,273.440416 Z M286.5,265.080416 L286.5,265.080416 L290.27,259.640416 L290.27,259.220416 L289.85,259.220416 L286.08,264.660416 L286.5,265.080416 Z" id="形状" fill="url(#linearGradient-20)" fill-rule="nonzero"></path>
            <path d="M268.93,276.790416 C268.93,276.790416 270.6,278.050416 274.79,275.950416 C278.97,273.440416 278.13,271.350416 276.04,272.190416 C273.95,273.030416 270.19,277.630416 269.35,276.370416 C268.51,275.110416 271.86,272.610416 269.77,270.100416 C267.68,267.590416 268.93,273.030416 268.09,273.030416 C267.68,273.030416 266.84,270.100416 266,271.350416 C265.16,272.600416 267.26,276.350416 267.68,276.790416 C268.51,277.210416 267.26,277.210416 265.16,276.370416 C263.07,275.120416 262.65,277.630416 264.75,278.460416 C266.85,279.290416 268.93,276.790416 268.93,276.790416 L268.93,276.790416 Z" id="路径" fill="url(#linearGradient-21)" fill-rule="nonzero"></path>
            <path d="M295.55,250.540416 C295.18,250.750416 295.18,251.540416 296.1,252.930416 C297.02,254.320416 297.26,255.200416 298.42,254.560416 C299.42,254.020416 305.68,249.750416 307.42,248.560416 C308.01,248.170416 307.47,247.630416 307.35,247.490416 C306.83,246.880416 305.72,246.170416 303.7,247.240416 C302.14,247.910416 299.92,247.420416 299.3,247.830416 C298.68,248.240416 298.79,249.040416 297.76,249.650416 C297.040004,249.986909 296.302249,250.284014 295.55,250.540416 Z" id="路径" fill="#000000" fill-rule="nonzero"></path>
            <path d="M261.86,250.000416 C261.43,249.940416 260.95,250.600416 260.86,252.240416 C260.77,253.880416 260.45,254.760416 261.76,254.940416 C262.89,255.090416 270.46,255.370416 272.55,255.470416 C273.26,255.470416 273.15,254.740416 273.13,254.560416 C273.07,253.760416 272.6,252.560416 270.34,252.190416 C268.69,251.810416 267.19,250.100416 266.45,250.060416 C265.71,250.020416 265.32,250.730416 264.13,250.610416 C262.94,250.490416 262.6,250.000416 261.86,250.000416 Z" id="路径" fill="#000000" fill-rule="nonzero"></path>
            <path d="M230.07,201.000416 C230.377991,203.101365 230.942193,205.156672 231.75,207.120416 C232.95,209.760416 248.75,220.790416 248.75,220.790416 C248.75,220.790416 251.46,230.730416 252.75,234.080416 C254.04,237.430416 260.24,252.360416 260.24,252.360416 L267.46,249.950416 C267.46,249.950416 258.31,220.070416 257.84,218.750416 C257.37,217.430416 244.64,201.840416 244.64,201.840416 L230.07,201.000416 Z" id="路径" fill="url(#linearGradient-22)" fill-rule="nonzero"></path>
            <path d="M239.43,204.610416 C239.18,205.450416 266.98,225.400416 266.98,225.400416 L295.06,252.080416 L301.06,247.330416 C301.06,247.330416 272.87,218.800416 271.67,217.840416 C270.47,216.880416 251.19,199.690416 251.19,199.690416 L239.43,204.610416 Z" id="路径" fill="url(#linearGradient-23)" fill-rule="nonzero"></path>
            <path d="M261.77,182.830416 C261.94,182.320416 265.31,178.390416 265.31,178.390416 L262.49,174.230416 C261.130074,175.770915 259.677372,177.226957 258.14,178.590416 C257.039355,178.869243 255.904708,178.990451 254.77,178.950416 C256.27,183.860416 258.23,187.400416 261.77,185.370416 C261.68417,184.525925 261.68417,183.674907 261.77,182.830416 Z" id="路径" fill="#DBA491" fill-rule="nonzero"></path>
            <path d="M272.79,174.310416 C273.09,173.070416 272.37,170.770416 269.52,168.630416 C263.83,164.380416 261.58,173.260416 261.58,173.260416 C261.58,173.260416 260.06,175.930416 259.98,176.260416 C259.55,178.020416 262.23,182.670416 263.61,182.440416 C265.65,182.130416 272.34,176.200416 272.79,174.310416 Z" id="路径" fill="#EFBA9E" fill-rule="nonzero"></path>
            <path d="M263.27,172.130416 C263.27,171.630416 262.16,170.130416 261.27,170.900416 C260.38,171.670416 259.72,173.670416 260.16,174.300416 C260.562668,174.65825 261.092659,174.838519 261.63,174.800416 C262.338724,174.020728 262.894998,173.115086 263.27,172.130416 Z" id="路径" fill="#EFBA9E" fill-rule="nonzero"></path>
            <path d="M259.47,182.430416 C257.61,180.580416 258.47,179.430416 258.15,178.270416 L251.47,178.980416 C242.47,185.780416 233.86,193.110416 229.06,203.210416 C229.06,203.210416 231.95,206.210416 239.06,206.410416 C246.17,206.610416 253.24,201.110416 253.24,201.110416 C253.24,201.110416 252.01,197.810416 252.74,196.800416 C253.47,195.790416 259.9,190.730416 261.5,189.430416 C261.75,189.220416 264.77,187.220416 265.13,185.820416 C265.49,184.420416 262.43,181.910416 262.43,181.910416 C261.47,183.430416 260.47,183.430416 259.47,182.430416 Z" id="路径" fill="url(#linearGradient-24)" fill-rule="nonzero"></path>
            <path d="M215.7,201.430416 C215.7,201.430416 213.84,202.780416 213.79,202.860416 C213.74,202.940416 213.16,203.160416 212.94,203.500416 C212.72,203.840416 211.55,205.640416 211.47,205.770416 C211.311322,206.059227 211.137755,206.339605 210.95,206.610416 C210.76,206.880416 210.29,207.610416 210.13,207.850416 C209.739667,208.309976 209.404082,208.813355 209.13,209.350416 C209.13,209.680416 209.46,209.770416 209.63,209.610416 C210.180402,208.983083 210.681873,208.314455 211.13,207.610416 C211.359202,207.248764 211.627482,206.913415 211.93,206.610416 C211.880521,206.918698 211.756988,207.210373 211.57,207.460416 C210.922071,208.38069 210.324527,209.335426 209.78,210.320416 C209.766918,210.450423 209.827342,210.576892 209.936704,210.648398 C210.046066,210.719904 210.186152,210.724538 210.3,210.660416 C210.587618,210.405657 210.830929,210.104898 211.02,209.770416 C211.16,209.540416 211.68,208.770416 211.82,208.560416 C212.065677,208.08558 212.3535,207.633765 212.68,207.210416 C212.517652,207.820095 212.253979,208.398148 211.9,208.920416 C211.9,209.020416 211.44,209.920416 211.29,210.180416 C211.086539,210.568038 210.90947,210.968949 210.76,211.380416 C210.755115,211.531987 210.836364,211.673286 210.969819,211.74531 C211.103274,211.817333 211.265983,211.807693 211.39,211.720416 C211.679309,211.310981 211.930365,210.875817 212.14,210.420416 C212.33,210.070416 212.56,209.540416 212.73,209.280416 C212.9,209.020416 213.46,207.640416 213.57,207.720416 C213.473307,208.381284 213.28131,209.024643 213,209.630416 C212.89,209.940416 212.41,211.380416 212.41,211.510416 C212.39356,211.666409 212.477267,211.815816 212.618887,211.883254 C212.760506,211.950692 212.929259,211.921504 213.04,211.810416 C213.307288,211.341665 213.531538,210.849652 213.71,210.340416 C214.02,209.510416 214.47,208.480416 214.59,208.230416 C214.814988,207.756238 215.104389,207.315406 215.45,206.920416 C215.56,206.920416 215.79,207.640416 215.81,207.770416 C215.942336,208.063258 216.11027,208.338668 216.31,208.590416 C216.74,209.130416 217.31,209.410416 217.44,209.150416 C217.57,208.890416 217.05,208.150416 216.95,207.820416 C216.817585,207.442865 216.71723,207.054825 216.65,206.660416 C216.687,206.247911 216.687,205.832921 216.65,205.420416 C216.502427,205.027339 216.375586,204.626788 216.27,204.220416 C216.856898,203.635311 217.500003,203.109438 218.19,202.650416 L215.7,201.430416 Z" id="路径" fill="#F7A38D" fill-rule="nonzero"></path>
            <path d="M227.7,187.630416 L214.03,201.630416 L218.21,204.370416 L230.94,194.000416 C230.94,194.000416 245.16,189.710416 250.31,187.060416 C255.46,184.410416 253.48,179.520416 251.47,178.960416 C249.46,178.400416 245.75,180.080416 244.47,180.550416 C242.85,181.150416 227.7,187.630416 227.7,187.630416 Z" id="路径" fill="url(#linearGradient-25)" fill-rule="nonzero"></path>
            <path d="M272.17,169.120416 C272.17,169.120416 273.89,173.460416 272.31,175.950416 C271.48,178.110416 270.54,178.530416 269.88,177.040416 C269.22,175.550416 270.41,173.540416 268,171.840416 C266.83786,171.141403 265.429643,170.980881 264.14,171.400416 C262.61,171.740416 261.62,172.800416 260.74,172.480416 C259.86,172.160416 260.34,169.790416 260.36,169.210416 C260.41,168.050416 265.73,165.310416 267.99,166.210416 C269.495825,167.007909 270.8994,167.985039 272.17,169.120416 Z" id="路径" fill="#131322" fill-rule="nonzero"></path>
        </g>
    </g>
</svg>