<?xml version="1.0" encoding="UTF-8"?>
<svg width="400px" height="300px" viewBox="0 0 400 300" version="1.1" xmlns="http://www.w3.org/2000/svg" xmlns:xlink="http://www.w3.org/1999/xlink">
    <title>画板备份 3</title>
    <defs>
        <linearGradient x1="-0.00821089158%" y1="49.9223602%" x2="99.9958934%" y2="49.9223602%" id="linearGradient-1">
            <stop stop-color="#F9E7A8" offset="0%"></stop>
            <stop stop-color="#F5A623" offset="100%"></stop>
        </linearGradient>
        <linearGradient x1="0%" y1="49.8768386%" x2="99.9865481%" y2="49.8768386%" id="linearGradient-2">
            <stop stop-color="#C6DFFE" offset="0%"></stop>
            <stop stop-color="#72B1FE" offset="100%"></stop>
        </linearGradient>
        <linearGradient x1="0.00374851787%" y1="50.0000273%" x2="99.9963438%" y2="50.0000273%" id="linearGradient-3">
            <stop stop-color="#C6DFFE" offset="0%"></stop>
            <stop stop-color="#72B1FE" offset="100%"></stop>
        </linearGradient>
        <linearGradient x1="6.46682808e-13%" y1="50%" x2="100%" y2="50%" id="linearGradient-4">
            <stop stop-color="#C6DFFE" offset="0%"></stop>
            <stop stop-color="#72B1FE" offset="100%"></stop>
        </linearGradient>
        <linearGradient x1="0.0108485001%" y1="49.9609761%" x2="100.008471%" y2="49.9609761%" id="linearGradient-5">
            <stop stop-color="#C6DFFE" offset="0%"></stop>
            <stop stop-color="#72B1FE" offset="100%"></stop>
        </linearGradient>
        <linearGradient x1="0%" y1="50%" x2="100%" y2="50%" id="linearGradient-6">
            <stop stop-color="#F9E7A8" offset="0%"></stop>
            <stop stop-color="#F5A623" offset="100%"></stop>
        </linearGradient>
        <linearGradient x1="31.2317516%" y1="59.1219774%" x2="66.5396487%" y2="36.8780036%" id="linearGradient-7">
            <stop stop-color="#C6DFFE" offset="0%"></stop>
            <stop stop-color="#72B1FE" offset="100%"></stop>
        </linearGradient>
        <linearGradient x1="-0.00816792338%" y1="49.9928234%" x2="99.9822704%" y2="49.9928234%" id="linearGradient-8">
            <stop stop-color="#C6DFFE" offset="0%"></stop>
            <stop stop-color="#72B1FE" offset="100%"></stop>
        </linearGradient>
        <linearGradient x1="-0.0226459219%" y1="50.0002851%" x2="100.143552%" y2="50.0002851%" id="linearGradient-9">
            <stop stop-color="#C6DFFE" offset="0%"></stop>
            <stop stop-color="#72B1FE" offset="100%"></stop>
        </linearGradient>
        <linearGradient x1="34.7745844%" y1="61.3326147%" x2="58.4230525%" y2="38.9962163%" id="linearGradient-10">
            <stop stop-color="#C6DFFE" offset="0%"></stop>
            <stop stop-color="#72B1FE" offset="100%"></stop>
        </linearGradient>
        <linearGradient x1="-0.0548265901%" y1="50.0076576%" x2="99.9765458%" y2="50.0076576%" id="linearGradient-11">
            <stop stop-color="#C6DFFE" offset="0%"></stop>
            <stop stop-color="#72B1FE" offset="100%"></stop>
        </linearGradient>
        <linearGradient x1="0.0781361852%" y1="50.2588997%" x2="100.014317%" y2="50.2588997%" id="linearGradient-12">
            <stop stop-color="#C6DFFE" offset="0%"></stop>
            <stop stop-color="#72B1FE" offset="100%"></stop>
        </linearGradient>
        <linearGradient x1="0.0103263685%" y1="49.9638039%" x2="99.8372433%" y2="49.9638039%" id="linearGradient-13">
            <stop stop-color="#C6DFFE" offset="0%"></stop>
            <stop stop-color="#72B1FE" offset="100%"></stop>
        </linearGradient>
        <linearGradient x1="50%" y1="-0.862769035%" x2="50%" y2="101.242662%" id="linearGradient-14">
            <stop stop-color="#C6DFFE" offset="0%"></stop>
            <stop stop-color="#72B1FE" offset="100%"></stop>
        </linearGradient>
        <linearGradient x1="49.9720915%" y1="0.108059654%" x2="49.9720915%" y2="99.8880637%" id="linearGradient-15">
            <stop stop-color="#C6DFFE" offset="0%"></stop>
            <stop stop-color="#72B1FE" offset="100%"></stop>
        </linearGradient>
        <linearGradient x1="50.0258398%" y1="-0.0466010628%" x2="50.0258398%" y2="100%" id="linearGradient-16">
            <stop stop-color="#BFD4FA" offset="0%"></stop>
            <stop stop-color="#5792F0" offset="100%"></stop>
        </linearGradient>
        <linearGradient x1="99.9664997%" y1="48.3912526%" x2="0.0349618253%" y2="51.607286%" id="linearGradient-17">
            <stop stop-color="#C6DFFE" offset="0%"></stop>
            <stop stop-color="#72B1FE" offset="100%"></stop>
        </linearGradient>
        <linearGradient x1="15.4893617%" y1="74.1458967%" x2="-22.5106383%" y2="-17.8541033%" id="linearGradient-18">
            <stop stop-color="#C6DFFE" offset="0%"></stop>
            <stop stop-color="#72B1FE" offset="100%"></stop>
        </linearGradient>
        <linearGradient x1="59.0165047%" y1="52.8717179%" x2="42.9834727%" y2="51.6711841%" id="linearGradient-19">
            <stop stop-color="#C6DFFE" offset="0%"></stop>
            <stop stop-color="#72B1FE" offset="100%"></stop>
        </linearGradient>
        <linearGradient x1="10.6153846%" y1="83.8192308%" x2="-27.4576923%" y2="-8.35769231%" id="linearGradient-20">
            <stop stop-color="#C6DFFE" offset="0%"></stop>
            <stop stop-color="#72B1FE" offset="100%"></stop>
        </linearGradient>
        <linearGradient x1="59.2520093%" y1="51.9878179%" x2="42.9672446%" y2="50.7773082%" id="linearGradient-21">
            <stop stop-color="#C6DFFE" offset="0%"></stop>
            <stop stop-color="#72B1FE" offset="100%"></stop>
        </linearGradient>
        <linearGradient x1="121.582803%" y1="60.1656051%" x2="21.9012739%" y2="57.1751592%" id="linearGradient-22">
            <stop stop-color="#C6DFFE" offset="0%"></stop>
            <stop stop-color="#72B1FE" offset="100%"></stop>
        </linearGradient>
        <linearGradient x1="60.6117301%" y1="53.2341785%" x2="44.1431631%" y2="52.0213276%" id="linearGradient-23">
            <stop stop-color="#C6DFFE" offset="0%"></stop>
            <stop stop-color="#72B1FE" offset="100%"></stop>
        </linearGradient>
        <linearGradient x1="35.926802%" y1="101.151823%" x2="62.2848045%" y2="13.3638385%" id="linearGradient-24">
            <stop stop-color="#F3835D" offset="0%"></stop>
            <stop stop-color="#FFC644" offset="100%"></stop>
        </linearGradient>
        <linearGradient x1="-0.00620419789%" y1="49.9973296%" x2="100.004304%" y2="49.9973296%" id="linearGradient-25">
            <stop stop-color="#F3835D" offset="0%"></stop>
            <stop stop-color="#FFC644" offset="100%"></stop>
        </linearGradient>
        <linearGradient x1="0%" y1="50.006618%" x2="99.921262%" y2="50.006618%" id="linearGradient-26">
            <stop stop-color="#1A1114" offset="0%"></stop>
            <stop stop-color="#30231E" offset="25%"></stop>
            <stop stop-color="#4A372A" offset="50%"></stop>
            <stop stop-color="#5A372A" offset="59%"></stop>
            <stop stop-color="#60372A" offset="66%"></stop>
            <stop stop-color="#98372A" offset="98%"></stop>
        </linearGradient>
        <linearGradient x1="0%" y1="49.9703065%" x2="100.021153%" y2="49.9703065%" id="linearGradient-27">
            <stop stop-color="#1A1114" offset="0%"></stop>
            <stop stop-color="#30231E" offset="25%"></stop>
            <stop stop-color="#4A372A" offset="50%"></stop>
            <stop stop-color="#5A372A" offset="59%"></stop>
            <stop stop-color="#60372A" offset="66%"></stop>
            <stop stop-color="#98372A" offset="98%"></stop>
        </linearGradient>
        <linearGradient x1="0%" y1="49.9886395%" x2="100.008327%" y2="49.9886395%" id="linearGradient-28">
            <stop stop-color="#1A1114" offset="0%"></stop>
            <stop stop-color="#30231E" offset="25%"></stop>
            <stop stop-color="#4A372A" offset="50%"></stop>
            <stop stop-color="#5A372A" offset="59%"></stop>
            <stop stop-color="#60372A" offset="66%"></stop>
            <stop stop-color="#98372A" offset="98%"></stop>
        </linearGradient>
        <linearGradient x1="100.023729%" y1="50.0604842%" x2="0.00675061925%" y2="50.0604842%" id="linearGradient-29">
            <stop stop-color="#F3835D" offset="0%"></stop>
            <stop stop-color="#FFC644" offset="100%"></stop>
        </linearGradient>
    </defs>
    <g id="画板备份-3" stroke="none" stroke-width="1" fill="none" fill-rule="evenodd">
        <g id="资源-4" transform="translate(16.000000, 1.000000)">
            <path d="M185.68,0 C152.588744,-0.0768105047 120.368128,10.5990541 93.87,30.420416 L104.12,30.420416 C106.451253,30.420416 108.687024,31.3465027 110.335469,32.9949474 C111.983913,34.6433922 112.91,36.8791631 112.91,39.210416 L112.91,39.210416 L112.91,39.890416 C112.91,44.744999 108.974583,48.680416 104.12,48.680416 L73.58,48.680416 C67.7772753,54.9277597 62.5181997,61.6588412 57.86,68.800416 L43.35,68.800416 C38.1237691,68.8059348 33.8899971,73.0441822 33.89,78.270416 L33.89,78.800416 C33.8866193,83.0171095 36.6773219,86.7258064 40.73,87.890416 L54.09,87.890416 C60.0634359,87.8959291 64.9044869,92.7369801 64.91,98.710416 L64.91,98.710416 L64.91,102.090416 C64.91,108.066137 60.065721,112.910416 54.09,112.910416 L8.18,112.910416 C3.37206252,114.120077 0,118.44264 0,123.400416 L0,124.000416 C0,129.976137 4.84427901,134.820416 10.82,134.820416 L34.6,134.820416 C34.1333333,139.633749 33.8966667,144.500416 33.89,149.420416 C33.89,231.940416 101.89,298.840416 185.68,298.840416 C252.74,298.840416 309.68,256.040416 329.73,196.680416 L335.42,196.680416 C337.41268,196.666371 339.118372,195.247634 339.495144,193.290848 C339.871917,191.334061 338.814992,189.383392 336.97,188.630416 L329.97,188.630416 C325.11932,188.630419 321.185518,184.701093 321.18,179.850416 L321.18,179.850416 L321.18,179.170416 C321.18,174.315833 325.115417,170.380416 329.97,170.380416 L336,170.380416 L336,170.270416 L351,170.270416 C354.838379,170.270416 357.95,167.158795 357.95,163.320416 C357.95,159.482037 354.838379,156.370416 351,156.370416 L337.31,156.370416 C337.423333,154.070416 337.476667,151.737083 337.47,149.370416 C337.491021,128.029098 332.860213,106.939641 323.9,87.570416 L348.2,87.570416 C358.652464,87.5648988 367.124483,79.0928802 367.13,68.640416 L367.13,67.580416 C367.13,57.5485328 359.305239,49.2580575 349.29,48.680416 L263.68,48.680416 C259.946555,48.680416 256.92,45.653861 256.92,41.920416 C256.92,38.1869711 259.946555,35.160416 263.68,35.160416 L283.5,35.160416 L283,34.750416 L292.86,34.750416 C296.267113,34.7504171 299.534534,33.3962626 301.942788,30.9861323 C304.351043,28.5760019 305.702654,25.3075281 305.7,21.900416 L305.7,21.190416 C305.702654,17.783304 304.351043,14.5148302 301.942788,12.1046998 C299.534534,9.69456947 296.267113,8.34041501 292.86,8.34041604 L235.81,8.34041604 C219.677935,2.80040978 202.736812,-0.0180415623 185.68,0 Z" id="背景" fill="#EDF0F4" opacity="0.35"></path>
            <path d="M182,233.000416 C216.36,233.000416 247.3,235.800416 268.93,240.280416 C290.08,240.420416 307.12,246.760416 307.12,254.550416 C307.12,260.730416 296.42,265.990416 281.45,267.980416 C277.87,269.040416 273.85,270.030416 269.45,270.980416 C269.561511,271.570597 269.618419,272.169795 269.62,272.770416 C269.62,286.370416 240.04,297.400416 203.56,297.400416 C170.74,297.400416 143.56,288.470416 138.37,276.770416 C94.58,273.450416 63.6099943,265.260416 63.6099943,255.690416 C63.59,243.110416 116.6,233.000416 182,233.000416 Z" id="形状结合" fill="url(#linearGradient-1)" opacity="0.27"></path>
            <path d="M298.76,247.210416 C294.57,247.210416 289.97,242.210416 289.55,238.840416 C289.55,235.080416 294.15,235.500416 294.15,233.840416 C294.15,232.180416 291.23,232.170416 291.64,230.910416 C292.05,229.650416 294.57,229.240416 294.15,228.400416 C293.73,227.560416 290.81,228.820416 291.64,226.730416 C292.48,224.220416 294.15,225.480416 292.9,222.550416 C291.65,219.620416 295.41,222.550416 294.15,220.040416 C292.9,217.110416 291.64,215.040416 294.15,213.760416 C296.66,212.480416 296.25,222.130416 297.08,221.290416 C298.34,220.870416 300.01,220.040416 300.43,222.970416 C300.85,225.900416 298.76,226.730416 302.52,227.150416 C305.87,227.570416 301.27,232.590416 303.78,233.840416 C306.29,235.090416 309.63,238.440416 306.7,241.840416 C304.19,244.770416 302.52,247.280416 298.76,247.280416 L298.76,247.210416 Z" id="路径" fill="url(#linearGradient-2)" fill-rule="nonzero"></path>
            <path d="M298.76,247.210541 C298.870494,247.210541 298.976323,247.165883 299.053507,247.086816 C299.130691,247.00775 299.172695,246.900877 299.17,246.790416 L296.66,223.790416 C296.665609,223.679149 296.62456,223.570584 296.546737,223.490863 C296.468914,223.411142 296.36137,223.36749 296.25,223.370278 C296.137782,223.367644 296.029335,223.411003 295.949961,223.490377 C295.870587,223.569751 295.827228,223.678198 295.83,223.790416 L298.34,246.790416 C298.337228,246.902634 298.380587,247.011081 298.459961,247.090455 C298.539335,247.169829 298.647782,247.213188 298.76,247.210541 L298.76,247.210541 Z" id="路径" fill="url(#linearGradient-3)" fill-rule="nonzero"></path>
            <path d="M298.34,243.440416 L298.34,243.440416 C298.76,243.030416 298.76,243.030416 298.76,242.610416 L292.9,238.000416 L292.48,238.000416 L292.48,238.410416 L298.34,243.440416 Z M297.5,235.080416 L297.5,235.080416 L301.27,229.640416 L301.27,229.220416 L300.85,229.220416 L297.08,234.660416 L297.5,235.080416 Z" id="形状" fill="url(#linearGradient-4)" fill-rule="nonzero"></path>
            <path d="M279.93,246.790416 C279.93,246.790416 281.6,248.050416 285.79,245.950416 C289.97,243.440416 289.13,241.350416 287.04,242.190416 C284.95,243.030416 281.19,247.630416 280.35,246.370416 C279.51,245.110416 282.86,242.610416 280.77,240.100416 C278.68,237.590416 279.93,243.030416 279.09,243.030416 C278.68,243.030416 277.84,240.100416 277,241.350416 C276.16,242.600416 278.26,246.350416 278.68,246.790416 C279.51,247.210416 278.26,247.210416 276.16,246.370416 C274.07,245.120416 273.65,247.630416 275.75,248.460416 C277.85,249.290416 279.93,246.790416 279.93,246.790416 L279.93,246.790416 Z" id="路径" fill="url(#linearGradient-5)" fill-rule="nonzero"></path>
            <ellipse id="椭圆形" fill="url(#linearGradient-6)" fill-rule="nonzero" opacity="0.41" cx="136.44" cy="250.170416" rx="39.31" ry="7.41"></ellipse>
            <path d="M93.25,262.820416 C99.31,259.960416 109.81,250.820416 103.08,234.600416 C96.73,218.170416 86.23,227.280416 82.93,216.350416 C79.63,205.420416 80.07,202.430416 71.19,198.290416 C62.31,194.150416 67.27,190.000416 60.83,185.140416 C54.39,180.280416 50.83,179.660416 46.31,181.800416 C41.79,183.940416 49.52,196.470416 45.31,201.240416 C41.1,206.010416 40.84,207.500416 48,214.780416 C55.16,222.060416 57.93,222.120416 55.53,228.780416 C53.13,235.440416 55.53,237.580416 60.01,237.310416 C64.49,237.040416 71.43,237.020416 68.78,246.120416 C66.13,255.220416 67.18,258.440416 75.91,261.260416 C84.64,264.080416 84.91,266.720416 93.28,262.800416 L93.25,262.820416 Z" id="路径" fill="url(#linearGradient-7)" fill-rule="nonzero"></path>
            <path d="M96.68,260.280416 C96.5792369,260.328286 96.4635691,260.334102 96.3585122,260.296582 C96.2534553,260.259062 96.1676412,260.181287 96.12,260.080416 L58.5,204.730416 C58.32,204.350416 58.32,204.350416 58.7,204.180416 C59.08,204.010416 59.08,204.000416 59.26,204.380416 L96.88,259.720416 C97.06,260.100416 97.06,260.100416 96.68,260.280416 Z" id="路径" fill="url(#linearGradient-8)" fill-rule="nonzero"></path>
            <path d="M72.09,223.770416 C71.71,223.940416 71.53,223.570416 71.35,223.190416 L72.44,208.800416 C72.44,208.800416 72.64,208.250416 72.82,208.630416 C72.82,208.630416 73.37,208.830416 73,209.000416 L72.09,223.770416 L72.09,223.770416 Z M78.23,232.890416 L66.81,233.190416 C66.7106964,233.237896 66.5964723,233.243453 66.4930287,233.205837 C66.3895851,233.168221 66.3056106,233.090592 66.26,232.990416 C66.2092599,232.890096 66.2019392,232.773342 66.2397507,232.66747 C66.2775623,232.561598 66.3571885,232.475896 66.46,232.430416 L77.46,232.310416 C78.22,231.960416 78.39,232.310416 78.19,232.890416 L78.23,232.890416 Z M86.92,245.450416 L86.92,245.450416 C86.54,245.630416 86.37,245.250416 86.19,244.870416 L87.85,229.750416 C87.85,229.750416 88.05,229.190416 88.23,229.570416 C88.23,229.570416 88.79,229.770416 88.41,229.950416 L86.92,245.450416 Z M92,253.240416 L76.26,253.240416 C75.88,253.410416 75.7,253.040416 76.08,252.860416 C75.9,252.480416 76.28,252.300416 76.46,252.680416 L91.8,252.850416 C92.18,252.670416 92.18,252.670416 91.98,253.230416 L92,253.240416 Z" id="形状" fill="url(#linearGradient-9)" fill-rule="nonzero"></path>
            <path d="M102.33,258.540416 C107.63,256.040416 110.44,256.110416 110.24,248.810416 C109.83,242.060416 114.95,239.190416 111.68,235.180416 C108.41,231.170416 105.18,233.180416 105.98,223.070416 C106.78,212.960416 101.07,208.730416 97.73,207.530416 C94.39,206.330416 92.73,203.850416 89.73,198.360416 C86.73,192.870416 81.36,196.290416 80.92,199.270416 C80.48,202.250416 84.04,209.820416 81.68,214.630416 C79.32,219.440416 83.91,223.300416 87.78,225.630416 C91.65,227.960416 89.3,232.780416 87.16,236.100416 C85.16,239.790416 80.4,245.300416 84.07,248.190416 C87.74,251.080416 93.65,262.640416 102.35,258.540416 L102.33,258.540416 Z" id="路径" fill="url(#linearGradient-10)" fill-rule="nonzero"></path>
            <path d="M103.09,258.180416 C102.98968,258.231156 102.872926,258.238477 102.767054,258.200665 C102.661182,258.162854 102.57548,258.083228 102.53,257.980416 L92.66,216.390416 C92.6092599,216.290096 92.6019392,216.173342 92.6397507,216.06747 C92.6775623,215.961598 92.7571885,215.875896 92.86,215.830416 C92.9607631,215.782546 93.0764309,215.77673 93.1814878,215.81425 C93.2865447,215.851771 93.3723588,215.929545 93.42,216.030416 L103.09,258.180416 C103.29,257.620416 103.47,258.000416 103.09,258.180416 Z" id="路径" fill="url(#linearGradient-11)" fill-rule="nonzero"></path>
            <path d="M97.34,232.220416 L97.34,232.220416 C96.78,232.020416 96.78,232.020416 96.6,231.640416 L100.83,219.000416 L101.21,218.820416 L101.39,219.200416 L97.39,232.200416 L97.34,232.220416 Z M101.42,249.720416 L101.42,249.720416 L89,244.000416 L88.83,243.620416 L89.2,243.440416 L101.2,249.340416 C101.62,249.160416 101.8,249.540416 101.42,249.720416 Z" id="形状" fill="url(#linearGradient-12)" fill-rule="nonzero"></path>
            <path d="M128.27,266.560416 C129.683782,266.521943 130.997642,265.822497 131.818946,264.671098 C132.640251,263.519699 132.873874,262.049709 132.45,260.700416 C131.62,257.350416 130.36,259.030416 129.94,261.540416 C129.52,264.050416 130.36,260.280416 127.85,259.450416 C125.34,259.030416 127.85,263.630416 127.01,264.450416 C125.76,264.860416 124.09,260.260416 122.41,262.350416 C120.73,264.440416 124.5,266.540416 128.27,266.540416 L128.27,266.560416 Z" id="路径" fill="url(#linearGradient-13)" fill-rule="nonzero"></path>
            <path d="M196.38,89.8803054 C160.18006,89.8394415 125.482819,104.350376 100.09,130.150416 L117.76,147.820416 C138.260437,126.967622 166.205435,115.113377 195.446598,114.865825 C224.687761,114.618272 252.829453,125.997695 273.68,146.500416 L275.01,147.820416 L292.69,130.150416 C267.292319,104.345423 232.586874,89.8340716 196.38,89.8803054 L196.38,89.8803054 Z" id="路径" stroke="url(#linearGradient-14)"></path>
            <path d="M133.7,163.760416 L151.64,181.760416 C162.92309,169.870701 178.469853,162.953978 194.855729,162.533828 C211.241604,162.113677 227.122408,168.224564 239,179.520416 C239.74,180.230416 240.47,180.960416 241.18,181.710416 L259.11,163.710416 C225.698384,129.093089 170.551025,128.112632 135.93,161.520416 C135.18,162.240416 134.45,162.970416 133.73,163.710416 L133.7,163.760416 Z" id="路径" fill="url(#linearGradient-15)" fill-rule="nonzero"></path>
            <path d="M167.34,197.390416 L196.34,226.440416 L225.39,197.390416 C209.347973,181.389256 183.382027,181.389256 167.34,197.390416 Z" id="路径" fill="url(#linearGradient-16)" fill-rule="nonzero"></path>
            <path d="M236.28,170.760416 C224.206802,170.760416 213.322409,178.033135 208.702196,189.187316 C204.081983,200.341496 206.635822,213.180513 215.172863,221.717553 C223.709903,230.254594 236.54892,232.808433 247.7031,228.18822 C258.857281,223.568007 266.13,212.683614 266.13,200.610416 C266.13,184.124716 252.7657,170.760416 236.28,170.760416 Z M236.53,223.010461 C234.035017,223.021401 232.003011,221.008715 231.990099,218.513741 C231.977309,216.018768 233.988474,213.985256 236.483437,213.970458 C238.978401,213.955821 241.013416,215.965464 241.03,218.460416 C241.030097,220.952251 239.021738,222.978462 236.53,223.000416 L236.53,223.010461 Z M238.87,206.440416 C238.655107,207.624807 237.623728,208.485894 236.42,208.485894 C235.216272,208.485894 234.184893,207.624807 233.97,206.440416 C232.3,197.510416 230.42,187.040416 230.4,185.240416 C230.377909,181.992982 232.992566,179.342507 236.24,179.320277 C239.487434,179.298325 242.137909,181.912982 242.160043,185.160416 C242.17,187.000416 240.42,197.500416 238.87,206.440416 Z" id="形状" fill="url(#linearGradient-17)" fill-rule="nonzero"></path>
            <g id="编组" opacity="0.47" transform="translate(289.487602, 81.460711)" fill-rule="nonzero">
                <circle id="椭圆形" fill="url(#linearGradient-18)" transform="translate(4.348656, 28.634265) rotate(-65.830000) translate(-4.348656, -28.634265) " cx="4.34865626" cy="28.6342646" r="3.29"></circle>
                <path d="M0.772397514,4.31970459 C0.772397514,5.63970459 1.83239751,13.3197046 2.77239751,19.8297046 C2.9048904,20.6941421 3.63649474,21.3402175 4.5106821,21.3647733 C5.38486946,21.3893291 6.15158793,20.7853414 6.33239751,19.9297046 C7.69239751,13.4597046 9.24239751,5.92970459 9.28239751,4.56970459 C9.3885598,3.004882 8.63031019,1.50732942 7.30620054,0.666690515 C5.98209088,-0.173948393 4.30423532,-0.223008497 2.93326968,0.538827039 C1.56230405,1.30066258 0.717848524,2.75135243 0.732397514,4.31970459 L0.772397514,4.31970459 Z" id="路径" fill="url(#linearGradient-19)"></path>
            </g>
            <g id="编组" opacity="0.47" transform="translate(92.673889, 67.634055)" fill-rule="nonzero">
                <circle id="椭圆形" fill="url(#linearGradient-20)" transform="translate(3.436628, 22.505194) rotate(-65.830000) translate(-3.436628, -22.505194) " cx="3.43662805" cy="22.5051935" r="2.6"></circle>
                <path d="M0.616111486,3.28636124 C0.616111486,4.28636124 1.45611149,10.3763612 2.23611149,15.5463612 C2.34348789,16.2261982 2.91992074,16.7331004 3.60790648,16.7526872 C4.29589221,16.772274 4.90023077,16.298988 5.04611149,15.6263612 C6.12611149,10.5163612 7.34611149,4.51636124 7.37611149,3.47636124 C7.42857854,1.60963878 5.95783394,0.0538282868 4.09111149,0.00136123553 C2.22438903,-0.0511058157 0.668578538,1.41963878 0.616111486,3.28636124 L0.616111486,3.28636124 Z" id="路径" fill="url(#linearGradient-21)"></path>
            </g>
            <g id="编组" opacity="0.47" transform="translate(165.530000, 16.634530)" fill-rule="nonzero">
                <circle id="椭圆形" fill="url(#linearGradient-22)" cx="1.7" cy="13.5358856" r="1.57"></circle>
                <path d="M-2.84217094e-14,1.97588556 C-2.84217094e-14,2.59588556 0.51,6.24588556 1,9.35588556 C1.07472899,9.75867867 1.42033626,10.0547654 1.82982578,10.0668092 C2.23931529,10.078853 2.60172695,9.80359038 2.7,9.40588556 C3.34,6.32588556 4.08,2.71588556 4.1,2.09588556 C4.121436,1.36885004 3.75337483,0.68560556 3.13446158,0.303523718 C2.51554833,-0.0785581227 1.73981066,-0.101429995 1.09946148,0.243523716 C0.459112294,0.588477426 0.0514358753,1.24885004 0.03,1.97588556 L-2.84217094e-14,1.97588556 Z" id="路径" fill="url(#linearGradient-23)"></path>
            </g>
            <path d="M164.34,258.820416 C163.84,258.820416 163.34,259.600416 163.57,261.440416 C163.8,263.280416 163.48,264.300416 165.03,264.350416 C166.35,264.350416 175.11,263.810416 177.53,263.670416 C178.35,263.670416 178.1,262.800416 178.06,262.590416 C177.86,261.700416 177.12,260.380416 174.47,260.270416 C172.47,260.040416 170.52,258.270416 169.65,258.340416 C168.78,258.410416 168.46,259.230416 167.07,259.230416 C165.68,259.230416 165.2,258.820416 164.34,258.820416 Z" id="路径" fill="#000000" fill-rule="nonzero"></path>
            <path d="M161.35,226.140416 C161.35,226.140416 151.35,209.520416 150.55,206.140416 C149.75,202.760416 154.71,203.140416 155.44,203.900416 C165.33,214.850416 169.38,227.700416 169.01,229.280416 C168.64,230.860416 150.46,236.390416 150.46,236.390416 L146.91,233.710416 L161.35,226.140416 Z" id="路径" fill="url(#linearGradient-24)" fill-rule="nonzero"></path>
            <path d="M134.65,205.310416 C133.28,207.390416 138.65,211.940416 142.92,210.160416 C147.19,208.380416 147,198.930416 147,198.930416 C147,198.660416 142.73,199.250416 142.73,199.250416 C141,199.120416 139.38,204.450416 134.65,205.310416 Z" id="路径" fill="#EEC3B9" fill-rule="nonzero"></path>
            <path d="M148,186.340416 C148,186.340416 148.88,190.150416 149.58,193.580416 C149.95,195.450416 150.27,197.190416 150.36,198.160416 C150.61,200.890416 147.94,202.160416 145.21,202.410416 C142.48,202.660416 138.77,201.650416 137.56,195.590416 C136.35,189.530416 133.52,184.110416 148,186.340416 Z" id="路径" fill="#EEC3B9" fill-rule="nonzero"></path>
            <path d="M143,190.000416 C139.12,190.300416 139.25,190.890416 138.78,193.000416 C138.11,196.090416 138.27,197.260416 138.61,198.750416 C139.18,201.260416 132.71,195.960416 131.29,192.100416 C129.78,187.990416 132.38,180.540416 140.86,181.290416 C144.44,181.610416 148.36,181.040416 148.74,182.940416 C149.17,185.120416 148.3,186.430416 147.56,186.420416 C143.63,186.380416 145.73,189.790416 143,190.000416 Z" id="路径" fill="#131322" fill-rule="nonzero"></path>
            <path d="M127.63,205.210416 C127.63,205.210416 132.1,202.650416 134.98,204.570416 C137.86,206.490416 143.7,206.280416 147.77,204.250416 C150.96,202.650416 154.77,202.970416 156.71,204.250416 C161.8,207.640416 157.03,231.100416 157.03,231.100416 L130.51,245.800416 C130.51,245.800416 122.2,243.560416 120.6,245.800416 C119,248.040416 117.72,217.040416 120.92,212.240416 C124.12,207.440416 125.39,206.490416 127.63,205.210416 Z" id="路径" fill="url(#linearGradient-25)" fill-rule="nonzero"></path>
            <path d="M120.28,245.160416 C120.28,244.160416 126.67,241.650416 129.55,244.840416 C132.43,248.030416 135.94,219.910416 145.55,219.910416 C154.18,219.910416 151.62,233.340416 151.62,233.340416 C151.62,233.340416 151.3,252.190416 147.79,255.070416 C144.28,257.950416 140.94,258.510416 135.42,258.390416 C129.9,258.270416 120.92,258.000416 120.28,245.160416 Z" id="路径" fill="url(#linearGradient-26)" fill-rule="nonzero"></path>
            <path d="M149.68,222.150416 C149.68,227.260416 162.06,255.330416 164.39,258.590416 C165.98,260.820416 167.76,260.760416 169.18,259.590416 C171.42,257.680416 162.18,221.320416 158.63,218.680416 C155.08,216.040416 149.68,217.000416 149.68,222.150416 Z" id="路径" fill="url(#linearGradient-27)" fill-rule="nonzero"></path>
            <path d="M140.73,224.710416 C140.73,229.820416 151.6,257.950416 154.8,261.140416 C158,264.330416 158.18,262.990416 159.59,261.780416 C161.83,259.860416 153.27,223.780416 149.68,221.190416 C146.09,218.600416 140.73,219.590416 140.73,224.710416 Z" id="路径" fill="url(#linearGradient-28)" fill-rule="nonzero"></path>
            <path d="M144.25,233.000416 C144.25,233.000416 133.25,212.690416 130.51,210.620416 C127.77,208.550416 123.51,211.620416 124.24,214.700416 C127.78,229.020416 140.09,240.990416 141.69,241.310416 C143.29,241.630416 166.3,231.100416 166.3,231.100416 L164.39,228.540416 L144.25,233.000416 Z" id="路径" fill="url(#linearGradient-29)" fill-rule="nonzero"></path>
            <path d="M154.75,261.050416 C154.25,261.050416 153.75,261.840416 153.98,263.680416 C154.21,265.520416 153.9,266.540416 155.44,266.590416 C156.76,266.590416 165.52,266.050416 167.94,265.910416 C168.76,265.860416 168.51,265.030416 168.47,264.830416 C168.27,263.940416 167.54,262.620416 164.88,262.510416 C162.88,262.270416 160.93,260.510416 160.06,260.580416 C159.19,260.650416 158.87,261.460416 157.48,261.470416 C156.562917,261.381137 155.65151,261.240921 154.75,261.050416 L154.75,261.050416 Z" id="路径" fill="#000000" fill-rule="nonzero"></path>
        </g>
    </g>
</svg>