<?xml version="1.0" encoding="UTF-8"?>
<svg width="400px" height="300px" viewBox="0 0 400 300" version="1.1" xmlns="http://www.w3.org/2000/svg" xmlns:xlink="http://www.w3.org/1999/xlink">
    <title>画板备份 4</title>
    <defs>
        <linearGradient x1="-0.00821089158%" y1="49.9223602%" x2="99.9958934%" y2="49.9223602%" id="linearGradient-1">
            <stop stop-color="#F9E7A8" offset="0%"></stop>
            <stop stop-color="#F5A623" offset="100%"></stop>
        </linearGradient>
        <linearGradient x1="0%" y1="49.8768386%" x2="99.9865481%" y2="49.8768386%" id="linearGradient-2">
            <stop stop-color="#C6DFFE" offset="0%"></stop>
            <stop stop-color="#72B1FE" offset="100%"></stop>
        </linearGradient>
        <linearGradient x1="0.00374851787%" y1="50.0000273%" x2="99.9963438%" y2="50.0000273%" id="linearGradient-3">
            <stop stop-color="#C6DFFE" offset="0%"></stop>
            <stop stop-color="#72B1FE" offset="100%"></stop>
        </linearGradient>
        <linearGradient x1="6.46682808e-13%" y1="50%" x2="100%" y2="50%" id="linearGradient-4">
            <stop stop-color="#C6DFFE" offset="0%"></stop>
            <stop stop-color="#72B1FE" offset="100%"></stop>
        </linearGradient>
        <linearGradient x1="0.0108485001%" y1="49.9609761%" x2="100.008471%" y2="49.9609761%" id="linearGradient-5">
            <stop stop-color="#C6DFFE" offset="0%"></stop>
            <stop stop-color="#72B1FE" offset="100%"></stop>
        </linearGradient>
        <linearGradient x1="0%" y1="50%" x2="100%" y2="50%" id="linearGradient-6">
            <stop stop-color="#F9E7A8" offset="0%"></stop>
            <stop stop-color="#F5A623" offset="100%"></stop>
        </linearGradient>
        <linearGradient x1="34.7349128%" y1="61.3573851%" x2="58.3904338%" y2="39.014325%" id="linearGradient-7">
            <stop stop-color="#C6DFFE" offset="0%"></stop>
            <stop stop-color="#72B1FE" offset="100%"></stop>
        </linearGradient>
        <linearGradient x1="-0.0548265901%" y1="50.0076576%" x2="99.9765458%" y2="50.0076576%" id="linearGradient-8">
            <stop stop-color="#C6DFFE" offset="0%"></stop>
            <stop stop-color="#72B1FE" offset="100%"></stop>
        </linearGradient>
        <linearGradient x1="31.1983658%" y1="59.1464926%" x2="66.5062629%" y2="36.9025188%" id="linearGradient-9">
            <stop stop-color="#C6DFFE" offset="0%"></stop>
            <stop stop-color="#72B1FE" offset="100%"></stop>
        </linearGradient>
        <linearGradient x1="0.0781361852%" y1="50.2588997%" x2="100.014317%" y2="50.2588997%" id="linearGradient-10">
            <stop stop-color="#C6DFFE" offset="0%"></stop>
            <stop stop-color="#72B1FE" offset="100%"></stop>
        </linearGradient>
        <linearGradient x1="0.0103263685%" y1="49.9638039%" x2="99.8372433%" y2="49.9638039%" id="linearGradient-11">
            <stop stop-color="#C6DFFE" offset="0%"></stop>
            <stop stop-color="#72B1FE" offset="100%"></stop>
        </linearGradient>
        <linearGradient x1="-0.00816792338%" y1="49.9928234%" x2="99.9822704%" y2="49.9928234%" id="linearGradient-12">
            <stop stop-color="#C6DFFE" offset="0%"></stop>
            <stop stop-color="#72B1FE" offset="100%"></stop>
        </linearGradient>
        <linearGradient x1="-0.0226459219%" y1="50.0002851%" x2="100.143552%" y2="50.0002851%" id="linearGradient-13">
            <stop stop-color="#C6DFFE" offset="0%"></stop>
            <stop stop-color="#72B1FE" offset="100%"></stop>
        </linearGradient>
        <linearGradient x1="52.5904781%" y1="85.8042895%" x2="47.4095219%" y2="14.2091153%" id="linearGradient-14">
            <stop stop-color="#C4DEFF" offset="0%"></stop>
            <stop stop-color="#569CF4" offset="100%"></stop>
        </linearGradient>
        <linearGradient x1="52.5904781%" y1="85.8042895%" x2="47.4095219%" y2="14.2091153%" id="linearGradient-15">
            <stop stop-color="#C6DFFE" offset="0%"></stop>
            <stop stop-color="#72B1FE" offset="100%"></stop>
        </linearGradient>
        <linearGradient x1="50.0127954%" y1="100%" x2="50.0127954%" y2="0%" id="linearGradient-16">
            <stop stop-color="#C6DFFE" offset="0%"></stop>
            <stop stop-color="#72B1FE" offset="100%"></stop>
        </linearGradient>
        <linearGradient x1="50%" y1="100.029529%" x2="50%" y2="2.09816252e-14%" id="linearGradient-17">
            <stop stop-color="#C4DEFF" offset="0%"></stop>
            <stop stop-color="#569CF4" offset="100%"></stop>
        </linearGradient>
        <linearGradient x1="100.034746%" y1="50.0035507%" x2="0.0347463516%" y2="50.0035507%" id="linearGradient-18">
            <stop stop-color="#1A1114" offset="0%"></stop>
            <stop stop-color="#30231E" offset="25%"></stop>
            <stop stop-color="#4A372A" offset="50%"></stop>
            <stop stop-color="#5A372A" offset="59%"></stop>
            <stop stop-color="#60372A" offset="66%"></stop>
            <stop stop-color="#98372A" offset="98%"></stop>
        </linearGradient>
        <linearGradient x1="443.582002%" y1="50.0053629%" x2="543.233005%" y2="50.0053629%" id="linearGradient-19">
            <stop stop-color="#1A1114" offset="0%"></stop>
            <stop stop-color="#30231E" offset="25%"></stop>
            <stop stop-color="#4A372A" offset="50%"></stop>
            <stop stop-color="#5A372A" offset="59%"></stop>
            <stop stop-color="#60372A" offset="66%"></stop>
            <stop stop-color="#98372A" offset="98%"></stop>
        </linearGradient>
        <linearGradient x1="99.9816341%" y1="49.9983996%" x2="0.00433198199%" y2="49.9983996%" id="linearGradient-20">
            <stop stop-color="#F3835D" offset="0%"></stop>
            <stop stop-color="#FFC644" offset="100%"></stop>
        </linearGradient>
        <linearGradient x1="998.6933%" y1="49.9822101%" x2="1098.61896%" y2="49.9822101%" id="linearGradient-21">
            <stop stop-color="#F3835D" offset="0%"></stop>
            <stop stop-color="#FFC644" offset="100%"></stop>
        </linearGradient>
    </defs>
    <g id="画板备份-4" stroke="none" stroke-width="1" fill="none" fill-rule="evenodd">
        <g id="资源-5" transform="translate(16.000000, 1.000000)">
            <path d="M185.68,0 C152.588744,-0.0768105047 120.368128,10.5990541 93.87,30.420416 L104.12,30.420416 C106.451253,30.420416 108.687024,31.3465027 110.335469,32.9949474 C111.983913,34.6433922 112.91,36.8791631 112.91,39.210416 L112.91,39.210416 L112.91,39.890416 C112.91,44.744999 108.974583,48.680416 104.12,48.680416 L73.58,48.680416 C67.7772753,54.9277597 62.5181997,61.6588412 57.86,68.800416 L43.35,68.800416 C38.1237691,68.8059348 33.8899971,73.0441822 33.89,78.270416 L33.89,78.800416 C33.8866193,83.0171095 36.6773219,86.7258064 40.73,87.890416 L54.09,87.890416 C60.0634359,87.8959291 64.9044869,92.7369801 64.91,98.710416 L64.91,98.710416 L64.91,102.090416 C64.91,108.066137 60.065721,112.910416 54.09,112.910416 L8.18,112.910416 C3.37206252,114.120077 0,118.44264 0,123.400416 L0,124.000416 C0,129.976137 4.84427901,134.820416 10.82,134.820416 L34.6,134.820416 C34.1333333,139.633749 33.8966667,144.500416 33.89,149.420416 C33.89,231.940416 101.89,298.840416 185.68,298.840416 C252.74,298.840416 309.68,256.040416 329.73,196.680416 L335.42,196.680416 C337.41268,196.666371 339.118372,195.247634 339.495144,193.290848 C339.871917,191.334061 338.814992,189.383392 336.97,188.630416 L329.97,188.630416 C325.11932,188.630419 321.185518,184.701093 321.18,179.850416 L321.18,179.850416 L321.18,179.170416 C321.18,174.315833 325.115417,170.380416 329.97,170.380416 L336,170.380416 L336,170.270416 L351,170.270416 C354.838379,170.270416 357.95,167.158795 357.95,163.320416 C357.95,159.482037 354.838379,156.370416 351,156.370416 L337.31,156.370416 C337.423333,154.070416 337.476667,151.737083 337.47,149.370416 C337.491021,128.029098 332.860213,106.939641 323.9,87.570416 L348.2,87.570416 C358.652464,87.5648988 367.124483,79.0928802 367.13,68.640416 L367.13,67.580416 C367.13,57.5485328 359.305239,49.2580575 349.29,48.680416 L263.68,48.680416 C259.946555,48.680416 256.92,45.653861 256.92,41.920416 C256.92,38.1869711 259.946555,35.160416 263.68,35.160416 L283.5,35.160416 L283,34.750416 L292.86,34.750416 C296.267113,34.7504171 299.534534,33.3962626 301.942788,30.9861323 C304.351043,28.5760019 305.702654,25.3075281 305.7,21.900416 L305.7,21.190416 C305.702654,17.783304 304.351043,14.5148302 301.942788,12.1046998 C299.534534,9.69456947 296.267113,8.34041501 292.86,8.34041604 L235.81,8.34041604 C219.677935,2.80040978 202.736812,-0.0180415623 185.68,0 Z" id="背景" fill="#EDF0F4" opacity="0.35"></path>
            <path d="M182,233.000416 C216.36,233.000416 247.3,235.800416 268.93,240.280416 C290.08,240.420416 307.12,246.760416 307.12,254.550416 C307.12,260.730416 296.42,265.990416 281.45,267.980416 C277.87,269.040416 273.85,270.030416 269.45,270.980416 C269.561511,271.570597 269.618419,272.169795 269.62,272.770416 C269.62,286.370416 240.04,297.400416 203.56,297.400416 C170.74,297.400416 143.56,288.470416 138.37,276.770416 C94.58,273.450416 63.6099943,265.260416 63.6099943,255.690416 C63.59,243.110416 116.6,233.000416 182,233.000416 Z" id="形状结合" fill="url(#linearGradient-1)" opacity="0.27"></path>
            <path d="M298.76,247.210416 C294.57,247.210416 289.97,242.210416 289.55,238.840416 C289.55,235.080416 294.15,235.500416 294.15,233.840416 C294.15,232.180416 291.23,232.170416 291.64,230.910416 C292.05,229.650416 294.57,229.240416 294.15,228.400416 C293.73,227.560416 290.81,228.820416 291.64,226.730416 C292.48,224.220416 294.15,225.480416 292.9,222.550416 C291.65,219.620416 295.41,222.550416 294.15,220.040416 C292.9,217.110416 291.64,215.040416 294.15,213.760416 C296.66,212.480416 296.25,222.130416 297.08,221.290416 C298.34,220.870416 300.01,220.040416 300.43,222.970416 C300.85,225.900416 298.76,226.730416 302.52,227.150416 C305.87,227.570416 301.27,232.590416 303.78,233.840416 C306.29,235.090416 309.63,238.440416 306.7,241.840416 C304.19,244.770416 302.52,247.280416 298.76,247.280416 L298.76,247.210416 Z" id="路径" fill="url(#linearGradient-2)" fill-rule="nonzero"></path>
            <path d="M298.76,247.210541 C298.870494,247.210541 298.976323,247.165883 299.053507,247.086816 C299.130691,247.00775 299.172695,246.900877 299.17,246.790416 L296.66,223.790416 C296.665609,223.679149 296.62456,223.570584 296.546737,223.490863 C296.468914,223.411142 296.36137,223.36749 296.25,223.370278 C296.137782,223.367644 296.029335,223.411003 295.949961,223.490377 C295.870587,223.569751 295.827228,223.678198 295.83,223.790416 L298.34,246.790416 C298.337228,246.902634 298.380587,247.011081 298.459961,247.090455 C298.539335,247.169829 298.647782,247.213188 298.76,247.210541 L298.76,247.210541 Z" id="路径" fill="url(#linearGradient-3)" fill-rule="nonzero"></path>
            <path d="M298.34,243.440416 L298.34,243.440416 C298.76,243.030416 298.76,243.030416 298.76,242.610416 L292.9,238.000416 L292.48,238.000416 L292.48,238.410416 L298.34,243.440416 Z M297.5,235.080416 L297.5,235.080416 L301.27,229.640416 L301.27,229.220416 L300.85,229.220416 L297.08,234.660416 L297.5,235.080416 Z" id="形状" fill="url(#linearGradient-4)" fill-rule="nonzero"></path>
            <path d="M279.93,246.790416 C279.93,246.790416 281.6,248.050416 285.79,245.950416 C289.97,243.440416 289.13,241.350416 287.04,242.190416 C284.95,243.030416 281.19,247.630416 280.35,246.370416 C279.51,245.110416 282.86,242.610416 280.77,240.100416 C278.68,237.590416 279.93,243.030416 279.09,243.030416 C278.68,243.030416 277.84,240.100416 277,241.350416 C276.16,242.600416 278.26,246.350416 278.68,246.790416 C279.51,247.210416 278.26,247.210416 276.16,246.370416 C274.07,245.120416 273.65,247.630416 275.75,248.460416 C277.85,249.290416 279.93,246.790416 279.93,246.790416 L279.93,246.790416 Z" id="路径" fill="url(#linearGradient-5)" fill-rule="nonzero"></path>
            <ellipse id="椭圆形" fill="url(#linearGradient-6)" fill-rule="nonzero" opacity="0.41" cx="152.63" cy="264.260416" rx="45.5" ry="8.5"></ellipse>
            <path d="M90.33,254.540416 C95.63,252.040416 98.44,252.110416 98.24,244.810416 C97.83,238.060416 102.95,235.190416 99.68,231.180416 C96.41,227.170416 93.18,229.180416 93.98,219.070416 C94.78,208.960416 89.07,204.730416 85.73,203.530416 C82.39,202.330416 80.73,199.850416 77.73,194.360416 C74.73,188.870416 69.36,192.290416 68.92,195.270416 C68.48,198.250416 72.04,205.820416 69.68,210.630416 C67.32,215.440416 71.91,219.300416 75.78,221.630416 C79.65,223.960416 77.3,228.780416 75.16,232.100416 C73.16,235.790416 68.4,241.300416 72.07,244.190416 C75.74,247.080416 81.65,258.640416 90.35,254.540416 L90.33,254.540416 Z" id="路径" fill="url(#linearGradient-7)" fill-rule="nonzero"></path>
            <path d="M91.09,254.180416 C90.9896801,254.231156 90.8729261,254.238477 90.7670538,254.200665 C90.6611816,254.162854 90.57548,254.083228 90.53,253.980416 L80.66,212.390416 C80.6092599,212.290096 80.6019392,212.173342 80.6397507,212.06747 C80.6775623,211.961598 80.7571885,211.875896 80.86,211.830416 C80.9607631,211.782546 81.0764309,211.77673 81.1814878,211.81425 C81.2865447,211.851771 81.3723588,211.929545 81.42,212.030416 L91.09,254.180416 C91.29,253.620416 91.47,254.000416 91.09,254.180416 Z" id="路径" fill="url(#linearGradient-8)" fill-rule="nonzero"></path>
            <path d="M81.25,258.820416 C87.31,255.960416 97.81,246.820416 91.08,230.600416 C84.73,214.170416 74.23,223.280416 70.93,212.350416 C67.63,201.420416 68.07,198.430416 59.19,194.290416 C50.31,190.150416 55.27,186.000416 48.83,181.140416 C42.39,176.280416 38.83,175.660416 34.31,177.800416 C29.79,179.940416 37.52,192.470416 33.31,197.240416 C29.1,202.010416 28.84,203.500416 36,210.780416 C43.16,218.060416 45.93,218.120416 43.53,224.780416 C41.13,231.440416 43.53,233.580416 48.01,233.310416 C52.49,233.040416 59.43,233.020416 56.78,242.120416 C54.13,251.220416 55.18,254.440416 63.91,257.260416 C72.64,260.080416 72.91,262.720416 81.28,258.800416 L81.25,258.820416 Z" id="路径" fill="url(#linearGradient-9)" fill-rule="nonzero"></path>
            <path d="M85.34,228.220416 L85.34,228.220416 C84.78,228.020416 84.78,228.020416 84.6,227.640416 L88.83,215.000416 L89.21,214.820416 L89.39,215.200416 L85.39,228.200416 L85.34,228.220416 Z M89.42,245.720416 L89.42,245.720416 L77,240.000416 L76.83,239.620416 L77.2,239.440416 L89.2,245.340416 C89.62,245.160416 89.8,245.540416 89.42,245.720416 Z" id="形状" fill="url(#linearGradient-10)" fill-rule="nonzero"></path>
            <path d="M104.27,246.560416 C105.683782,246.521943 106.997642,245.822497 107.818946,244.671098 C108.640251,243.519699 108.873874,242.049709 108.45,240.700416 C107.62,237.350416 106.36,239.030416 105.94,241.540416 C105.52,244.050416 106.36,240.280416 103.85,239.450416 C101.34,239.030416 103.85,243.630416 103.01,244.450416 C101.76,244.860416 100.09,240.260416 98.41,242.350416 C96.73,244.440416 100.5,246.540416 104.27,246.540416 L104.27,246.560416 Z" id="路径" fill="url(#linearGradient-11)" fill-rule="nonzero"></path>
            <path d="M84.68,256.280416 C84.5792369,256.328286 84.4635691,256.334102 84.3585122,256.296582 C84.2534553,256.259062 84.1676412,256.181287 84.12,256.080416 L46.5,200.730416 C46.32,200.350416 46.32,200.350416 46.7,200.180416 C47.08,200.010416 47.08,200.000416 47.26,200.380416 L84.88,255.720416 C85.06,256.100416 85.06,256.100416 84.68,256.280416 Z" id="路径" fill="url(#linearGradient-12)" fill-rule="nonzero"></path>
            <path d="M60.09,219.770416 C59.71,219.940416 59.53,219.570416 59.35,219.190416 L60.44,204.800416 C60.44,204.800416 60.64,204.250416 60.82,204.630416 C60.82,204.630416 61.37,204.830416 61,205.000416 L60.09,219.770416 L60.09,219.770416 Z M66.23,228.890416 L54.81,229.190416 C54.7106964,229.237896 54.5964723,229.243453 54.4930287,229.205837 C54.3895851,229.168221 54.3056106,229.090592 54.26,228.990416 C54.2092599,228.890096 54.2019392,228.773342 54.2397507,228.66747 C54.2775623,228.561598 54.3571885,228.475896 54.46,228.430416 L65.46,228.310416 C66.22,227.960416 66.39,228.310416 66.19,228.890416 L66.23,228.890416 Z M74.92,241.450416 L74.92,241.450416 C74.54,241.630416 74.37,241.250416 74.19,240.870416 L75.85,225.750416 C75.85,225.750416 76.05,225.190416 76.23,225.570416 C76.23,225.570416 76.79,225.770416 76.41,225.950416 L74.92,241.450416 Z M80,249.240416 L64.26,249.240416 C63.88,249.410416 63.7,249.040416 64.08,248.860416 C63.9,248.480416 64.28,248.300416 64.46,248.680416 L79.8,248.850416 C80.18,248.670416 80.18,248.670416 79.98,249.230416 L80,249.240416 Z" id="形状" fill="url(#linearGradient-13)" fill-rule="nonzero"></path>
            <rect id="矩形" fill="url(#linearGradient-14)" fill-rule="nonzero" x="244.59" y="179.570416" width="7.65" height="74.6"></rect>
            <rect id="矩形" fill="url(#linearGradient-15)" fill-rule="nonzero" x="247.66" y="179.570416" width="7.65" height="74.6"></rect>
            <path d="M221.55,116.360416 L269.55,116.360416 C288.631438,116.360416 304.1,131.828978 304.1,150.910416 L304.1,178.270416 C304.1,179.771541 303.50368,181.211185 302.442224,182.27264 C301.380768,183.334096 299.941125,183.930416 298.44,183.930416 L193.08,183.930416 C189.650312,183.930416 186.87,181.150104 186.87,177.720416 L186.87,151.000416 C186.892073,131.862804 202.412375,116.360416 221.55,116.360416 Z" id="路径" fill="url(#linearGradient-16)" fill-rule="nonzero"></path>
            <path d="M211.6,116.180416 L211.6,116.180416 C225.258002,116.180416 236.33,127.252414 236.33,140.910416 L236.33,183.910416 L190.58,183.910416 C189.596047,183.910416 188.652394,183.519542 187.956634,182.823782 C187.260874,182.128022 186.87,181.184369 186.87,180.200416 L186.87,140.910416 C186.87,127.252414 197.941998,116.180416 211.6,116.180416 L211.6,116.180416 Z" id="路径" fill="url(#linearGradient-17)" fill-rule="nonzero"></path>
            <path d="M211.74,121.720416 L211.74,121.720416 C223.166771,121.720416 232.43,130.983645 232.43,142.410416 L232.43,178.560416 L191,178.560416 L191,142.410416 C191,130.983645 200.263229,121.720416 211.69,121.720416 L211.74,121.720416 Z" id="路径" fill="#5D98F9" fill-rule="nonzero"></path>
            <g id="编组" opacity="0.5" transform="translate(199.330000, 61.630416)">
                <line x1="0.24" y1="0.37" x2="0.76" y2="0.63" id="路径" stroke="#A4A4A5" stroke-width="0.58"></line>
                <path d="M1.79,1.12 C8.79,4.68 36.94,19.77 37.92,31.41 C38.74,40.97 32.15,42.71 25.33,39.62 C20.67,37.51 17.11,24.47 26.79,21.62 C34.67,19.37 51.14,33.37 57.96,38.71" id="路径" stroke="#A4A4A5" stroke-width="0.58" stroke-dasharray="1.16"></path>
                <line x1="58.41" y1="39.07" x2="58.87" y2="39.42" id="路径" stroke="#A4A4A5" stroke-width="0.58"></line>
                <path d="M58.67,39.27 C58.6230705,38.3099758 58.9014146,37.3621964 59.46,36.58 C59.4578258,37.9869853 59.8343237,39.3686289 60.55,40.58 C59.1584826,40.3226894 57.7246262,40.4189676 56.38,40.86 C56.9572123,40.102451 57.7585037,39.5460959 58.67,39.27 L58.67,39.27 Z" id="路径" fill="#A4A4A5" fill-rule="nonzero"></path>
            </g>
            <path d="M135.33,243.530416 C135.33,243.530416 131.75,248.300416 135.05,251.870416 C136.05,256.870416 126.81,258.300416 124.6,248.680416 C126.090875,246.224524 127.108429,243.511047 127.6,240.680416 C130.061733,241.917068 132.65468,242.873071 135.33,243.530416 Z" id="路径" fill="#FBBEBE" fill-rule="nonzero"></path>
            <path d="M124.88,248.170416 C125.875571,248.942098 126.628726,249.983325 127.05,251.170416 C127.88,253.110416 130.94,255.760416 134.33,254.080416 C134.500364,253.332572 134.741449,252.60262 135.05,251.900416 C137.032343,254.086727 139.372444,255.919581 141.97,257.320416 C145.66,259.090416 143.3,261.750416 142.2,262.320416 C141.1,262.890416 136.77,263.700416 133.8,261.530416 C130.83,259.360416 129.13,259.290416 127.59,259.450416 C126.05,259.610416 122.14,259.590416 120.59,254.540416 C121.19,252.960416 121.59,252.980416 121.59,252.980416 C121.59,252.980416 121.57,250.710416 124.88,248.170416 Z" id="路径" fill="#333333" fill-rule="nonzero"></path>
            <path d="M120.62,254.500416 C121.22,252.920416 121.62,252.94041 121.62,252.94041 C121.89,256.640416 126.33,258.290416 129.01,258.630416 C131.69,258.970416 133.01,259.830416 135.76,261.310416 C138.51,262.790416 143.2,261.460416 143.2,261.460416 L143.2,261.460416 C142.918587,261.791557 142.57985,262.069321 142.2,262.280416 C141.11,262.850416 136.77,263.660416 133.8,261.490416 C130.83,259.320416 129.13,259.250416 127.59,259.410416 C126.05,259.570416 122.14,259.550416 120.62,254.500416 Z" id="路径" fill="#333333" fill-rule="nonzero"></path>
            <path d="M180.14,159.860416 C180.14,159.860416 185.42,156.930416 187.45,156.470416 C189.48,156.010416 192.7,157.220416 194.27,157.540416 C194.790061,157.681116 195.290578,157.886026 195.76,158.150416 C197.092031,158.588898 198.447467,158.952796 199.82,159.240416 C200.61,159.190416 200.46,160.060416 199.62,160.300416 C199.964968,160.507185 200.330207,160.678076 200.71,160.810416 C201.89,161.240416 201.19,161.810416 200.79,161.810416 C200.232557,161.751631 199.680767,161.647961 199.14,161.500416 C199.510724,162.013297 199.955579,162.468262 200.46,162.850416 C201.1,163.260416 199.96,163.460416 199.57,163.350416 C198.75,163.080416 197.23,161.350416 196.57,161.350416 C197.103763,162.007675 197.473907,162.782235 197.65,163.610416 C197.73,164.400416 197.65,165.020416 197.76,165.400416 C197.87,165.780416 196.92,165.630416 196.66,165.020416 C196.4,164.410416 196.66,163.690416 196.3,163.310416 C195.849408,162.775131 195.221035,162.420118 194.53,162.310416 C193.75,162.250416 191.16,161.790416 190.14,160.310416 C189.95,160.060416 189.48,160.120416 188.14,161.580416 C186.8,163.040416 182.89,167.080416 182.89,167.080416 L180.14,159.860416 Z" id="路径" fill="#FBBEBE" fill-rule="nonzero"></path>
            <path d="M167.6,252.230416 C167.6,252.230416 165.71,257.620416 168.81,259.940416 C171.45,264.320416 163.31,268.830416 157.91,260.570416 C158.5,258.450416 159.91,255.510416 159.12,251.570416 C164.38,252.090416 167.6,252.230416 167.6,252.230416 Z" id="路径" fill="#FBBEBE" fill-rule="nonzero"></path>
            <path d="M158,260.000416 C159.190325,260.360623 160.252331,261.054745 161.06,262.000416 C162.52,263.530416 166.3,265.000416 168.91,262.210416 C168.807463,261.448309 168.777328,260.678205 168.82,259.910416 C171.436815,261.27828 174.267142,262.191288 177.19,262.610416 C181.27,262.990416 179.97,266.300416 179.14,267.210416 C178.31,268.120416 174.52,270.380416 170.98,269.380416 C167.44,268.380416 165.82,268.890416 164.43,269.570416 C163.04,270.250416 159.36,271.570416 156.2,267.370416 C156.2,265.680416 156.58,265.560416 156.58,265.560416 C156.58,265.560416 155.76,263.520416 158,260.000416 Z" id="路径" fill="#333333" fill-rule="nonzero"></path>
            <path d="M156.19,267.400416 C156.19,265.710416 156.57,265.590416 156.57,265.590416 C158.11,268.970416 162.84,268.990416 165.48,268.380416 C168.12,267.770416 169.63,268.130416 172.74,268.560416 C175.85,268.990416 179.74,266.130416 179.74,266.130416 L179.74,266.130416 C179.597848,266.537132 179.380771,266.913624 179.1,267.240416 C178.27,268.160416 174.48,270.410416 170.94,269.410416 C167.4,268.410416 165.78,268.920416 164.39,269.600416 C163,270.280416 159.35,271.620416 156.19,267.400416 Z" id="路径" fill="#333333" fill-rule="nonzero"></path>
            <path d="M138,162.480416 C138,162.480416 136.06,165.930416 135.27,176.680416 C134.48,187.430416 139.16,212.850416 135.94,219.420416 C132.72,225.990416 126,243.240416 126,243.240416 C126,243.240416 127.63,249.660416 135.11,247.610416 C139.55,237.010416 146.42,227.330416 148.28,221.040416 C150.14,214.750416 154.78,175.310416 154.78,175.310416 L138,162.480416 Z" id="路径" fill="url(#linearGradient-18)" fill-rule="nonzero"></path>
            <path d="M144.63,172.800416 C144.63,172.800416 145.5,177.060416 147.63,187.620416 C149.76,198.180416 162.39,221.380416 161.06,228.620416 C159.73,235.860416 158,254.190416 158,254.190416 C158,254.190416 161.3,259.930416 168,255.940416 C169.41,244.540416 173.42,233.360416 173.51,226.800416 C173.6,220.240416 166,175.530416 166,175.530416 L144.63,172.800416 Z" id="路径" fill="url(#linearGradient-19)" fill-rule="nonzero"></path>
            <path d="M163.72,99.640416 C166.1,100.810416 168.42,105.030416 167.77,109.080416 C168.37,110.230416 169.97,118.080416 166.37,121.020416 C165.27,121.870416 162.77,121.020416 162.22,121.770416 C161.67,122.520416 160.52,127.370416 160.52,127.370416 L151.73,123.820416 C151.73,123.820416 153.88,120.220416 152.98,117.620416 C152.08,115.020416 147.98,112.280416 149.13,106.780416 C150.28,101.280416 155.33,95.490416 163.72,99.640416 Z" id="路径" fill="#FBBEBE" fill-rule="nonzero"></path>
            <path d="M166.12,104.880416 C166.12,104.880416 169.77,105.130416 169.27,99.240416 C168.57,99.390416 165.84,95.770416 161.47,97.040416 C161.67,96.040416 152.72,97.600416 149.78,101.640416 C146.84,105.680416 148.73,110.870416 149.68,112.290416 C150.63,113.710416 152.75,119.700416 156.76,118.430416 C158.24,117.960416 161.55,113.430416 163.38,110.870416 C164.16,109.780416 165.12,113.440416 165.74,112.290416 C165.92,111.960416 165.11,108.360416 165.27,108.040416 C165.796903,107.068188 166.088057,105.985782 166.12,104.880416 L166.12,104.880416 Z" id="路径" fill="#333333" fill-rule="nonzero"></path>
            <path d="M155.18,126.470416 C150.63,125.140416 141.59,122.870416 139.29,126.970416 C136.99,131.070416 126.2,153.740416 137.39,152.840416 C137.087842,157.46611 136.419076,162.060532 135.39,166.580416 C134.89,168.580416 136.84,171.930416 142.39,174.830416 C147.94,177.730416 158.33,181.520416 166.02,175.530416 C167.42,174.280416 167.62,173.680416 167.47,172.180416 C167.32,170.680416 166.02,161.180416 166.57,152.790416 C167.92,160.090416 169.47,172.680416 176.41,171.080416 C183.35,169.480416 183.81,167.930416 183.96,166.530416 C184.11,165.130416 183.46,159.040416 179.66,159.340416 C179.01,159.490416 178.66,159.540416 178.66,159.540416 C178.66,159.540416 174.26,138.460416 172.06,136.310416 C169.86,134.160416 161.87,128.410416 155.18,126.470416 Z" id="路径" fill="url(#linearGradient-20)" fill-rule="nonzero"></path>
            <path d="M163.42,130.190416 C163.693775,129.251999 163.545297,128.240878 163.013294,127.420785 C162.48129,126.600693 161.618512,126.052947 160.65,125.920416 C156.95,125.220416 153.52,123.680416 152.31,122.660416 C151.53,122.570416 150.21,123.290416 150.31,125.940416 C150.64,126.570416 153.8,129.110416 160.86,128.780416 C161.89,129.330416 163.42,130.190416 163.42,130.190416 Z" id="路径" fill="url(#linearGradient-21)" fill-rule="nonzero"></path>
            <path d="M203.66,50.760416 C203.06,50.760416 201.28,53.150416 203.66,55.530416 C206.04,57.910416 209.93,56.280416 208.43,55.530416 C206.05,54.340416 204.26,50.760416 203.66,50.760416 Z" id="路径" fill="#E0E0E0"></path>
            <path d="M203.66,51.000416 C203.580101,52.2955588 204.038063,53.5662909 204.9258,54.5127058 C205.813537,55.4591207 207.052399,55.9973682 208.35,56.000416" id="路径" stroke="#FFFFFF" stroke-width="0.3" stroke-linecap="round"></path>
            <path d="M203.66,92.390416 C203.06,92.390416 201.28,94.780416 203.66,97.160416 C206.04,99.540416 209.93,97.910416 208.43,97.160416 C206.05,96.000416 204.26,92.390416 203.66,92.390416 Z" id="路径" fill="#E0E0E0"></path>
            <path d="M203.66,92.660416 C203.580101,93.9555588 204.038063,95.2262909 204.9258,96.1727058 C205.813537,97.1191207 207.052399,97.6573682 208.35,97.660416" id="路径" stroke="#FFFFFF" stroke-width="0.3" stroke-linecap="round"></path>
        </g>
    </g>
</svg>