<?xml version="1.0" encoding="UTF-8"?>
<svg width="400px" height="300px" viewBox="0 0 400 300" version="1.1" xmlns="http://www.w3.org/2000/svg" xmlns:xlink="http://www.w3.org/1999/xlink">
    <title>画板备份 2</title>
    <defs>
        <linearGradient x1="-0.00821089158%" y1="49.9223602%" x2="99.9958934%" y2="49.9223602%" id="linearGradient-1">
            <stop stop-color="#F9E7A8" offset="0%"></stop>
            <stop stop-color="#F5A623" offset="100%"></stop>
        </linearGradient>
        <linearGradient x1="31.2242454%" y1="59.1215651%" x2="66.5321425%" y2="36.8775913%" id="linearGradient-2">
            <stop stop-color="#C6DFFE" offset="0%"></stop>
            <stop stop-color="#72B1FE" offset="100%"></stop>
        </linearGradient>
        <linearGradient x1="-0.00816792338%" y1="49.9928234%" x2="99.9822704%" y2="49.9928234%" id="linearGradient-3">
            <stop stop-color="#C6DFFE" offset="0%"></stop>
            <stop stop-color="#72B1FE" offset="100%"></stop>
        </linearGradient>
        <linearGradient x1="-0.0226459219%" y1="50.0002851%" x2="100.143552%" y2="50.0002851%" id="linearGradient-4">
            <stop stop-color="#C6DFFE" offset="0%"></stop>
            <stop stop-color="#72B1FE" offset="100%"></stop>
        </linearGradient>
        <linearGradient x1="-665.774096%" y1="347.972202%" x2="-560.618135%" y2="347.972202%" id="linearGradient-5">
            <stop stop-color="#C6DFFE" offset="0%"></stop>
            <stop stop-color="#72B1FE" offset="100%"></stop>
        </linearGradient>
        <linearGradient x1="-0.0548265901%" y1="50.0076576%" x2="99.9765458%" y2="50.0076576%" id="linearGradient-6">
            <stop stop-color="#C6DFFE" offset="0%"></stop>
            <stop stop-color="#72B1FE" offset="100%"></stop>
        </linearGradient>
        <linearGradient x1="0.0781361852%" y1="50.2588997%" x2="100.014317%" y2="50.2588997%" id="linearGradient-7">
            <stop stop-color="#C6DFFE" offset="0%"></stop>
            <stop stop-color="#72B1FE" offset="100%"></stop>
        </linearGradient>
        <linearGradient x1="0.0103263685%" y1="49.9638039%" x2="99.8372433%" y2="49.9638039%" id="linearGradient-8">
            <stop stop-color="#C6DFFE" offset="0%"></stop>
            <stop stop-color="#72B1FE" offset="100%"></stop>
        </linearGradient>
        <linearGradient x1="0%" y1="49.8768386%" x2="99.9865481%" y2="49.8768386%" id="linearGradient-9">
            <stop stop-color="#C6DFFE" offset="0%"></stop>
            <stop stop-color="#72B1FE" offset="100%"></stop>
        </linearGradient>
        <linearGradient x1="0.00374851787%" y1="50.0000273%" x2="99.9963438%" y2="50.0000273%" id="linearGradient-10">
            <stop stop-color="#C6DFFE" offset="0%"></stop>
            <stop stop-color="#72B1FE" offset="100%"></stop>
        </linearGradient>
        <linearGradient x1="6.46682808e-13%" y1="50%" x2="100%" y2="50%" id="linearGradient-11">
            <stop stop-color="#C6DFFE" offset="0%"></stop>
            <stop stop-color="#72B1FE" offset="100%"></stop>
        </linearGradient>
        <linearGradient x1="0.0108485001%" y1="49.9609761%" x2="100.008471%" y2="49.9609761%" id="linearGradient-12">
            <stop stop-color="#C6DFFE" offset="0%"></stop>
            <stop stop-color="#72B1FE" offset="100%"></stop>
        </linearGradient>
        <linearGradient x1="0%" y1="50%" x2="100%" y2="50%" id="linearGradient-13">
            <stop stop-color="#F9E7A8" offset="0%"></stop>
            <stop stop-color="#F5A623" offset="100%"></stop>
        </linearGradient>
        <linearGradient x1="50%" y1="-0.863155343%" x2="50%" y2="101.29511%" id="linearGradient-14">
            <stop stop-color="#C6DFFE" offset="0%"></stop>
            <stop stop-color="#72B1FE" offset="100%"></stop>
        </linearGradient>
        <linearGradient x1="49.7807192%" y1="-1.12601239%" x2="49.7807192%" y2="101.615862%" id="linearGradient-15">
            <stop stop-color="#C6DFFE" offset="0%"></stop>
            <stop stop-color="#72B1FE" offset="100%"></stop>
        </linearGradient>
        <linearGradient x1="50.0258398%" y1="-1.27446181%" x2="50.0258398%" y2="101.704957%" id="linearGradient-16">
            <stop stop-color="#BFD4FA" offset="0%"></stop>
            <stop stop-color="#5792F0" offset="100%"></stop>
        </linearGradient>
        <linearGradient x1="4.81397517e-14%" y1="50%" x2="100%" y2="50%" id="linearGradient-17">
            <stop stop-color="#BFD4FA" offset="0%"></stop>
            <stop stop-color="#5792F0" offset="100%"></stop>
        </linearGradient>
        <linearGradient x1="104.455665%" y1="25.5369458%" x2="5.45566502%" y2="37.5369458%" id="linearGradient-18">
            <stop stop-color="#C6DFFE" offset="0%"></stop>
            <stop stop-color="#72B1FE" offset="100%"></stop>
        </linearGradient>
        <linearGradient x1="80.4477738%" y1="34.9391647%" x2="46.4518284%" y2="67.9580247%" id="linearGradient-19">
            <stop stop-color="#C6DFFE" offset="0%"></stop>
            <stop stop-color="#72B1FE" offset="100%"></stop>
        </linearGradient>
        <linearGradient x1="103.182266%" y1="25.6009852%" x2="4.18226601%" y2="37.6009852%" id="linearGradient-20">
            <stop stop-color="#C6DFFE" offset="0%"></stop>
            <stop stop-color="#72B1FE" offset="100%"></stop>
        </linearGradient>
        <linearGradient x1="60.8143116%" y1="37.8451312%" x2="43.5804074%" y2="45.267774%" id="linearGradient-21">
            <stop stop-color="#C6DFFE" offset="0%"></stop>
            <stop stop-color="#72B1FE" offset="100%"></stop>
        </linearGradient>
        <linearGradient x1="105.862069%" y1="5.25123153%" x2="14.08867%" y2="43.1576355%" id="linearGradient-22">
            <stop stop-color="#C6DFFE" offset="0%"></stop>
            <stop stop-color="#72B1FE" offset="100%"></stop>
        </linearGradient>
        <linearGradient x1="65.5241173%" y1="42.5399423%" x2="55.2103509%" y2="61.7198257%" id="linearGradient-23">
            <stop stop-color="#C6DFFE" offset="0%"></stop>
            <stop stop-color="#72B1FE" offset="100%"></stop>
        </linearGradient>
        <linearGradient x1="99.9728332%" y1="49.9579479%" x2="-0.0594722387%" y2="49.9579479%" id="linearGradient-24">
            <stop stop-color="#1A1114" offset="0%"></stop>
            <stop stop-color="#30231E" offset="25%"></stop>
            <stop stop-color="#4A372A" offset="50%"></stop>
            <stop stop-color="#5A372A" offset="59%"></stop>
            <stop stop-color="#60372A" offset="66%"></stop>
            <stop stop-color="#98372A" offset="98%"></stop>
        </linearGradient>
        <linearGradient x1="83.0276759%" y1="50%" x2="183.094365%" y2="50%" id="linearGradient-25">
            <stop stop-color="#1A1114" offset="0%"></stop>
            <stop stop-color="#30231E" offset="25%"></stop>
            <stop stop-color="#4A372A" offset="50%"></stop>
            <stop stop-color="#5A372A" offset="59%"></stop>
            <stop stop-color="#60372A" offset="66%"></stop>
            <stop stop-color="#98372A" offset="98%"></stop>
        </linearGradient>
        <linearGradient x1="99.9568678%" y1="50.0379262%" x2="-0.0524131962%" y2="50.0379262%" id="linearGradient-26">
            <stop stop-color="#F3835D" offset="0%"></stop>
            <stop stop-color="#FFC644" offset="100%"></stop>
        </linearGradient>
        <linearGradient x1="1.1259156%" y1="49.9839173%" x2="99.1259045%" y2="49.9839173%" id="linearGradient-27">
            <stop stop-color="#EAF2FD" offset="0%"></stop>
            <stop stop-color="#C4DFFD" offset="100%"></stop>
        </linearGradient>
        <linearGradient x1="0.373412995%" y1="49.4419643%" x2="100.074683%" y2="49.4419643%" id="linearGradient-28">
            <stop stop-color="#EAF2FD" offset="0%"></stop>
            <stop stop-color="#C4DFFD" offset="100%"></stop>
        </linearGradient>
        <linearGradient x1="50.28826%" y1="100%" x2="50.28826%" y2="-1.25216912%" id="linearGradient-29">
            <stop stop-color="#EAF2FD" offset="0%"></stop>
            <stop stop-color="#C4DFFD" offset="100%"></stop>
        </linearGradient>
    </defs>
    <g id="画板备份-2" stroke="none" stroke-width="1" fill="none" fill-rule="evenodd">
        <g id="资源-3" transform="translate(16.000000, 1.000000)">
            <path d="M185.68,0 C152.588744,-0.0768105047 120.368128,10.5990541 93.87,30.420416 L104.12,30.420416 C106.451253,30.420416 108.687024,31.3465027 110.335469,32.9949474 C111.983913,34.6433922 112.91,36.8791631 112.91,39.210416 L112.91,39.210416 L112.91,39.890416 C112.91,44.744999 108.974583,48.680416 104.12,48.680416 L73.58,48.680416 C67.7772753,54.9277597 62.5181997,61.6588412 57.86,68.800416 L43.35,68.800416 C38.1237691,68.8059348 33.8899971,73.0441822 33.89,78.270416 L33.89,78.800416 C33.8866193,83.0171095 36.6773219,86.7258064 40.73,87.890416 L54.09,87.890416 C60.0634359,87.8959291 64.9044869,92.7369801 64.91,98.710416 L64.91,98.710416 L64.91,102.090416 C64.91,108.066137 60.065721,112.910416 54.09,112.910416 L8.18,112.910416 C3.37206252,114.120077 0,118.44264 0,123.400416 L0,124.000416 C0,129.976137 4.84427901,134.820416 10.82,134.820416 L34.6,134.820416 C34.1333333,139.633749 33.8966667,144.500416 33.89,149.420416 C33.89,231.940416 101.89,298.840416 185.68,298.840416 C252.74,298.840416 309.68,256.040416 329.73,196.680416 L335.42,196.680416 C337.41268,196.666371 339.118372,195.247634 339.495144,193.290848 C339.871917,191.334061 338.814992,189.383392 336.97,188.630416 L329.97,188.630416 C325.11932,188.630419 321.185518,184.701093 321.18,179.850416 L321.18,179.850416 L321.18,179.170416 C321.18,174.315833 325.115417,170.380416 329.97,170.380416 L336,170.380416 L336,170.270416 L351,170.270416 C354.838379,170.270416 357.95,167.158795 357.95,163.320416 C357.95,159.482037 354.838379,156.370416 351,156.370416 L337.31,156.370416 C337.423333,154.070416 337.476667,151.737083 337.47,149.370416 C337.491021,128.029098 332.860213,106.939641 323.9,87.570416 L348.2,87.570416 C358.652464,87.5648988 367.124483,79.0928802 367.13,68.640416 L367.13,67.580416 C367.13,57.5485328 359.305239,49.2580575 349.29,48.680416 L263.68,48.680416 C259.946555,48.680416 256.92,45.653861 256.92,41.920416 C256.92,38.1869711 259.946555,35.160416 263.68,35.160416 L283.5,35.160416 L283,34.750416 L292.86,34.750416 C296.267113,34.7504171 299.534534,33.3962626 301.942788,30.9861323 C304.351043,28.5760019 305.702654,25.3075281 305.7,21.900416 L305.7,21.190416 C305.702654,17.783304 304.351043,14.5148302 301.942788,12.1046998 C299.534534,9.69456947 296.267113,8.34041501 292.86,8.34041604 L235.81,8.34041604 C219.677935,2.80040978 202.736812,-0.0180415623 185.68,0 Z" id="背景" fill="#EDF0F4" opacity="0.35"></path>
            <path d="M182,233.000416 C216.36,233.000416 247.3,235.800416 268.93,240.280416 C290.08,240.420416 307.12,246.760416 307.12,254.550416 C307.12,260.730416 296.42,265.990416 281.45,267.980416 C277.87,269.040416 273.85,270.030416 269.45,270.980416 C269.561511,271.570597 269.618419,272.169795 269.62,272.770416 C269.62,286.370416 240.04,297.400416 203.56,297.400416 C170.74,297.400416 143.56,288.470416 138.37,276.770416 C94.58,273.450416 63.6099943,265.260416 63.6099943,255.690416 C63.59,243.110416 116.6,233.000416 182,233.000416 Z" id="形状结合" fill="url(#linearGradient-1)" opacity="0.27"></path>
            <path d="M93.25,262.820416 C99.31,259.960416 109.81,250.820416 103.08,234.600416 C96.73,218.170416 86.23,227.280416 82.93,216.350416 C79.63,205.420416 80.07,202.430416 71.19,198.290416 C62.31,194.150416 67.27,190.000416 60.83,185.140416 C54.39,180.280416 50.83,179.660416 46.31,181.800416 C41.79,183.940416 49.52,196.470416 45.31,201.240416 C41.1,206.010416 40.84,207.500416 48,214.780416 C55.16,222.060416 57.93,222.120416 55.53,228.780416 C53.13,235.440416 55.53,237.580416 60.01,237.310416 C64.49,237.040416 71.43,237.020416 68.78,246.120416 C66.13,255.220416 67.18,258.440416 75.91,261.260416 C84.64,264.080416 84.91,266.720416 93.28,262.800416 L93.25,262.820416 Z" id="路径" fill="url(#linearGradient-2)" fill-rule="nonzero"></path>
            <path d="M96.68,260.280416 C96.5792369,260.328286 96.4635691,260.334102 96.3585122,260.296582 C96.2534553,260.259062 96.1676412,260.181287 96.12,260.080416 L58.5,204.730416 C58.32,204.350416 58.32,204.350416 58.7,204.180416 C59.08,204.010416 59.08,204.000416 59.26,204.380416 L96.88,259.720416 C97.06,260.100416 97.06,260.100416 96.68,260.280416 Z" id="路径" fill="url(#linearGradient-3)" fill-rule="nonzero"></path>
            <path d="M72.09,223.770416 C71.71,223.940416 71.53,223.570416 71.35,223.190416 L72.44,208.800416 C72.44,208.800416 72.64,208.250416 72.82,208.630416 C72.82,208.630416 73.37,208.830416 73,209.000416 L72.09,223.770416 L72.09,223.770416 Z M78.23,232.890416 L66.81,233.190416 C66.7106964,233.237896 66.5964723,233.243453 66.4930287,233.205837 C66.3895851,233.168221 66.3056106,233.090592 66.26,232.990416 C66.2092599,232.890096 66.2019392,232.773342 66.2397507,232.66747 C66.2775623,232.561598 66.3571885,232.475896 66.46,232.430416 L77.46,232.310416 C78.22,231.960416 78.39,232.310416 78.19,232.890416 L78.23,232.890416 Z M86.92,245.450416 L86.92,245.450416 C86.54,245.630416 86.37,245.250416 86.19,244.870416 L87.85,229.750416 C87.85,229.750416 88.05,229.190416 88.23,229.570416 C88.23,229.570416 88.79,229.770416 88.41,229.950416 L86.92,245.450416 Z M92,253.240416 L76.26,253.240416 C75.88,253.410416 75.7,253.040416 76.08,252.860416 C75.9,252.480416 76.28,252.300416 76.46,252.680416 L91.8,252.850416 C92.18,252.670416 92.18,252.670416 91.98,253.230416 L92,253.240416 Z" id="形状" fill="url(#linearGradient-4)" fill-rule="nonzero"></path>
            <path d="M102.33,258.540416 C107.63,256.040416 110.44,256.110416 110.24,248.810416 C109.83,242.060416 114.95,239.190416 111.68,235.180416 C108.41,231.170416 105.18,233.180416 105.98,223.070416 C106.78,212.960416 101.07,208.730416 97.73,207.530416 C94.39,206.330416 92.73,203.850416 89.73,198.360416 C86.73,192.870416 81.36,196.290416 80.92,199.270416 C80.48,202.250416 84.04,209.820416 81.68,214.630416 C79.32,219.440416 83.91,223.300416 87.78,225.630416 C91.65,227.960416 89.3,232.780416 87.16,236.100416 C85.16,239.790416 80.4,245.300416 84.07,248.190416 C87.74,251.080416 93.65,262.640416 102.35,258.540416 L102.33,258.540416 Z" id="路径" fill="url(#linearGradient-5)" fill-rule="nonzero"></path>
            <path d="M103.09,258.180416 C102.98968,258.231156 102.872926,258.238477 102.767054,258.200665 C102.661182,258.162854 102.57548,258.083228 102.53,257.980416 L92.66,216.390416 C92.6092599,216.290096 92.6019392,216.173342 92.6397507,216.06747 C92.6775623,215.961598 92.7571885,215.875896 92.86,215.830416 C92.9607631,215.782546 93.0764309,215.77673 93.1814878,215.81425 C93.2865447,215.851771 93.3723588,215.929545 93.42,216.030416 L103.09,258.180416 C103.29,257.620416 103.47,258.000416 103.09,258.180416 Z" id="路径" fill="url(#linearGradient-6)" fill-rule="nonzero"></path>
            <path d="M97.34,232.220416 L97.34,232.220416 C96.78,232.020416 96.78,232.020416 96.6,231.640416 L100.83,219.000416 L101.21,218.820416 L101.39,219.200416 L97.39,232.200416 L97.34,232.220416 Z M101.42,249.720416 L101.42,249.720416 L89,244.000416 L88.83,243.620416 L89.2,243.440416 L101.2,249.340416 C101.62,249.160416 101.8,249.540416 101.42,249.720416 Z" id="形状" fill="url(#linearGradient-7)" fill-rule="nonzero"></path>
            <path d="M128.27,266.560416 C129.683782,266.521943 130.997642,265.822497 131.818946,264.671098 C132.640251,263.519699 132.873874,262.049709 132.45,260.700416 C131.62,257.350416 130.36,259.030416 129.94,261.540416 C129.52,264.050416 130.36,260.280416 127.85,259.450416 C125.34,259.030416 127.85,263.630416 127.01,264.450416 C125.76,264.860416 124.09,260.260416 122.41,262.350416 C120.73,264.440416 124.5,266.540416 128.27,266.540416 L128.27,266.560416 Z" id="路径" fill="url(#linearGradient-8)" fill-rule="nonzero"></path>
            <path d="M298.76,247.210416 C294.57,247.210416 289.97,242.210416 289.55,238.840416 C289.55,235.080416 294.15,235.500416 294.15,233.840416 C294.15,232.180416 291.23,232.170416 291.64,230.910416 C292.05,229.650416 294.57,229.240416 294.15,228.400416 C293.73,227.560416 290.81,228.820416 291.64,226.730416 C292.48,224.220416 294.15,225.480416 292.9,222.550416 C291.65,219.620416 295.41,222.550416 294.15,220.040416 C292.9,217.110416 291.64,215.040416 294.15,213.760416 C296.66,212.480416 296.25,222.130416 297.08,221.290416 C298.34,220.870416 300.01,220.040416 300.43,222.970416 C300.85,225.900416 298.76,226.730416 302.52,227.150416 C305.87,227.570416 301.27,232.590416 303.78,233.840416 C306.29,235.090416 309.63,238.440416 306.7,241.840416 C304.19,244.770416 302.52,247.280416 298.76,247.280416 L298.76,247.210416 Z" id="路径" fill="url(#linearGradient-9)" fill-rule="nonzero"></path>
            <path d="M298.76,247.210541 C298.870494,247.210541 298.976323,247.165883 299.053507,247.086816 C299.130691,247.00775 299.172695,246.900877 299.17,246.790416 L296.66,223.790416 C296.665609,223.679149 296.62456,223.570584 296.546737,223.490863 C296.468914,223.411142 296.36137,223.36749 296.25,223.370278 C296.137782,223.367644 296.029335,223.411003 295.949961,223.490377 C295.870587,223.569751 295.827228,223.678198 295.83,223.790416 L298.34,246.790416 C298.337228,246.902634 298.380587,247.011081 298.459961,247.090455 C298.539335,247.169829 298.647782,247.213188 298.76,247.210541 L298.76,247.210541 Z" id="路径" fill="url(#linearGradient-10)" fill-rule="nonzero"></path>
            <path d="M298.34,243.440416 L298.34,243.440416 C298.76,243.030416 298.76,243.030416 298.76,242.610416 L292.9,238.000416 L292.48,238.000416 L292.48,238.410416 L298.34,243.440416 Z M297.5,235.080416 L297.5,235.080416 L301.27,229.640416 L301.27,229.220416 L300.85,229.220416 L297.08,234.660416 L297.5,235.080416 Z" id="形状" fill="url(#linearGradient-11)" fill-rule="nonzero"></path>
            <path d="M279.93,246.790416 C279.93,246.790416 281.6,248.050416 285.79,245.950416 C289.97,243.440416 289.13,241.350416 287.04,242.190416 C284.95,243.030416 281.19,247.630416 280.35,246.370416 C279.51,245.110416 282.86,242.610416 280.77,240.100416 C278.68,237.590416 279.93,243.030416 279.09,243.030416 C278.68,243.030416 277.84,240.100416 277,241.350416 C276.16,242.600416 278.26,246.350416 278.68,246.790416 C279.51,247.210416 278.26,247.210416 276.16,246.370416 C274.07,245.120416 273.65,247.630416 275.75,248.460416 C277.85,249.290416 279.93,246.790416 279.93,246.790416 L279.93,246.790416 Z" id="路径" fill="url(#linearGradient-12)" fill-rule="nonzero"></path>
            <ellipse id="椭圆形" fill="url(#linearGradient-13)" fill-rule="nonzero" opacity="0.41" cx="146.94" cy="254.450416" rx="35.81" ry="6.13"></ellipse>
            <path d="M206.38,85.7602706 C170.183747,85.7081519 135.485877,100.208539 110.09,126.000416 L127.76,143.670416 C170.44976,100.249174 240.255738,99.6537275 283.68,142.340416 C284.13,142.780416 284.57,143.220416 285.01,143.670416 L302.69,126.000416 C277.286688,100.207392 242.582286,85.7072874 206.38,85.7602706 L206.38,85.7602706 Z" id="路径" stroke="url(#linearGradient-14)" opacity="0.6"></path>
            <path d="M143.7,159.650416 L161.64,177.590416 C172.931199,165.708914 188.482387,158.803167 204.868175,158.394273 C221.253964,157.985378 237.130237,164.106877 249,175.410416 C249.74,176.120416 250.47,176.850416 251.18,177.590416 L269.11,159.650416 C235.698384,125.033089 180.551025,124.052632 145.93,157.460416 C145.18,158.170416 144.45,158.910416 143.73,159.650416 L143.7,159.650416 Z" id="路径" stroke="url(#linearGradient-15)" opacity="0.6"></path>
            <path d="M177.34,193.270416 L206.34,222.330416 L235.39,193.270416 C219.345701,177.274753 193.384299,177.274753 177.34,193.270416 L177.34,193.270416 Z" id="路径" stroke="url(#linearGradient-16)" opacity="0.6"></path>
            <path d="M251.89,169.540416 C235.586554,169.540416 222.37,182.75697 222.37,199.060416 C222.37,215.363862 235.586554,228.580416 251.89,228.580416 C268.193446,228.580416 281.41,215.363862 281.41,199.060416 C281.41,191.231225 278.299866,183.722698 272.763792,178.186624 C267.227718,172.65055 259.719191,169.540416 251.89,169.540416 Z M265,207.910416 C265.667285,208.41088 266.06,209.196309 266.06,210.030416 C266.06,210.864523 265.667285,211.649952 265,212.150416 C263.58,213.570416 262.17,213.570416 260.75,212.150416 L251.91,203.310416 L243,212.150416 C241.817961,213.251851 239.975961,213.219352 238.833513,212.076903 C237.691064,210.934455 237.658565,209.092455 238.76,207.910416 L247.6,199.060416 L238.76,190.220416 C237.34,188.800416 237.34,187.390416 238.76,185.970416 C239.260464,185.303131 240.045893,184.910416 240.88,184.910416 C241.714107,184.910416 242.499536,185.303131 243,185.970416 L251.85,194.820416 L260.69,185.970416 C261.863605,184.796811 263.766395,184.796811 264.94,185.970416 C266.113605,187.144021 266.113605,189.046811 264.94,190.220416 L256.09,199.060416 L265,207.910416 Z" id="形状" fill="url(#linearGradient-17)" fill-rule="nonzero"></path>
            <circle id="椭圆形" fill="url(#linearGradient-18)" fill-rule="nonzero" transform="translate(99.274824, 127.438245) rotate(-34.830000) translate(-99.274824, -127.438245) " cx="99.2748238" cy="127.438245" r="2.03"></circle>
            <path d="M87.38,118.090416 C87.92,118.690416 91.66,121.640416 94.87,124.150416 C95.2982897,124.466686 95.8900327,124.437738 96.2854069,124.081173 C96.6807811,123.724609 96.7704966,123.13899 96.5,122.680416 C94.37,119.220416 91.84,115.170416 91.3,114.570416 C90.3279788,113.487938 88.6624781,113.398395 87.58,114.370416 C86.4975219,115.342437 86.4079788,117.007938 87.38,118.090416 L87.38,118.090416 Z" id="路径" fill="url(#linearGradient-19)" fill-rule="nonzero"></path>
            <circle id="椭圆形" fill="url(#linearGradient-20)" fill-rule="nonzero" transform="translate(105.101374, 125.193120) rotate(-3.570000) translate(-105.101374, -125.193120) " cx="105.101374" cy="125.19312" r="2.03"></circle>
            <path d="M99.77,111.000416 C99.92,111.800416 101.58,116.260416 103.03,120.070416 C103.228106,120.566415 103.748877,120.853519 104.274046,120.756266 C104.799215,120.659012 105.182644,120.204463 105.19,119.670416 C105.19,115.600416 105.1,110.830416 104.95,110.030416 C104.62527,108.65183 103.270553,107.775107 101.879914,108.043571 C100.489275,108.312034 99.5582469,109.63002 99.77,111.030416 L99.77,111.000416 Z" id="路径" fill="url(#linearGradient-21)" fill-rule="nonzero"></path>
            <circle id="椭圆形" fill="url(#linearGradient-22)" fill-rule="nonzero" transform="translate(95.896677, 132.157969) rotate(-52.740000) translate(-95.896677, -132.157969) " cx="95.896677" cy="132.157969" r="2.03"></circle>
            <path d="M80.82,130.910416 C81.6,131.120416 86.35,131.530416 90.41,131.850416 C90.9532581,131.905642 91.4559916,131.557541 91.5954499,131.029591 C91.7349082,130.501642 91.4696633,129.950679 90.97,129.730416 C87.28,128.010416 82.97,126.020416 82.16,125.820416 C81.2507591,125.581048 80.2828845,125.844937 79.6209653,126.512679 C78.9590462,127.180421 78.7036436,128.150569 78.9509653,129.057679 C79.1982871,129.964789 79.9107591,130.671048 80.82,130.910416 Z" id="路径" fill="url(#linearGradient-23)" fill-rule="nonzero"></path>
            <path d="M131.66,127.190416 L132.97,124.520416 C132.479036,123.547872 131.934878,122.603108 131.34,121.690416 C130.369859,120.18906 129.272488,118.773853 128.06,117.460416 C127.19684,117.468939 126.335097,117.532401 125.48,117.650416 C124.48,117.800416 123.96,117.950416 123.64,118.380416 C123.64,118.380416 123.28,118.880416 123.44,119.150416 C123.6,119.420416 124,119.280416 124.52,119.410416 C125.023277,119.556312 125.467702,119.85726 125.79,120.270416 L127.74,123.780416 C127.555085,124.692888 127.790066,125.640154 128.38,126.360416 C129.205606,127.273727 130.499357,127.601109 131.66,127.190416 L131.66,127.190416 Z" id="路径" fill="#E39972" fill-rule="nonzero"></path>
            <path d="M160.59,181.000416 C161.35,184.020416 161.986667,187.163749 162.5,190.430416 C166.28,214.930416 160.55,236.510416 153.82,252.340416 L147.75,252.340416 C148.7,245.140416 149.38,237.430416 149.66,229.240416 C150.177028,213.997035 149.249556,198.738942 146.89,183.670416 L160.59,181.000416 Z" id="路径" fill="url(#linearGradient-24)" fill-rule="nonzero"></path>
            <path d="M152.78,184.090416 C152.26,187.597083 151.623333,191.177083 150.87,194.830416 C146.585546,215.167721 139.163476,234.714755 128.87,252.770416 L122.79,252.770416 C124.61,245.957083 126.346667,238.957083 128,231.770416 C131.7,215.590416 134.53,200.030416 136.67,185.200416 L152.78,184.090416 Z" id="路径" fill="url(#linearGradient-25)" fill-rule="nonzero"></path>
            <path d="M140.26,141.300416 C140.26,139.460416 145.33,131.170416 145.56,129.790416 C145.69,128.970416 133.07,127.990416 131.05,127.480416 C130.13,127.250416 130.32,122.690416 131.74,122.650416 C139.11,122.420416 156.06,122.910416 156.61,123.800416 C157.5,125.220416 146.38,149.210416 147.4,150.280416 C157.3,160.650416 160.4,176.390416 162.4,188.280416 C160.28,189.000416 156.77,189.200416 154.26,189.740416 C147.562277,191.235511 140.695085,191.830758 133.84,191.510416 C133.73,190.010416 134.19,187.510416 134.07,185.980416 C127.83,172.910416 126.73,170.720416 120.48,157.650416 C121.2,157.170416 92.48,152.210416 92.85,150.050416 C93.22,147.890416 105.74,135.540416 109.85,132.550416 C110.06,132.390416 115.07,133.820416 113.3,136.230416 C110.77,139.690416 105.24,145.450416 105.24,145.450416 C105.24,145.450416 124.32,145.580416 125.08,145.260416 C131.58,142.520416 136,141.530416 140.26,141.300416 Z" id="路径" fill="url(#linearGradient-26)" fill-rule="nonzero"></path>
            <path d="M129.71,136.940416 L131.63,142.620416 C131.881298,143.40384 132.0489,144.211681 132.13,145.030416 C132.258264,146.244946 132.204336,147.471825 131.97,148.670416 C130.900551,148.627174 129.84739,148.393514 128.86,147.980416 C127.503309,147.39828 126.276115,146.551822 125.25,145.490416 C124.583333,143.450416 123.916667,141.403749 123.25,139.350416 L129.71,136.940416 Z" id="路径" fill="#DBA491" fill-rule="nonzero"></path>
            <path d="M128.32,140.330416 C129.13372,139.877755 129.856032,139.277524 130.45,138.560416 C131.362125,137.436556 131.937627,136.077539 132.11,134.640416 C131.983869,133.353026 131.624693,132.0993 131.05,130.940416 C130.59,130.160416 128.41,126.610416 128.38,126.460416 C128.23,125.700416 127.58,124.330416 125.38,121.650416 C124.099457,121.676233 122.826796,121.857562 121.59,122.190416 C118.807884,122.951404 116.271525,124.422906 114.23,126.460416 C115.039468,129.578669 116.193226,132.597223 117.67,135.460416 C118.389471,136.834297 119.180559,138.169467 120.04,139.460416 C121.508424,140.359106 123.188815,140.852527 124.91,140.890416 C126.071425,140.914931 127.227416,140.725091 128.32,140.330416 L128.32,140.330416 Z" id="路径" fill="#EFBA9E" fill-rule="nonzero"></path>
            <path d="M116.31,131.890416 C115.71,131.730416 114.78,131.790416 114.49,132.290416 C113.99,133.130416 115.24,135.370416 117.05,135.780416 C117.612207,135.906818 118.198922,135.86863 118.74,135.670416 C118.709819,134.639436 118.32482,133.650447 117.65,132.870416 C117.321372,132.407133 116.851088,132.063194 116.31,131.890416 Z" id="路径" fill="#E39972" fill-rule="nonzero"></path>
            <path d="M113.39,136.000416 L110.56,135.110416 C110.196611,134.080308 109.886205,133.03227 109.63,131.970416 C109.21768,130.232924 108.956704,128.46297 108.85,126.680416 C109.446663,126.057398 110.088398,125.479167 110.77,124.950416 C111.56,124.320416 112.03,124.060416 112.56,124.120416 C112.56,124.120416 113.17,124.200416 113.26,124.510416 C113.35,124.820416 112.96,125.000416 112.7,125.460416 C112.461205,125.925401 112.370473,126.452343 112.44,126.970416 L113.64,130.810416 C114.422389,131.313904 114.942178,132.137512 115.06,133.060416 C115.147194,134.287528 114.488644,135.446892 113.39,136.000416 Z" id="路径" fill="#E39972" fill-rule="nonzero"></path>
            <path d="M120,119.880416 C120,119.880416 125.46,120.110416 127.37,122.980416 C129.29,124.890416 129.29,126.100416 127.37,126.100416 C125.45,126.100416 123.89,123.860416 120.92,125.640416 C119.77,126.330416 119.03,127.560416 118.62,129.560416 C118.25,131.350416 118.91,132.910416 118.16,133.700416 C117.41,134.490416 115.08,132.850416 114.48,132.550416 C113.27,131.950416 112.86,124.950416 114.94,122.980416 C116.497612,121.74986 118.196242,120.709198 120,119.880416 L120,119.880416 Z" id="路径" fill="#131322" fill-rule="nonzero"></path>
            <path d="M148.4,250.900416 C147.95,250.900416 147.53,251.620416 147.7,253.300416 C147.87,254.980416 147.62,255.910416 149.03,255.950416 C150.24,255.950416 158.22,255.460416 160.43,255.330416 C161.19,255.330416 160.96,254.530416 160.92,254.330416 C160.74,253.520416 160.07,252.330416 157.64,252.210416 C155.86,252.000416 154.04,250.410416 153.25,250.450416 C152.46,250.490416 152.16,251.260416 150.89,251.260416 C150.05403,251.186135 149.222776,251.065953 148.4,250.900416 L148.4,250.900416 Z" id="路径" fill="#000000" fill-rule="nonzero"></path>
            <path d="M123.53,251.600416 C123.07,251.600416 122.66,252.310416 122.82,253.990416 C122.98,255.670416 122.75,256.600416 124.16,256.640416 C125.36,256.640416 133.35,256.150416 135.56,256.030416 C136.31,256.030416 136.08,255.230416 136.04,255.030416 C135.86,254.220416 135.19,253.030416 132.77,252.910416 C130.98,252.700416 129.17,251.110416 128.38,251.150416 C127.59,251.190416 127.29,251.960416 126.02,251.960416 C124.75,251.960416 124.32,251.600416 123.53,251.600416 Z" id="路径" fill="#000000" fill-rule="nonzero"></path>
            <path d="M66.79,135.600416 L66,135.600416 C66,135.450416 66,135.300416 66,135.140416 C66,131.567134 63.1032823,128.670416 59.53,128.670416 C55.9567177,128.670416 53.06,131.567134 53.06,135.140416 C53.0497366,135.293578 53.0497366,135.447254 53.06,135.600416 L52.06,135.600416 C50.4615799,135.523623 48.9505925,136.332664 48.1283873,137.705552 C47.306182,139.07844 47.306182,140.792392 48.1283873,142.16528 C48.9505925,143.538169 50.4615799,144.347209 52.06,144.270416 L66.79,144.270416 C68.3884201,144.347209 69.8994075,143.538169 70.7216127,142.16528 C71.543818,140.792392 71.543818,139.07844 70.7216127,137.705552 C69.8994075,136.332664 68.3884201,135.523623 66.79,135.600416 L66.79,135.600416 Z" id="路径" fill="url(#linearGradient-27)" fill-rule="nonzero"></path>
            <path d="M153.65,28.000416 L153.17,28.000416 C153.175345,27.9138318 153.175345,27.8270003 153.17,27.740416 C153.17,25.6969625 151.513454,24.040416 149.47,24.040416 C147.426546,24.040416 145.77,25.6969625 145.77,27.740416 C145.77,27.830416 145.77,27.920416 145.77,28.000416 L145.23,28.000416 C143.849288,28.000416 142.73,29.1197042 142.73,30.500416 C142.73,31.8811279 143.849288,33.000416 145.23,33.000416 L153.62,33.000416 C155.000712,33.000416 156.12,31.8811279 156.12,30.500416 C156.12,29.1197042 155.000712,28.000416 153.62,28.000416 L153.65,28.000416 Z" id="路径" fill="url(#linearGradient-28)" fill-rule="nonzero"></path>
            <path d="M304,79.630416 L302.64,79.630416 C302.64,79.380416 302.64,79.130416 302.64,78.870416 C302.464273,73.1565748 297.781543,68.6156467 292.065,68.6156467 C286.348457,68.6156467 281.665727,73.1565748 281.49,78.870416 C281.49,79.130416 281.49,79.380416 281.49,79.630416 L279.94,79.630416 C276.029824,79.630416 272.86,82.80024 272.86,86.710416 C272.86,90.6205921 276.029824,93.790416 279.94,93.790416 L303.94,93.790416 C307.850176,93.790416 311.02,90.6205921 311.02,86.710416 C311.02,82.80024 307.850176,79.630416 303.94,79.630416 L304,79.630416 Z" id="路径" fill="url(#linearGradient-29)" fill-rule="nonzero"></path>
        </g>
    </g>
</svg>