<?xml version="1.0" encoding="UTF-8"?>
<svg width="400px" height="300px" viewBox="0 0 400 300" version="1.1" xmlns="http://www.w3.org/2000/svg" xmlns:xlink="http://www.w3.org/1999/xlink">
    <title>画板</title>
    <defs>
        <linearGradient x1="-0.00821089158%" y1="49.9223602%" x2="99.9958934%" y2="49.9223602%" id="linearGradient-1">
            <stop stop-color="#F9E7A8" offset="0%"></stop>
            <stop stop-color="#F5A623" offset="100%"></stop>
        </linearGradient>
        <linearGradient x1="31.2008091%" y1="59.1195351%" x2="66.5087063%" y2="36.8755613%" id="linearGradient-2">
            <stop stop-color="#C6DFFE" offset="0%"></stop>
            <stop stop-color="#72B1FE" offset="100%"></stop>
        </linearGradient>
        <linearGradient x1="-0.00816792338%" y1="49.9928234%" x2="99.9822704%" y2="49.9928234%" id="linearGradient-3">
            <stop stop-color="#C6DFFE" offset="0%"></stop>
            <stop stop-color="#72B1FE" offset="100%"></stop>
        </linearGradient>
        <linearGradient x1="-0.0226459219%" y1="50.0002851%" x2="100.143552%" y2="50.0002851%" id="linearGradient-4">
            <stop stop-color="#C6DFFE" offset="0%"></stop>
            <stop stop-color="#72B1FE" offset="100%"></stop>
        </linearGradient>
        <linearGradient x1="-422.13457%" y1="-198.345989%" x2="-316.978609%" y2="-198.345989%" id="linearGradient-5">
            <stop stop-color="#C6DFFE" offset="0%"></stop>
            <stop stop-color="#72B1FE" offset="100%"></stop>
        </linearGradient>
        <linearGradient x1="-0.0548265901%" y1="50.0076576%" x2="99.9765458%" y2="50.0076576%" id="linearGradient-6">
            <stop stop-color="#C6DFFE" offset="0%"></stop>
            <stop stop-color="#72B1FE" offset="100%"></stop>
        </linearGradient>
        <linearGradient x1="0.0781361852%" y1="50.2588997%" x2="100.014317%" y2="50.2588997%" id="linearGradient-7">
            <stop stop-color="#C6DFFE" offset="0%"></stop>
            <stop stop-color="#72B1FE" offset="100%"></stop>
        </linearGradient>
        <linearGradient x1="0.0103263685%" y1="49.9638039%" x2="99.8372433%" y2="49.9638039%" id="linearGradient-8">
            <stop stop-color="#C6DFFE" offset="0%"></stop>
            <stop stop-color="#72B1FE" offset="100%"></stop>
        </linearGradient>
        <linearGradient x1="0%" y1="49.8768386%" x2="99.9865481%" y2="49.8768386%" id="linearGradient-9">
            <stop stop-color="#C6DFFE" offset="0%"></stop>
            <stop stop-color="#72B1FE" offset="100%"></stop>
        </linearGradient>
        <linearGradient x1="0.00374851787%" y1="50.0000273%" x2="99.9963438%" y2="50.0000273%" id="linearGradient-10">
            <stop stop-color="#C6DFFE" offset="0%"></stop>
            <stop stop-color="#72B1FE" offset="100%"></stop>
        </linearGradient>
        <linearGradient x1="6.46682808e-13%" y1="50%" x2="100%" y2="50%" id="linearGradient-11">
            <stop stop-color="#C6DFFE" offset="0%"></stop>
            <stop stop-color="#72B1FE" offset="100%"></stop>
        </linearGradient>
        <linearGradient x1="0.0108485001%" y1="49.9609761%" x2="100.008471%" y2="49.9609761%" id="linearGradient-12">
            <stop stop-color="#C6DFFE" offset="0%"></stop>
            <stop stop-color="#72B1FE" offset="100%"></stop>
        </linearGradient>
        <linearGradient x1="0%" y1="50%" x2="100%" y2="50%" id="linearGradient-13">
            <stop stop-color="#F9E7A8" offset="0%"></stop>
            <stop stop-color="#F5A623" offset="100%"></stop>
        </linearGradient>
        <linearGradient x1="85.5635343%" y1="103.143988%" x2="22.5936109%" y2="7.46373813%" id="linearGradient-14">
            <stop stop-color="#C6DFFE" offset="0%"></stop>
            <stop stop-color="#72B1FE" offset="100%"></stop>
        </linearGradient>
        <linearGradient x1="35.7119774%" y1="79.7224183%" x2="63.7221929%" y2="17.6664314%" id="linearGradient-15">
            <stop stop-color="#1A1114" offset="0%"></stop>
            <stop stop-color="#30231E" offset="25%"></stop>
            <stop stop-color="#4A372A" offset="50%"></stop>
            <stop stop-color="#5A372A" offset="59%"></stop>
            <stop stop-color="#60372A" offset="66%"></stop>
            <stop stop-color="#98372A" offset="98%"></stop>
        </linearGradient>
        <linearGradient x1="-0.0107654215%" y1="50.0547447%" x2="100.010765%" y2="50.0547447%" id="linearGradient-16">
            <stop stop-color="#F3835D" offset="0%"></stop>
            <stop stop-color="#FFC644" offset="100%"></stop>
        </linearGradient>
        <linearGradient x1="0%" y1="50.0866551%" x2="100%" y2="50.0866551%" id="linearGradient-17">
            <stop stop-color="#EAF2FD" offset="0%"></stop>
            <stop stop-color="#C4DFFD" offset="100%"></stop>
        </linearGradient>
        <linearGradient x1="-1.23144322e-13%" y1="49.9133449%" x2="100%" y2="49.9133449%" id="linearGradient-18">
            <stop stop-color="#EAF2FD" offset="0%"></stop>
            <stop stop-color="#C4DFFD" offset="100%"></stop>
        </linearGradient>
        <linearGradient x1="0%" y1="50%" x2="100%" y2="50%" id="linearGradient-19">
            <stop stop-color="#EAF2FD" offset="0%"></stop>
            <stop stop-color="#C4DFFD" offset="100%"></stop>
        </linearGradient>
        <linearGradient x1="0.027005131%" y1="50%" x2="100%" y2="50%" id="linearGradient-20">
            <stop stop-color="#EAF2FD" offset="0%"></stop>
            <stop stop-color="#C4DFFD" offset="100%"></stop>
        </linearGradient>
        <linearGradient x1="-0.0650195059%" y1="49.8701299%" x2="99.9349805%" y2="49.8701299%" id="linearGradient-21">
            <stop stop-color="#EAF2FD" offset="0%"></stop>
            <stop stop-color="#C4DFFD" offset="100%"></stop>
        </linearGradient>
        <linearGradient x1="-0.0650195059%" y1="50.1298701%" x2="100%" y2="50.1298701%" id="linearGradient-22">
            <stop stop-color="#EAF2FD" offset="0%"></stop>
            <stop stop-color="#C4DFFD" offset="100%"></stop>
        </linearGradient>
        <linearGradient x1="0.160824201%" y1="49.7727168%" x2="100.222407%" y2="49.7727168%" id="linearGradient-23">
            <stop stop-color="#C6DFFE" offset="0%"></stop>
            <stop stop-color="#72B1FE" offset="100%"></stop>
        </linearGradient>
        <linearGradient x1="-0.188963279%" y1="50.163283%" x2="99.8094059%" y2="50.163283%" id="linearGradient-24">
            <stop stop-color="#C6DFFE" offset="0%"></stop>
            <stop stop-color="#72B1FE" offset="100%"></stop>
        </linearGradient>
    </defs>
    <g id="画板" stroke="none" stroke-width="1" fill="none" fill-rule="evenodd">
        <g id="资源-1" transform="translate(16.000000, 1.000000)">
            <path d="M185.68,0 C152.588744,-0.0768105047 120.368128,10.5990541 93.87,30.420416 L104.12,30.420416 C106.451253,30.420416 108.687024,31.3465027 110.335469,32.9949474 C111.983913,34.6433922 112.91,36.8791631 112.91,39.210416 L112.91,39.210416 L112.91,39.890416 C112.91,44.744999 108.974583,48.680416 104.12,48.680416 L73.58,48.680416 C67.7772753,54.9277597 62.5181997,61.6588412 57.86,68.800416 L43.35,68.800416 C38.1237691,68.8059348 33.8899971,73.0441822 33.89,78.270416 L33.89,78.800416 C33.8866193,83.0171095 36.6773219,86.7258064 40.73,87.890416 L54.09,87.890416 C60.0634359,87.8959291 64.9044869,92.7369801 64.91,98.710416 L64.91,98.710416 L64.91,102.090416 C64.91,108.066137 60.065721,112.910416 54.09,112.910416 L8.18,112.910416 C3.37206252,114.120077 0,118.44264 0,123.400416 L0,124.000416 C0,129.976137 4.84427901,134.820416 10.82,134.820416 L34.6,134.820416 C34.1333333,139.633749 33.8966667,144.500416 33.89,149.420416 C33.89,231.940416 101.89,298.840416 185.68,298.840416 C252.74,298.840416 309.68,256.040416 329.73,196.680416 L335.42,196.680416 C337.41268,196.666371 339.118372,195.247634 339.495144,193.290848 C339.871917,191.334061 338.814992,189.383392 336.97,188.630416 L329.97,188.630416 C325.11932,188.630419 321.185518,184.701093 321.18,179.850416 L321.18,179.850416 L321.18,179.170416 C321.18,174.315833 325.115417,170.380416 329.97,170.380416 L336,170.380416 L336,170.270416 L351,170.270416 C354.838379,170.270416 357.95,167.158795 357.95,163.320416 C357.95,159.482037 354.838379,156.370416 351,156.370416 L337.31,156.370416 C337.423333,154.070416 337.476667,151.737083 337.47,149.370416 C337.491021,128.029098 332.860213,106.939641 323.9,87.570416 L348.2,87.570416 C358.652464,87.5648988 367.124483,79.0928802 367.13,68.640416 L367.13,67.580416 C367.13,57.5485328 359.305239,49.2580575 349.29,48.680416 L263.68,48.680416 C259.946555,48.680416 256.92,45.653861 256.92,41.920416 C256.92,38.1869711 259.946555,35.160416 263.68,35.160416 L283.5,35.160416 L283,34.750416 L292.86,34.750416 C296.267113,34.7504171 299.534534,33.3962626 301.942788,30.9861323 C304.351043,28.5760019 305.702654,25.3075281 305.7,21.900416 L305.7,21.190416 C305.702654,17.783304 304.351043,14.5148302 301.942788,12.1046998 C299.534534,9.69456947 296.267113,8.34041501 292.86,8.34041604 L235.81,8.34041604 C219.677935,2.80040978 202.736812,-0.0180415623 185.68,0 Z" id="背景" fill="#EDF0F4" opacity="0.35"></path>
            <path d="M182,233.000416 C216.36,233.000416 247.3,235.800416 268.93,240.280416 C290.08,240.420416 307.12,246.760416 307.12,254.550416 C307.12,260.730416 296.42,265.990416 281.45,267.980416 C277.87,269.040416 273.85,270.030416 269.45,270.980416 C269.561511,271.570597 269.618419,272.169795 269.62,272.770416 C269.62,286.370416 240.04,297.400416 203.56,297.400416 C170.74,297.400416 143.56,288.470416 138.37,276.770416 C94.58,273.450416 63.6099943,265.260416 63.6099943,255.690416 C63.59,243.110416 116.6,233.000416 182,233.000416 Z" id="形状结合" fill="url(#linearGradient-1)" opacity="0.27"></path>
            <path d="M93.25,262.820416 C99.31,259.960416 109.81,250.820416 103.08,234.600416 C96.73,218.170416 86.23,227.280416 82.93,216.350416 C79.63,205.420416 80.07,202.430416 71.19,198.290416 C62.31,194.150416 67.27,190.000416 60.83,185.140416 C54.39,180.280416 50.83,179.660416 46.31,181.800416 C41.79,183.940416 49.52,196.470416 45.31,201.240416 C41.1,206.010416 40.84,207.500416 48,214.780416 C55.16,222.060416 57.93,222.120416 55.53,228.780416 C53.13,235.440416 55.53,237.580416 60.01,237.310416 C64.49,237.040416 71.43,237.020416 68.78,246.120416 C66.13,255.220416 67.18,258.440416 75.91,261.260416 C84.64,264.080416 84.91,266.720416 93.28,262.800416 L93.25,262.820416 Z" id="路径" fill="url(#linearGradient-2)" fill-rule="nonzero"></path>
            <path d="M96.68,260.280416 C96.5792369,260.328286 96.4635691,260.334102 96.3585122,260.296582 C96.2534553,260.259062 96.1676412,260.181287 96.12,260.080416 L58.5,204.730416 C58.32,204.350416 58.32,204.350416 58.7,204.180416 C59.08,204.010416 59.08,204.000416 59.26,204.380416 L96.88,259.720416 C97.06,260.100416 97.06,260.100416 96.68,260.280416 Z" id="路径" fill="url(#linearGradient-3)" fill-rule="nonzero"></path>
            <path d="M72.09,223.770416 C71.71,223.940416 71.53,223.570416 71.35,223.190416 L72.44,208.800416 C72.44,208.800416 72.64,208.250416 72.82,208.630416 C72.82,208.630416 73.37,208.830416 73,209.000416 L72.09,223.770416 L72.09,223.770416 Z M78.23,232.890416 L66.81,233.190416 C66.7106964,233.237896 66.5964723,233.243453 66.4930287,233.205837 C66.3895851,233.168221 66.3056106,233.090592 66.26,232.990416 C66.2092599,232.890096 66.2019392,232.773342 66.2397507,232.66747 C66.2775623,232.561598 66.3571885,232.475896 66.46,232.430416 L77.46,232.310416 C78.22,231.960416 78.39,232.310416 78.19,232.890416 L78.23,232.890416 Z M86.92,245.450416 L86.92,245.450416 C86.54,245.630416 86.37,245.250416 86.19,244.870416 L87.85,229.750416 C87.85,229.750416 88.05,229.190416 88.23,229.570416 C88.23,229.570416 88.79,229.770416 88.41,229.950416 L86.92,245.450416 Z M92,253.240416 L76.26,253.240416 C75.88,253.410416 75.7,253.040416 76.08,252.860416 C75.9,252.480416 76.28,252.300416 76.46,252.680416 L91.8,252.850416 C92.18,252.670416 92.18,252.670416 91.98,253.230416 L92,253.240416 Z" id="形状" fill="url(#linearGradient-4)" fill-rule="nonzero"></path>
            <path d="M102.33,258.540416 C107.63,256.040416 110.44,256.110416 110.24,248.810416 C109.83,242.060416 114.95,239.190416 111.68,235.180416 C108.41,231.170416 105.18,233.180416 105.98,223.070416 C106.78,212.960416 101.07,208.730416 97.73,207.530416 C94.39,206.330416 92.73,203.850416 89.73,198.360416 C86.73,192.870416 81.36,196.290416 80.92,199.270416 C80.48,202.250416 84.04,209.820416 81.68,214.630416 C79.32,219.440416 83.91,223.300416 87.78,225.630416 C91.65,227.960416 89.3,232.780416 87.16,236.100416 C85.16,239.790416 80.4,245.300416 84.07,248.190416 C87.74,251.080416 93.65,262.640416 102.35,258.540416 L102.33,258.540416 Z" id="路径" fill="url(#linearGradient-5)" fill-rule="nonzero"></path>
            <path d="M103.09,258.180416 C102.98968,258.231156 102.872926,258.238477 102.767054,258.200665 C102.661182,258.162854 102.57548,258.083228 102.53,257.980416 L92.66,216.390416 C92.6092599,216.290096 92.6019392,216.173342 92.6397507,216.06747 C92.6775623,215.961598 92.7571885,215.875896 92.86,215.830416 C92.9607631,215.782546 93.0764309,215.77673 93.1814878,215.81425 C93.2865447,215.851771 93.3723588,215.929545 93.42,216.030416 L103.09,258.180416 C103.29,257.620416 103.47,258.000416 103.09,258.180416 Z" id="路径" fill="url(#linearGradient-6)" fill-rule="nonzero"></path>
            <path d="M97.34,232.220416 L97.34,232.220416 C96.78,232.020416 96.78,232.020416 96.6,231.640416 L100.83,219.000416 L101.21,218.820416 L101.39,219.200416 L97.39,232.200416 L97.34,232.220416 Z M101.42,249.720416 L101.42,249.720416 L89,244.000416 L88.83,243.620416 L89.2,243.440416 L101.2,249.340416 C101.62,249.160416 101.8,249.540416 101.42,249.720416 Z" id="形状" fill="url(#linearGradient-7)" fill-rule="nonzero"></path>
            <path d="M128.27,266.560416 C129.683782,266.521943 130.997642,265.822497 131.818946,264.671098 C132.640251,263.519699 132.873874,262.049709 132.45,260.700416 C131.62,257.350416 130.36,259.030416 129.94,261.540416 C129.52,264.050416 130.36,260.280416 127.85,259.450416 C125.34,259.030416 127.85,263.630416 127.01,264.450416 C125.76,264.860416 124.09,260.260416 122.41,262.350416 C120.73,264.440416 124.5,266.540416 128.27,266.540416 L128.27,266.560416 Z" id="路径" fill="url(#linearGradient-8)" fill-rule="nonzero"></path>
            <path d="M298.76,247.210416 C294.57,247.210416 289.97,242.210416 289.55,238.840416 C289.55,235.080416 294.15,235.500416 294.15,233.840416 C294.15,232.180416 291.23,232.170416 291.64,230.910416 C292.05,229.650416 294.57,229.240416 294.15,228.400416 C293.73,227.560416 290.81,228.820416 291.64,226.730416 C292.48,224.220416 294.15,225.480416 292.9,222.550416 C291.65,219.620416 295.41,222.550416 294.15,220.040416 C292.9,217.110416 291.64,215.040416 294.15,213.760416 C296.66,212.480416 296.25,222.130416 297.08,221.290416 C298.34,220.870416 300.01,220.040416 300.43,222.970416 C300.85,225.900416 298.76,226.730416 302.52,227.150416 C305.87,227.570416 301.27,232.590416 303.78,233.840416 C306.29,235.090416 309.63,238.440416 306.7,241.840416 C304.19,244.770416 302.52,247.280416 298.76,247.280416 L298.76,247.210416 Z" id="路径" fill="url(#linearGradient-9)" fill-rule="nonzero"></path>
            <path d="M298.76,247.210541 C298.870494,247.210541 298.976323,247.165883 299.053507,247.086816 C299.130691,247.00775 299.172695,246.900877 299.17,246.790416 L296.66,223.790416 C296.665609,223.679149 296.62456,223.570584 296.546737,223.490863 C296.468914,223.411142 296.36137,223.36749 296.25,223.370278 C296.137782,223.367644 296.029335,223.411003 295.949961,223.490377 C295.870587,223.569751 295.827228,223.678198 295.83,223.790416 L298.34,246.790416 C298.337228,246.902634 298.380587,247.011081 298.459961,247.090455 C298.539335,247.169829 298.647782,247.213188 298.76,247.210541 L298.76,247.210541 Z" id="路径" fill="url(#linearGradient-10)" fill-rule="nonzero"></path>
            <path d="M298.34,243.440416 L298.34,243.440416 C298.76,243.030416 298.76,243.030416 298.76,242.610416 L292.9,238.000416 L292.48,238.000416 L292.48,238.410416 L298.34,243.440416 Z M297.5,235.080416 L297.5,235.080416 L301.27,229.640416 L301.27,229.220416 L300.85,229.220416 L297.08,234.660416 L297.5,235.080416 Z" id="形状" fill="url(#linearGradient-11)" fill-rule="nonzero"></path>
            <path d="M279.93,246.790416 C279.93,246.790416 281.6,248.050416 285.79,245.950416 C289.97,243.440416 289.13,241.350416 287.04,242.190416 C284.95,243.030416 281.19,247.630416 280.35,246.370416 C279.51,245.110416 282.86,242.610416 280.77,240.100416 C278.68,237.590416 279.93,243.030416 279.09,243.030416 C278.68,243.030416 277.84,240.100416 277,241.350416 C276.16,242.600416 278.26,246.350416 278.68,246.790416 C279.51,247.210416 278.26,247.210416 276.16,246.370416 C274.07,245.120416 273.65,247.630416 275.75,248.460416 C277.85,249.290416 279.93,246.790416 279.93,246.790416 L279.93,246.790416 Z" id="路径" fill="url(#linearGradient-12)" fill-rule="nonzero"></path>
            <ellipse id="椭圆形" fill="url(#linearGradient-13)" fill-rule="nonzero" opacity="0.41" cx="222.94" cy="276.450416" rx="35.81" ry="6.13"></ellipse>
            <path d="M258,225.540416 L219.34,186.880416 C245.987781,158.652714 246.342064,114.64644 220.152215,85.9933572 C193.962366,57.3402739 150.101521,53.7480627 119.598562,77.7579946 C89.0956023,101.767926 82.2849483,145.245423 103.984723,177.432798 C125.684499,209.620173 168.542806,219.612326 202.24,200.340416 L242.72,240.820416 C246.939455,245.039872 253.780545,245.039872 258,240.820416 C262.219455,236.600961 262.219455,229.759872 258,225.540416 Z M114.739999,136.000416 C114.739999,115.481136 127.10105,96.9825052 146.05878,89.1310514 C165.016509,81.2795976 186.837171,85.6216742 201.345063,100.132426 C215.852954,114.643178 220.190729,136.464695 212.335538,155.420877 C204.480347,174.377058 185.979279,186.734461 165.46,186.730417 C152.006487,186.730417 139.104141,181.385345 129.592008,171.871337 C120.079875,162.357329 114.737347,149.453929 114.739999,136.000416 Z" id="形状" fill="url(#linearGradient-14)" fill-rule="nonzero"></path>
            <path d="M176.75,141.600416 C175.98,142.400416 176.75,148.010416 176.75,148.010416 L182.88,152.810416 L184.42,151.210416 C184.42,151.210416 184.42,144.810416 183.65,144.000416 C183.24,143.570416 183.38,145.210416 182.88,146.410416 C182.54685,147.088522 182.012534,147.647283 181.35,148.010416 L178.9,146.010416 C178.9,146.010416 177.52,140.800416 176.75,141.600416 Z" id="路径" fill="#EFBA9E" fill-rule="nonzero"></path>
            <path d="M278.55,159.650416 C279.32,160.450416 278.99,165.440416 278.55,166.050416 C278.11,166.660416 272.22,170.600416 272.22,170.600416 L270.88,169.260416 C270.88,169.260416 270.88,162.850416 271.65,162.050416 C272.06,161.620416 271.92,163.250416 272.42,164.450416 C272.75315,165.128522 273.287466,165.687283 273.95,166.050416 C273.95,166.050416 275.87,164.590416 276.4,164.050416 C276.93,163.510416 277.78,158.840416 278.55,159.650416 Z" id="路径" fill="#EFBA9E" fill-rule="nonzero"></path>
            <path d="M227.67,138.790416 L227.67,145.200416 C228.425418,146.207639 229.610971,146.800416 230.87,146.800416 C232.129029,146.800416 233.314582,146.207639 234.07,145.200416 L234.07,138.790416 L227.67,138.790416 Z" id="路径" fill="#E2AD96" fill-rule="nonzero"></path>
            <path d="M224,122.000416 C224,122.000416 222.27,131.650416 223.58,135.000416 C224.89,138.350416 228.74,140.310416 229.7,140.720416 C230.66,141.130416 236.44,140.340416 237.76,138.720416 C239.08,137.100416 241.13,127.000416 241.13,127.000416 L234.55,117.000416 L224,122.000416 Z" id="路径" fill="#EFBA9E" fill-rule="nonzero"></path>
            <path d="M209.26,188.450416 L209.39,271.900416 L215.28,272.690416 C215.28,272.690416 224.7,208.290416 226.67,208.290416 C228.64,208.290416 235.41,273.470416 235.41,273.470416 L240.21,273.470416 C240.21,273.470416 246.1,198.060416 242.9,194.850416 C239.7,191.640416 209.26,188.450416 209.26,188.450416 Z" id="路径" fill="url(#linearGradient-15)" fill-rule="nonzero"></path>
            <path d="M232.13,113.760416 C228.179708,113.835887 224.446994,115.58412 221.86,118.570416 C220.13,120.760416 220.26,123.380416 223.46,123.380416 C226.66,123.380416 229.87,121.770416 233.07,121.770416 C236.27,121.770416 239.92,131.370416 243.13,129.770416 C245.13,128.770416 244.28,121.770416 242.68,118.580416 C241.08,115.390416 236.58,113.760416 232.13,113.760416 Z" id="路径" fill="#131322" fill-rule="nonzero"></path>
            <path d="M235.49,273.000416 C234.99,273.000416 234.49,273.780416 234.71,275.630416 C234.93,277.480416 234.63,278.510416 236.18,278.550416 C237.51,278.600416 246.31,278.010416 248.74,277.880416 C249.57,277.880416 249.32,276.990416 249.27,276.790416 C249.08,275.900416 248.34,274.570416 245.67,274.460416 C243.67,274.220416 241.67,272.460416 240.83,272.520416 C239.99,272.580416 239.63,273.410416 238.24,273.410416 C236.85,273.410416 236.36,273.000416 235.49,273.000416 Z" id="路径" fill="#000000" fill-rule="nonzero"></path>
            <path d="M215.15,271.450416 C215.65,271.450416 216.15,272.230416 215.93,274.080416 C215.71,275.930416 216,277.000416 214.46,277.000416 C213.13,277.000416 204.33,276.460416 201.9,276.330416 C201.07,276.280416 201.32,275.440416 201.37,275.240416 C201.57,274.350416 202.31,273.020416 204.97,272.910416 C206.97,272.670416 208.97,270.910416 209.81,270.970416 C210.65,271.030416 211.01,271.860416 212.41,271.860416 C213.81,271.860416 214.28,271.450416 215.15,271.450416 Z" id="路径" fill="#000000" fill-rule="nonzero"></path>
            <path d="M218.86,144.400416 C222.86,141.990416 238.86,143.600416 242.08,145.200416 C245.3,146.800416 253.29,161.200416 254.9,167.620416 C256.51,174.040416 262.9,172.430416 262.9,172.430416 L270.9,167.620416 L274.11,169.220416 L259.7,182.000416 L253.29,182.000416 L240.48,172.390416 L245.28,196.390416 L206.84,193.180416 L214.84,170.760416 L198.84,178.760416 L181.22,151.530416 L184.43,148.320416 L202.85,165.140416 C202.85,165.140416 214.85,146.800416 218.86,144.400416 Z" id="路径" fill="url(#linearGradient-16)" fill-rule="nonzero"></path>
            <rect id="矩形" fill="url(#linearGradient-17)" fill-rule="nonzero" transform="translate(91.129822, 79.267876) rotate(45.000000) translate(-91.129822, -79.267876) " x="79.589822" y="76.382876" width="23.08" height="5.77" rx="2.5"></rect>
            <rect id="矩形" fill="url(#linearGradient-18)" fill-rule="nonzero" transform="translate(91.122540, 79.270238) rotate(135.000000) translate(-91.122540, -79.270238) " x="79.58254" y="76.385238" width="23.08" height="5.77" rx="2.5"></rect>
            <rect id="矩形" fill="url(#linearGradient-19)" fill-rule="nonzero" transform="translate(280.123039, 78.263951) rotate(45.000000) translate(-280.123039, -78.263951) " x="261.608039" y="73.6339509" width="37.03" height="9.26" rx="2.5"></rect>
            <rect id="矩形" fill="url(#linearGradient-20)" fill-rule="nonzero" transform="translate(280.126465, 78.263455) rotate(135.000000) translate(-280.126465, -78.263455) " x="261.611465" y="73.6334554" width="37.03" height="9.26" rx="2.5"></rect>
            <rect id="矩形" fill="url(#linearGradient-21)" fill-rule="nonzero" transform="translate(162.125024, 17.271837) rotate(45.000000) translate(-162.125024, -17.271837) " x="154.435024" y="15.3468371" width="15.38" height="3.85" rx="1.54"></rect>
            <rect id="矩形" fill="url(#linearGradient-22)" fill-rule="nonzero" transform="translate(162.128579, 17.265440) rotate(135.000000) translate(-162.128579, -17.265440) " x="154.438579" y="15.3404399" width="15.38" height="3.85" rx="1.54"></rect>
            <path d="M252.82,126.170416 C252.949314,126.498199 252.919782,126.86736 252.74,127.170416 C252.586946,127.480355 252.311465,127.712339 251.98,127.810416 C251.645215,127.907191 251.285744,127.86765 250.98,127.700416 C250.667771,127.547594 250.432552,127.272567 250.33,126.940416 C250.141742,126.274598 250.499566,125.576404 251.15,125.340416 C251.485412,125.238414 251.848243,125.281954 252.15,125.460416 C252.464598,125.590369 252.708487,125.848819 252.82,126.170416 L252.82,126.170416 Z M262.55,114.460416 C263.231636,116.767846 262.144492,119.229781 259.98,120.280416 C259.110123,120.612772 258.217915,120.883442 257.31,121.090416 C256.682386,121.224863 256.081072,121.461335 255.53,121.790416 C254.942357,122.144013 254.467251,122.657267 254.16,123.270416 L253.82,123.920416 L252.45,123.210416 L252.79,122.560416 C253.100704,121.93227 253.556631,121.387213 254.12,120.970416 C255.13255,120.298819 256.267494,119.833288 257.46,119.600416 C258.21,119.360416 258.76,119.190416 259.05,119.060416 C259.777288,118.7545 260.379875,118.211819 260.76,117.520416 C261.236461,116.697537 261.365985,115.718913 261.12,114.800416 C260.770013,113.846062 260.04853,113.074076 259.12,112.660416 C258.10507,112.041815 256.848366,111.970539 255.77,112.470416 C254.77403,112.979108 253.98061,113.811317 253.52,114.830416 L252.17,114.130416 C252.817951,112.778961 253.938563,111.711711 255.32,111.130416 C256.801911,110.57406 258.455901,110.717406 259.82,111.520416 C261.076918,112.109184 262.055823,113.163389 262.55,114.460416 L262.55,114.460416 Z" id="形状" fill="url(#linearGradient-23)" fill-rule="nonzero"></path>
            <path d="M262,134.570416 C261.999017,134.914711 261.845142,135.24078 261.58,135.460416 C261.331324,135.699037 260.993943,135.82238 260.65,135.800416 C259.942336,135.732594 259.406303,135.131191 259.42,134.420416 C259.433472,134.087603 259.585811,133.77567 259.84,133.560416 C260.073119,133.309645 260.408921,133.18049 260.75,133.210416 C261.451192,133.281304 261.988363,133.865746 262,134.570416 L262,134.570416 Z M275.16,126.910416 C275.115295,128.219761 274.510802,129.446953 273.5,130.280416 C272.743006,130.979297 271.776146,131.408231 270.75,131.500416 C269.817502,131.508128 268.885503,131.45468 267.96,131.340416 C267.32387,131.240881 266.67613,131.240881 266.04,131.340416 C265.372152,131.482488 264.754262,131.800063 264.25,132.260416 L263.7,132.760416 L262.7,131.620416 L263.24,131.130416 C263.754859,130.662739 264.370915,130.320486 265.04,130.130416 C266.222578,129.847967 267.449099,129.800401 268.65,129.990416 C269.44,129.990416 270.01,130.050416 270.33,129.990416 C271.118447,129.960363 271.871717,129.656225 272.46,129.130416 C273.19364,128.523516 273.65445,127.648697 273.74,126.700416 C273.732991,125.678843 273.310602,124.704099 272.57,124.000416 C271.828485,123.071392 270.675195,122.569636 269.49,122.660416 C268.378451,122.801788 267.346603,123.312429 266.56,124.110416 L265.56,122.990416 C266.629845,121.926504 268.053461,121.292995 269.56,121.210416 C271.14372,121.198129 272.647701,121.904154 273.65,123.130416 C274.619839,124.147646 275.151332,125.505108 275.13,126.910416 L275.16,126.910416 Z" id="形状" fill="url(#linearGradient-24)" fill-rule="nonzero"></path>
        </g>
    </g>
</svg>