<?xml version="1.0" encoding="UTF-8"?>
<svg width="400px" height="300px" viewBox="0 0 400 300" version="1.1" xmlns="http://www.w3.org/2000/svg" xmlns:xlink="http://www.w3.org/1999/xlink">
    <title>画板备份 6</title>
    <defs>
        <linearGradient x1="-0.00821089158%" y1="49.9223602%" x2="99.9958934%" y2="49.9223602%" id="linearGradient-1">
            <stop stop-color="#F9E7A8" offset="0%"></stop>
            <stop stop-color="#F5A623" offset="100%"></stop>
        </linearGradient>
        <linearGradient x1="31.2208737%" y1="59.1334997%" x2="66.5287708%" y2="36.8895259%" id="linearGradient-2">
            <stop stop-color="#C6DFFE" offset="0%"></stop>
            <stop stop-color="#72B1FE" offset="100%"></stop>
        </linearGradient>
        <linearGradient x1="-0.00816792338%" y1="49.9928234%" x2="99.9822704%" y2="49.9928234%" id="linearGradient-3">
            <stop stop-color="#C6DFFE" offset="0%"></stop>
            <stop stop-color="#72B1FE" offset="100%"></stop>
        </linearGradient>
        <linearGradient x1="-0.0226459219%" y1="50.0002851%" x2="100.143552%" y2="50.0002851%" id="linearGradient-4">
            <stop stop-color="#C6DFFE" offset="0%"></stop>
            <stop stop-color="#72B1FE" offset="100%"></stop>
        </linearGradient>
        <linearGradient x1="-1214.22169%" y1="287.155531%" x2="-1109.06573%" y2="287.155531%" id="linearGradient-5">
            <stop stop-color="#C6DFFE" offset="0%"></stop>
            <stop stop-color="#72B1FE" offset="100%"></stop>
        </linearGradient>
        <linearGradient x1="-0.0548265901%" y1="50.0076576%" x2="99.9765458%" y2="50.0076576%" id="linearGradient-6">
            <stop stop-color="#C6DFFE" offset="0%"></stop>
            <stop stop-color="#72B1FE" offset="100%"></stop>
        </linearGradient>
        <linearGradient x1="0.0781361852%" y1="50.2588997%" x2="100.014317%" y2="50.2588997%" id="linearGradient-7">
            <stop stop-color="#C6DFFE" offset="0%"></stop>
            <stop stop-color="#72B1FE" offset="100%"></stop>
        </linearGradient>
        <linearGradient x1="0.0103263685%" y1="49.9638039%" x2="99.8372433%" y2="49.9638039%" id="linearGradient-8">
            <stop stop-color="#C6DFFE" offset="0%"></stop>
            <stop stop-color="#72B1FE" offset="100%"></stop>
        </linearGradient>
        <linearGradient x1="0%" y1="49.8768386%" x2="99.9865481%" y2="49.8768386%" id="linearGradient-9">
            <stop stop-color="#C6DFFE" offset="0%"></stop>
            <stop stop-color="#72B1FE" offset="100%"></stop>
        </linearGradient>
        <linearGradient x1="0.00374851787%" y1="50.0000273%" x2="99.9963438%" y2="50.0000273%" id="linearGradient-10">
            <stop stop-color="#C6DFFE" offset="0%"></stop>
            <stop stop-color="#72B1FE" offset="100%"></stop>
        </linearGradient>
        <linearGradient x1="6.46682808e-13%" y1="50%" x2="100%" y2="50%" id="linearGradient-11">
            <stop stop-color="#C6DFFE" offset="0%"></stop>
            <stop stop-color="#72B1FE" offset="100%"></stop>
        </linearGradient>
        <linearGradient x1="0.0108485001%" y1="49.9609761%" x2="100.008471%" y2="49.9609761%" id="linearGradient-12">
            <stop stop-color="#C6DFFE" offset="0%"></stop>
            <stop stop-color="#72B1FE" offset="100%"></stop>
        </linearGradient>
        <linearGradient x1="7.10542736e-14%" y1="50.2%" x2="100%" y2="50.2%" id="linearGradient-13">
            <stop stop-color="#EAF2FD" offset="0%"></stop>
            <stop stop-color="#C4DFFD" offset="100%"></stop>
        </linearGradient>
        <linearGradient x1="-5.68434189e-13%" y1="50%" x2="100%" y2="50%" id="linearGradient-14">
            <stop stop-color="#EAF2FD" offset="0%"></stop>
            <stop stop-color="#C4DFFD" offset="100%"></stop>
        </linearGradient>
        <linearGradient x1="-0.0354609929%" y1="50.070922%" x2="100%" y2="50.070922%" id="linearGradient-15">
            <stop stop-color="#EAF2FD" offset="0%"></stop>
            <stop stop-color="#C4DFFD" offset="100%"></stop>
        </linearGradient>
        <linearGradient x1="0%" y1="50.070922%" x2="100%" y2="50.070922%" id="linearGradient-16">
            <stop stop-color="#EAF2FD" offset="0%"></stop>
            <stop stop-color="#C4DFFD" offset="100%"></stop>
        </linearGradient>
        <linearGradient x1="-0.0810372771%" y1="49.8381877%" x2="100%" y2="49.8381877%" id="linearGradient-17">
            <stop stop-color="#EAF2FD" offset="0%"></stop>
            <stop stop-color="#C4DFFD" offset="100%"></stop>
        </linearGradient>
        <linearGradient x1="-0.0810372771%" y1="50.1618123%" x2="100%" y2="50.1618123%" id="linearGradient-18">
            <stop stop-color="#EAF2FD" offset="0%"></stop>
            <stop stop-color="#C4DFFD" offset="100%"></stop>
        </linearGradient>
        <linearGradient x1="0%" y1="50%" x2="100%" y2="50%" id="linearGradient-19">
            <stop stop-color="#C6DFFE" offset="0%"></stop>
            <stop stop-color="#72B1FE" offset="100%"></stop>
        </linearGradient>
        <linearGradient x1="0.00839489589%" y1="50.0672495%" x2="99.9999999%" y2="50.0672495%" id="linearGradient-20">
            <stop stop-color="#C6DFFE" offset="0%"></stop>
            <stop stop-color="#72B1FE" offset="100%"></stop>
        </linearGradient>
        <linearGradient x1="0.0111756817%" y1="50%" x2="100%" y2="50%" id="linearGradient-21">
            <stop stop-color="#C6DFFE" offset="0%"></stop>
            <stop stop-color="#72B1FE" offset="100%"></stop>
        </linearGradient>
        <linearGradient x1="99.9779347%" y1="48.3892321%" x2="0.0220653133%" y2="51.6328332%" id="linearGradient-22">
            <stop stop-color="#C6DFFE" offset="0%"></stop>
            <stop stop-color="#72B1FE" offset="100%"></stop>
        </linearGradient>
        <linearGradient x1="-0.0180892285%" y1="49.9126409%" x2="100.03892%" y2="49.9126409%" id="linearGradient-23">
            <stop stop-color="#F3835D" offset="0%"></stop>
            <stop stop-color="#FFC644" offset="100%"></stop>
        </linearGradient>
        <linearGradient x1="-0.144997583%" y1="50.0077519%" x2="99.8550024%" y2="50.0077519%" id="linearGradient-24">
            <stop stop-color="#F3835D" offset="0%"></stop>
            <stop stop-color="#FFC644" offset="100%"></stop>
        </linearGradient>
        <linearGradient x1="0%" y1="49.8691099%" x2="99.9080177%" y2="49.8691099%" id="linearGradient-25">
            <stop stop-color="#C6DFFE" offset="0%"></stop>
            <stop stop-color="#72B1FE" offset="100%"></stop>
        </linearGradient>
        <linearGradient x1="-9.00275877e-14%" y1="50.0074201%" x2="100%" y2="50.0074201%" id="linearGradient-26">
            <stop stop-color="#1A1114" offset="0%"></stop>
            <stop stop-color="#30231E" offset="25%"></stop>
            <stop stop-color="#4A372A" offset="50%"></stop>
            <stop stop-color="#5A372A" offset="59%"></stop>
            <stop stop-color="#60372A" offset="66%"></stop>
            <stop stop-color="#98372A" offset="98%"></stop>
        </linearGradient>
        <linearGradient x1="6.43007126e-14%" y1="50%" x2="99.9972048%" y2="50%" id="linearGradient-27">
            <stop stop-color="#1A1114" offset="0%"></stop>
            <stop stop-color="#30231E" offset="25%"></stop>
            <stop stop-color="#4A372A" offset="50%"></stop>
            <stop stop-color="#5A372A" offset="59%"></stop>
            <stop stop-color="#60372A" offset="66%"></stop>
            <stop stop-color="#98372A" offset="98%"></stop>
        </linearGradient>
        <linearGradient x1="0.146581283%" y1="50%" x2="100.082215%" y2="50%" id="linearGradient-28">
            <stop stop-color="#F3835D" offset="0%"></stop>
            <stop stop-color="#FFC644" offset="100%"></stop>
        </linearGradient>
        <linearGradient x1="0.215004139%" y1="50.0575852%" x2="100.263285%" y2="50.0575852%" id="linearGradient-29">
            <stop stop-color="#F3835D" offset="0%"></stop>
            <stop stop-color="#FFC644" offset="100%"></stop>
        </linearGradient>
        <linearGradient x1="-2.02762864e-12%" y1="50%" x2="100.352782%" y2="50%" id="linearGradient-30">
            <stop stop-color="#C6DFFE" offset="0%"></stop>
            <stop stop-color="#72B1FE" offset="100%"></stop>
        </linearGradient>
        <linearGradient x1="2.41285984%" y1="49.8819384%" x2="100.618853%" y2="49.8819384%" id="linearGradient-31">
            <stop stop-color="#C6DFFE" offset="0%"></stop>
            <stop stop-color="#72B1FE" offset="100%"></stop>
        </linearGradient>
        <linearGradient x1="1.2465662e-12%" y1="49.8281787%" x2="100%" y2="49.8281787%" id="linearGradient-32">
            <stop stop-color="#C6DFFE" offset="0%"></stop>
            <stop stop-color="#72B1FE" offset="100%"></stop>
        </linearGradient>
        <linearGradient x1="1.63989197%" y1="51.3986014%" x2="100.853356%" y2="51.3986014%" id="linearGradient-33">
            <stop stop-color="#C6DFFE" offset="0%"></stop>
            <stop stop-color="#72B1FE" offset="100%"></stop>
        </linearGradient>
        <linearGradient x1="114.40897%" y1="45.7780612%" x2="136.641894%" y2="-24.630102%" id="linearGradient-34">
            <stop stop-color="#C6DFFE" offset="0%"></stop>
            <stop stop-color="#72B1FE" offset="100%"></stop>
        </linearGradient>
        <linearGradient x1="99.8%" y1="50%" x2="-0.2%" y2="50%" id="linearGradient-35">
            <stop stop-color="#C6DFFE" offset="0%"></stop>
            <stop stop-color="#72B1FE" offset="100%"></stop>
        </linearGradient>
    </defs>
    <g id="画板备份-6" stroke="none" stroke-width="1" fill="none" fill-rule="evenodd">
        <g id="资源-7" transform="translate(16.000000, 1.000000)">
            <path d="M185.68,0 C152.588744,-0.0768105047 120.368128,10.5990541 93.87,30.420416 L104.12,30.420416 C106.451253,30.420416 108.687024,31.3465027 110.335469,32.9949474 C111.983913,34.6433922 112.91,36.8791631 112.91,39.210416 L112.91,39.210416 L112.91,39.890416 C112.91,44.744999 108.974583,48.680416 104.12,48.680416 L73.58,48.680416 C67.7772753,54.9277597 62.5181997,61.6588412 57.86,68.800416 L43.35,68.800416 C38.1237691,68.8059348 33.8899971,73.0441822 33.89,78.270416 L33.89,78.800416 C33.8866193,83.0171095 36.6773219,86.7258064 40.73,87.890416 L54.09,87.890416 C60.0634359,87.8959291 64.9044869,92.7369801 64.91,98.710416 L64.91,98.710416 L64.91,102.090416 C64.91,108.066137 60.065721,112.910416 54.09,112.910416 L8.18,112.910416 C3.37206252,114.120077 0,118.44264 0,123.400416 L0,124.000416 C0,129.976137 4.84427901,134.820416 10.82,134.820416 L34.6,134.820416 C34.1333333,139.633749 33.8966667,144.500416 33.89,149.420416 C33.89,231.940416 101.89,298.840416 185.68,298.840416 C252.74,298.840416 309.68,256.040416 329.73,196.680416 L335.42,196.680416 C337.41268,196.666371 339.118372,195.247634 339.495144,193.290848 C339.871917,191.334061 338.814992,189.383392 336.97,188.630416 L329.97,188.630416 C325.11932,188.630419 321.185518,184.701093 321.18,179.850416 L321.18,179.850416 L321.18,179.170416 C321.18,174.315833 325.115417,170.380416 329.97,170.380416 L336,170.380416 L336,170.270416 L351,170.270416 C354.838379,170.270416 357.95,167.158795 357.95,163.320416 C357.95,159.482037 354.838379,156.370416 351,156.370416 L337.31,156.370416 C337.423333,154.070416 337.476667,151.737083 337.47,149.370416 C337.491021,128.029098 332.860213,106.939641 323.9,87.570416 L348.2,87.570416 C358.652464,87.5648988 367.124483,79.0928802 367.13,68.640416 L367.13,67.580416 C367.13,57.5485328 359.305239,49.2580575 349.29,48.680416 L263.68,48.680416 C259.946555,48.680416 256.92,45.653861 256.92,41.920416 C256.92,38.1869711 259.946555,35.160416 263.68,35.160416 L283.5,35.160416 L283,34.750416 L292.86,34.750416 C296.267113,34.7504171 299.534534,33.3962626 301.942788,30.9861323 C304.351043,28.5760019 305.702654,25.3075281 305.7,21.900416 L305.7,21.190416 C305.702654,17.783304 304.351043,14.5148302 301.942788,12.1046998 C299.534534,9.69456947 296.267113,8.34041501 292.86,8.34041604 L235.81,8.34041604 C219.677935,2.80040978 202.736812,-0.0180415623 185.68,0 Z" id="背景" fill="#EDF0F4" opacity="0.35"></path>
            <path d="M182,233.000416 C216.36,233.000416 247.3,235.800416 268.93,240.280416 C290.08,240.420416 307.12,246.760416 307.12,254.550416 C307.12,260.730416 296.42,265.990416 281.45,267.980416 C277.87,269.040416 273.85,270.030416 269.45,270.980416 C269.561511,271.570597 269.618419,272.169795 269.62,272.770416 C269.62,286.370416 240.04,297.400416 203.56,297.400416 C170.74,297.400416 143.56,288.470416 138.37,276.770416 C94.58,273.450416 63.6099943,265.260416 63.6099943,255.690416 C63.59,243.110416 116.6,233.000416 182,233.000416 Z" id="形状结合" fill="url(#linearGradient-1)" opacity="0.27"></path>
            <path d="M93.25,262.820416 C99.31,259.960416 109.81,250.820416 103.08,234.600416 C96.73,218.170416 86.23,227.280416 82.93,216.350416 C79.63,205.420416 80.07,202.430416 71.19,198.290416 C62.31,194.150416 67.27,190.000416 60.83,185.140416 C54.39,180.280416 50.83,179.660416 46.31,181.800416 C41.79,183.940416 49.52,196.470416 45.31,201.240416 C41.1,206.010416 40.84,207.500416 48,214.780416 C55.16,222.060416 57.93,222.120416 55.53,228.780416 C53.13,235.440416 55.53,237.580416 60.01,237.310416 C64.49,237.040416 71.43,237.020416 68.78,246.120416 C66.13,255.220416 67.18,258.440416 75.91,261.260416 C84.64,264.080416 84.91,266.720416 93.28,262.800416 L93.25,262.820416 Z" id="路径" fill="url(#linearGradient-2)" fill-rule="nonzero"></path>
            <path d="M96.68,260.280416 C96.5792369,260.328286 96.4635691,260.334102 96.3585122,260.296582 C96.2534553,260.259062 96.1676412,260.181287 96.12,260.080416 L58.5,204.730416 C58.32,204.350416 58.32,204.350416 58.7,204.180416 C59.08,204.010416 59.08,204.000416 59.26,204.380416 L96.88,259.720416 C97.06,260.100416 97.06,260.100416 96.68,260.280416 Z" id="路径" fill="url(#linearGradient-3)" fill-rule="nonzero"></path>
            <path d="M72.09,223.770416 C71.71,223.940416 71.53,223.570416 71.35,223.190416 L72.44,208.800416 C72.44,208.800416 72.64,208.250416 72.82,208.630416 C72.82,208.630416 73.37,208.830416 73,209.000416 L72.09,223.770416 L72.09,223.770416 Z M78.23,232.890416 L66.81,233.190416 C66.7106964,233.237896 66.5964723,233.243453 66.4930287,233.205837 C66.3895851,233.168221 66.3056106,233.090592 66.26,232.990416 C66.2092599,232.890096 66.2019392,232.773342 66.2397507,232.66747 C66.2775623,232.561598 66.3571885,232.475896 66.46,232.430416 L77.46,232.310416 C78.22,231.960416 78.39,232.310416 78.19,232.890416 L78.23,232.890416 Z M86.92,245.450416 L86.92,245.450416 C86.54,245.630416 86.37,245.250416 86.19,244.870416 L87.85,229.750416 C87.85,229.750416 88.05,229.190416 88.23,229.570416 C88.23,229.570416 88.79,229.770416 88.41,229.950416 L86.92,245.450416 Z M92,253.240416 L76.26,253.240416 C75.88,253.410416 75.7,253.040416 76.08,252.860416 C75.9,252.480416 76.28,252.300416 76.46,252.680416 L91.8,252.850416 C92.18,252.670416 92.18,252.670416 91.98,253.230416 L92,253.240416 Z" id="形状" fill="url(#linearGradient-4)" fill-rule="nonzero"></path>
            <path d="M102.33,258.540416 C107.63,256.040416 110.44,256.110416 110.24,248.810416 C109.83,242.060416 114.95,239.190416 111.68,235.180416 C108.41,231.170416 105.18,233.180416 105.98,223.070416 C106.78,212.960416 101.07,208.730416 97.73,207.530416 C94.39,206.330416 92.73,203.850416 89.73,198.360416 C86.73,192.870416 81.36,196.290416 80.92,199.270416 C80.48,202.250416 84.04,209.820416 81.68,214.630416 C79.32,219.440416 83.91,223.300416 87.78,225.630416 C91.65,227.960416 89.3,232.780416 87.16,236.100416 C85.16,239.790416 80.4,245.300416 84.07,248.190416 C87.74,251.080416 93.65,262.640416 102.35,258.540416 L102.33,258.540416 Z" id="路径" fill="url(#linearGradient-5)" fill-rule="nonzero"></path>
            <path d="M103.09,258.180416 C102.98968,258.231156 102.872926,258.238477 102.767054,258.200665 C102.661182,258.162854 102.57548,258.083228 102.53,257.980416 L92.66,216.390416 C92.6092599,216.290096 92.6019392,216.173342 92.6397507,216.06747 C92.6775623,215.961598 92.7571885,215.875896 92.86,215.830416 C92.9607631,215.782546 93.0764309,215.77673 93.1814878,215.81425 C93.2865447,215.851771 93.3723588,215.929545 93.42,216.030416 L103.09,258.180416 C103.29,257.620416 103.47,258.000416 103.09,258.180416 Z" id="路径" fill="url(#linearGradient-6)" fill-rule="nonzero"></path>
            <path d="M97.34,232.220416 L97.34,232.220416 C96.78,232.020416 96.78,232.020416 96.6,231.640416 L100.83,219.000416 L101.21,218.820416 L101.39,219.200416 L97.39,232.200416 L97.34,232.220416 Z M101.42,249.720416 L101.42,249.720416 L89,244.000416 L88.83,243.620416 L89.2,243.440416 L101.2,249.340416 C101.62,249.160416 101.8,249.540416 101.42,249.720416 Z" id="形状" fill="url(#linearGradient-7)" fill-rule="nonzero"></path>
            <path d="M128.27,266.560416 C129.683782,266.521943 130.997642,265.822497 131.818946,264.671098 C132.640251,263.519699 132.873874,262.049709 132.45,260.700416 C131.62,257.350416 130.36,259.030416 129.94,261.540416 C129.52,264.050416 130.36,260.280416 127.85,259.450416 C125.34,259.030416 127.85,263.630416 127.01,264.450416 C125.76,264.860416 124.09,260.260416 122.41,262.350416 C120.73,264.440416 124.5,266.540416 128.27,266.540416 L128.27,266.560416 Z" id="路径" fill="url(#linearGradient-8)" fill-rule="nonzero"></path>
            <path d="M298.76,247.210416 C294.57,247.210416 289.97,242.210416 289.55,238.840416 C289.55,235.080416 294.15,235.500416 294.15,233.840416 C294.15,232.180416 291.23,232.170416 291.64,230.910416 C292.05,229.650416 294.57,229.240416 294.15,228.400416 C293.73,227.560416 290.81,228.820416 291.64,226.730416 C292.48,224.220416 294.15,225.480416 292.9,222.550416 C291.65,219.620416 295.41,222.550416 294.15,220.040416 C292.9,217.110416 291.64,215.040416 294.15,213.760416 C296.66,212.480416 296.25,222.130416 297.08,221.290416 C298.34,220.870416 300.01,220.040416 300.43,222.970416 C300.85,225.900416 298.76,226.730416 302.52,227.150416 C305.87,227.570416 301.27,232.590416 303.78,233.840416 C306.29,235.090416 309.63,238.440416 306.7,241.840416 C304.19,244.770416 302.52,247.280416 298.76,247.280416 L298.76,247.210416 Z" id="路径" fill="url(#linearGradient-9)" fill-rule="nonzero"></path>
            <path d="M298.76,247.210541 C298.870494,247.210541 298.976323,247.165883 299.053507,247.086816 C299.130691,247.00775 299.172695,246.900877 299.17,246.790416 L296.66,223.790416 C296.665609,223.679149 296.62456,223.570584 296.546737,223.490863 C296.468914,223.411142 296.36137,223.36749 296.25,223.370278 C296.137782,223.367644 296.029335,223.411003 295.949961,223.490377 C295.870587,223.569751 295.827228,223.678198 295.83,223.790416 L298.34,246.790416 C298.337228,246.902634 298.380587,247.011081 298.459961,247.090455 C298.539335,247.169829 298.647782,247.213188 298.76,247.210541 L298.76,247.210541 Z" id="路径" fill="url(#linearGradient-10)" fill-rule="nonzero"></path>
            <path d="M298.34,243.440416 L298.34,243.440416 C298.76,243.030416 298.76,243.030416 298.76,242.610416 L292.9,238.000416 L292.48,238.000416 L292.48,238.410416 L298.34,243.440416 Z M297.5,235.080416 L297.5,235.080416 L301.27,229.640416 L301.27,229.220416 L300.85,229.220416 L297.08,234.660416 L297.5,235.080416 Z" id="形状" fill="url(#linearGradient-11)" fill-rule="nonzero"></path>
            <path d="M279.93,246.790416 C279.93,246.790416 281.6,248.050416 285.79,245.950416 C289.97,243.440416 289.13,241.350416 287.04,242.190416 C284.95,243.030416 281.19,247.630416 280.35,246.370416 C279.51,245.110416 282.86,242.610416 280.77,240.100416 C278.68,237.590416 279.93,243.030416 279.09,243.030416 C278.68,243.030416 277.84,240.100416 277,241.350416 C276.16,242.600416 278.26,246.350416 278.68,246.790416 C279.51,247.210416 278.26,247.210416 276.16,246.370416 C274.07,245.120416 273.65,247.630416 275.75,248.460416 C277.85,249.290416 279.93,246.790416 279.93,246.790416 L279.93,246.790416 Z" id="路径" fill="url(#linearGradient-12)" fill-rule="nonzero"></path>
            <rect id="矩形" fill="url(#linearGradient-13)" fill-rule="nonzero" transform="translate(91.133357, 79.264340) rotate(45.000000) translate(-91.133357, -79.264340) " x="81.1333575" y="76.7643405" width="20" height="5" rx="2.5"></rect>
            <rect id="矩形" fill="url(#linearGradient-14)" fill-rule="nonzero" transform="translate(91.126076, 79.273774) rotate(135.000000) translate(-91.126076, -79.273774) " x="81.1260756" y="76.7737735" width="20" height="5" rx="2.5"></rect>
            <rect id="矩形" fill="url(#linearGradient-15)" fill-rule="nonzero" transform="translate(280.130110, 78.263951) rotate(45.000000) translate(-280.130110, -78.263951) " x="266.03011" y="74.7389509" width="28.2" height="7.05" rx="2.5"></rect>
            <rect id="矩形" fill="url(#linearGradient-16)" fill-rule="nonzero" transform="translate(280.126465, 78.270526) rotate(135.000000) translate(-280.126465, -78.270526) " x="266.026465" y="74.7455264" width="28.2" height="7.05" rx="2.5"></rect>
            <rect id="矩形" fill="url(#linearGradient-17)" fill-rule="nonzero" transform="translate(162.125024, 17.271837) rotate(45.000000) translate(-162.125024, -17.271837) " x="155.955024" y="15.7268371" width="12.34" height="3.09" rx="1.54"></rect>
            <rect id="矩形" fill="url(#linearGradient-18)" fill-rule="nonzero" transform="translate(162.128579, 17.265440) rotate(135.000000) translate(-162.128579, -17.265440) " x="155.958579" y="15.7204399" width="12.34" height="3.09" rx="1.54"></rect>
            <rect id="矩形" fill="url(#linearGradient-19)" fill-rule="nonzero" x="137.02" y="140.270416" width="119.11" height="29.78" rx="3.3"></rect>
            <path d="M158.940008,155.150416 C158.944044,157.752924 157.378909,160.101234 154.975277,161.09904 C152.571645,162.096846 149.803564,161.547358 147.963311,159.707105 C146.123058,157.866852 145.57357,155.098771 146.571376,152.695139 C147.569182,150.291507 149.917492,148.726372 152.52,148.730408 C156.065668,148.730408 158.940008,151.604748 158.940008,155.150416 L158.940008,155.150416 Z" id="路径" fill="#FFFFFF" fill-rule="nonzero"></path>
            <path d="M256.12,181.850416 L256.12,205.000416 C256.12,206.011496 255.655665,206.966559 254.86,207.590416 C250.451562,197.372592 240.325144,190.813685 229.197965,190.969049 C218.070786,191.124414 208.131439,197.963492 204.01,208.300416 L140.32,208.300416 C138.494197,208.300416 137.010999,206.826186 137,205.000416 L137,181.850416 C137.010999,180.030169 138.48972,178.560416 140.31,178.560416 L252.83,178.560416 C254.644738,178.565907 256.114509,180.035678 256.12,181.850416 Z" id="路径" fill="url(#linearGradient-20)" fill-rule="nonzero"></path>
            <path d="M158.940008,193.450416 C158.940008,196.052018 157.372293,198.397259 154.968339,199.391912 C152.564385,200.386565 149.797944,199.834606 147.959766,197.993565 C146.121589,196.152524 145.573936,193.385228 146.57233,190.982825 C147.570723,188.580421 149.918402,187.01637 152.52,187.020408 C154.224424,187.020408 155.858893,187.698177 157.063165,188.904325 C158.267436,190.110472 158.942655,191.745994 158.940008,193.450416 L158.940008,193.450416 Z" id="路径" fill="#FFFFFF" fill-rule="nonzero"></path>
            <path d="M226.48,245.890416 L140.32,245.890416 C138.498067,245.890416 137.016463,244.422275 137,242.600416 L137,219.410416 C137.010967,217.588539 138.488098,216.115871 140.31,216.110416 L202.15,216.110416 C202.08,216.910416 202.04,217.720416 202.04,218.540416 C202.043072,232.546852 212.56207,244.318317 226.48,245.890416 Z" id="路径" fill="url(#linearGradient-21)" fill-rule="nonzero"></path>
            <path d="M158.940008,228.050416 C158.944044,230.652924 157.378909,233.001234 154.975277,233.99904 C152.571645,234.996846 149.803564,234.447358 147.963311,232.607105 C146.123058,230.766852 145.57357,227.998771 146.571376,225.595139 C147.569182,223.191507 149.917492,221.626372 152.52,221.630408 C156.065668,221.630408 158.940008,224.504748 158.940008,228.050416 L158.940008,228.050416 Z" id="路径" fill="#FFFFFF" fill-rule="nonzero"></path>
            <path d="M229.58,195.870416 C217.065228,195.870416 206.92,206.015644 206.92,218.530416 C206.92,231.045188 217.065228,241.190416 229.58,241.190416 C242.094772,241.190416 252.24,231.045188 252.24,218.530416 C252.24,206.015644 242.094772,195.870416 229.58,195.870416 L229.58,195.870416 Z M229.77,235.540475 C227.877021,235.551381 226.33305,234.026705 226.320211,232.133738 C226.307371,230.240771 227.830517,228.695291 229.723471,228.680577 C231.616424,228.665863 233.163411,230.187478 233.18,232.080416 C233.187987,232.991839 232.832886,233.868962 232.193095,234.518134 C231.553305,235.167306 230.681443,235.535136 229.77,235.540475 L229.77,235.540475 Z M231.54,223.000416 C231.390406,223.908535 230.605358,224.574843 229.685,224.574843 C228.764642,224.574843 227.979594,223.908535 227.83,223.000416 C226.56,216.220416 225.13,208.270416 225.12,206.900416 C225.103432,204.437226 227.08681,202.426985 229.55,202.410313 C232.01319,202.393848 234.023431,204.377226 234.040056,206.840416 C234.05,208.200416 232.72,216.170416 231.54,223.000416 Z" id="形状" fill="url(#linearGradient-22)" fill-rule="nonzero"></path>
            <path d="M146.81,98.180416 C145.223958,98.0607405 143.62956,98.2405344 142.11,98.710416 C138.8,99.520416 130.36,103.290416 130.36,103.290416 C130.36,103.290416 129.65,106.630416 130.8,108.410416 C131.95,110.190416 147.7,105.520416 147.7,105.520416 C147.7,105.520416 149,98.400416 146.81,98.180416 Z" id="路径" fill="url(#linearGradient-23)" fill-rule="nonzero"></path>
            <path d="M163,99.000416 C156.844048,96.3293781 149.895002,96.135951 143.6,98.460416 C143.3,103.673749 143.046667,108.963749 142.84,114.330416 C142.566667,121.510416 142.39,128.550416 142.31,135.450416 C149.043522,137.313356 156.156478,137.313356 162.89,135.450416 C162.91,123.303749 162.946667,111.153749 163,99.000416 Z" id="路径" fill="url(#linearGradient-24)" fill-rule="nonzero"></path>
            <path d="M176.6,82.840416 C176.23,78.980416 176.45,79.400416 175.6,76.840416 C175.76,75.840416 176.11,73.100416 176.26,72.120416 C176.09,71.840416 176.16,71.120416 175.5,70.700416 C174.952578,70.3703653 174.328986,70.1877665 173.69,70.170416 C173.19,71.170416 172.06,74.170416 171.56,75.240416 L171.02,74.820416 C170.66,74.540416 170.31,74.250416 170.02,73.970416 C169.828294,74.0286462 169.671366,74.1673276 169.59,74.350416 C169.46,74.710416 169.91,75.000416 170.47,75.960416 C170.85,76.610416 170.82,76.790416 171.16,77.120416 C171.423063,77.3779655 171.736191,77.5787762 172.08,77.710416 C172.230781,79.3071699 172.566359,80.881031 173.08,82.400416 C173.26,83.060416 176.8,84.910416 176.6,82.840416 Z" id="路径" fill="#E39972" fill-rule="nonzero"></path>
            <path d="M156.81,85.730416 C156.51,89.730416 156.213333,93.6970827 155.92,97.630416 C155.177376,98.6610871 153.957928,99.2387206 152.69,99.160416 C151.626792,98.9603138 150.699282,98.3165128 150.14,97.390416 C150.28,94.650416 150.416667,91.9170827 150.55,89.190416 L156.81,85.730416 Z" id="路径" fill="#D68358" fill-rule="nonzero"></path>
            <path d="M158.22,84.000416 C158.14,86.420416 158.37,90.440416 157.48,92.440416 C156.59,93.780416 155.03,94.660416 151.92,94.220416 C148.81,93.780416 148.14,90.440416 148.14,89.770416 C148.28,86.880416 148.35,85.610416 148.49,82.770416 C149.207607,82.0739663 150.092824,81.5745247 151.06,81.320416 C153.49,80.610416 156.24,81.710416 158.22,84.000416 Z" id="路径" fill="#E39972" fill-rule="nonzero"></path>
            <path d="M157.05,86.290416 C157.589357,85.9447032 158.280643,85.9447032 158.82,86.290416 C159.387953,86.9375564 159.421408,87.8952194 158.9,88.580416 C158.443609,89.1826897 157.72544,89.5287504 156.97,89.510416 C157,88.440416 157,87.360416 157.05,86.290416 Z" id="路径" fill="#E39972" fill-rule="nonzero"></path>
            <path d="M139.51,87.350416 L139.32,88.520416 L142.8,90.640416 C143.8,90.070416 143.99,89.640416 143.97,89.370416 C143.92,88.190416 140.4,87.510416 139.51,87.350416 Z" id="路径" fill="#556B96" fill-rule="nonzero"></path>
            <path d="M134.45,106.140416 C136.49,102.067083 138.526667,97.9937494 140.56,93.920416 C140.694034,93.2783155 140.439762,92.6172103 139.91,92.230416 C139.12393,91.7639133 138.111583,91.9768103 137.58,92.720416 L129.85,102.660416 C129.411755,103.384801 129.28671,104.256183 129.503566,105.074575 C129.720421,105.892967 130.260553,106.588093 131,107.000416 C132.214292,107.49953 133.612063,107.1511 134.45,106.140416 L134.45,106.140416 Z" id="路径" fill="#F7A06F" fill-rule="nonzero"></path>
            <path d="M139.91,94.910416 C140.319964,94.428166 140.684826,93.9093255 141,93.360416 C141.9,91.860416 142.79,89.510416 142.13,88.990416 C141.98,88.870416 141.7,88.800416 141.07,89.060416 C140.53363,88.4693651 139.756302,88.1562238 138.96,88.210416 C137.96,88.420416 137.42,89.620416 136.96,90.680416 C136.607119,91.2841946 136.456455,91.984956 136.53,92.680416 C136.84,93.790416 138.19,94.660416 139.91,94.910416 Z" id="路径" fill="#F7A06F" fill-rule="nonzero"></path>
            <path d="M137.05,74.840416 L142,83.000416 L146.73,86.000416 C147.153598,86.8590467 147.119451,87.8726834 146.639028,88.7008597 C146.158606,89.5290361 145.295644,90.0618798 144.34,90.120416 L139.49,87.810416 L130.56,87.680416 L137.05,74.840416 Z" id="路径" fill="url(#linearGradient-25)" fill-rule="nonzero"></path>
            <path d="M137.05,74.840416 C138.56,75.600416 138.33,79.840416 136.86,82.740416 C135.39,85.640416 132.09,88.410416 130.56,87.630416 C129.03,86.850416 129.38,82.980416 130.56,80.300416 C132,77.000416 135.48,74.060416 137.05,74.840416 Z" id="路径" fill="#DEDFE0" fill-rule="nonzero"></path>
            <path d="M135.67,84.230416 L133.59,82.820416 C133.255774,82.2813517 133.255774,81.5994804 133.59,81.060416 C133.860535,80.6412559 134.297106,80.3574849 134.79,80.280416 L137.4,81.060416 C137.28969,81.6643842 137.087334,82.2478438 136.8,82.790416 C136.501227,83.3267361 136.119893,83.8126833 135.67,84.230416 Z" id="路径" fill="#F0F1F2" fill-rule="nonzero"></path>
            <path d="M124.22,158.180416 L122.74,160.600416 L122.47,161.810416 C122.048085,162.181014 121.581056,162.496846 121.08,162.750416 C120.339081,163.12939 119.536519,163.373206 118.71,163.470416 C118.180891,163.839791 117.606093,164.138955 117,164.360416 C114.14,165.440416 110.79,164.710416 110.69,163.920416 C110.62,163.350416 112.2,163.050416 115.48,161.180416 C116.827743,160.420367 118.129959,159.582274 119.38,158.670416 C119.89,158.080416 120.38,157.480416 120.9,156.880416 L124.22,158.180416 Z" id="路径" fill="#0F111A" fill-rule="nonzero"></path>
            <path d="M115.75,157.690416 L114.27,160.110416 L114,161.320416 C113.578085,161.691014 113.111056,162.006846 112.61,162.260416 C111.869081,162.63939 111.066519,162.883206 110.24,162.980416 C109.713324,163.3479 109.142081,163.646963 108.54,163.870416 C105.67,164.950416 102.32,164.220416 102.22,163.430416 C102.15,162.860416 103.73,162.560416 107.01,160.690416 C108.357743,159.930367 109.659959,159.092274 110.91,158.180416 C111.42,157.590416 111.91,156.990416 112.43,156.390416 L115.75,157.690416 Z" id="路径" fill="#0F111A" fill-rule="nonzero"></path>
            <path d="M142.05,132.180416 C137.891623,132.282759 133.743627,132.643454 129.63,133.260416 C126.85,133.680416 124.23,134.190416 121.8,134.750416 C120.2,137.250416 118.59,139.990416 117.02,142.950416 C114.506061,147.705248 112.320941,152.626778 110.48,157.680416 C111.261038,158.139093 112.136768,158.412759 113.04,158.480416 C114.014753,158.551421 114.992278,158.386785 115.89,158.000416 L126.72,142.000416 L135.99,140.090416 L142.05,132.180416 Z" id="路径" fill="url(#linearGradient-26)" fill-rule="nonzero"></path>
            <path d="M162.81,129.310416 C163.202265,130.283442 163.435249,131.313297 163.5,132.360416 C163.85,135.720416 162.63,138.280416 161.61,139.130416 C160.59,139.980416 153.86,140.270416 149.3,140.450416 C146.197056,140.580091 143.089443,140.546712 139.99,140.350416 C138.99,142.070416 137.88,143.850416 136.61,145.660416 C133.105494,150.650758 128.982645,155.17682 124.34,159.130416 C123.237916,158.930466 122.176768,158.548588 121.2,158.000416 C120.536017,157.619947 119.918536,157.163548 119.36,156.640416 C121.473333,153.747083 123.586667,150.717083 125.7,147.550416 C129.15,142.380416 132.27,137.330416 135.09,132.450416 C144.28,131.390416 153.62,130.310416 162.81,129.310416 Z" id="路径" fill="url(#linearGradient-27)" fill-rule="nonzero"></path>
            <path d="M171.89,79.000416 C173.19204,78.6073051 174.533498,78.3591353 175.89,78.260416 C177.25,79.260416 178.13,93.060416 177.47,95.260416 C176.81,97.460416 163,105.740416 163,105.740416 L159,104.180416 C159,104.180416 157.67,102.180416 158.34,100.630416 C159.01,99.080416 170.79,92.400416 170.79,92.400416 L171.89,79.000416 Z" id="路径" fill="url(#linearGradient-28)" fill-rule="nonzero"></path>
            <path d="M136.89,93.350416 L139.89,95.070416 C139.89,95.070416 133.66,108.410416 132.33,108.850416 C131,109.290416 128.06,108.330416 128.55,105.520416 C129.41,100.700416 136.89,93.350416 136.89,93.350416 Z" id="路径" fill="url(#linearGradient-29)" fill-rule="nonzero"></path>
            <path d="M153.18,78.630416 C151.028494,78.8218361 149.070945,79.9524577 147.83,81.720416 C146.92,82.960416 147.05,84.400416 148.83,84.330416 C150.61,84.260416 152.11,83.090416 153.83,83.030416 C155.55,82.970416 157.83,88.180416 159.55,87.230416 C160.64,86.630416 160.02,82.800416 159.07,81.060416 C158.12,79.320416 155.63,78.540416 153.18,78.630416 Z" id="路径" fill="#131322" fill-rule="nonzero"></path>
            <path d="M122.39,76.260416 L122.1,77.350416 C122.292172,77.176344 122.559829,77.112257 122.81,77.180416 C123.017169,77.2186128 123.196678,77.3468339 123.3,77.530416 C123.37011,77.7379891 123.37011,77.9628429 123.3,78.170416 L123,79.410416 L122.59,79.310416 L122.89,78.140416 C122.935802,78.0007417 122.935802,77.8500904 122.89,77.710416 C122.826705,77.5847999 122.708314,77.4960063 122.57,77.470416 C122.437781,77.4367208 122.297411,77.4662724 122.19,77.550416 C122.07204,77.6569471 121.988488,77.7962016 121.95,77.950416 L121.66,79.070416 L121.25,78.960416 L121.98,76.150416 L122.39,76.260416 Z" id="路径" fill="url(#linearGradient-30)" fill-rule="nonzero"></path>
            <path d="M125.49,78.220416 C125.592944,78.5115849 125.592944,78.8292472 125.49,79.120416 L124,78.730416 C123.941853,78.8885742 123.941853,79.0622579 124,79.220416 C124.073838,79.3472233 124.196945,79.437743 124.34,79.470416 C124.460026,79.5108101 124.589974,79.5108101 124.71,79.470416 C124.809151,79.4217576 124.894958,79.3496801 124.96,79.260416 L125.37,79.360416 C125.286301,79.532152 125.149562,79.6723971 124.98,79.760416 C124.753601,79.8609114 124.49991,79.8820523 124.26,79.820416 C123.992734,79.7668202 123.762438,79.5986674 123.63,79.360416 C123.491079,79.0990789 123.46228,78.7930841 123.55,78.510416 C123.614038,78.2373658 123.778188,77.9982778 124.01,77.840416 C124.231064,77.6763343 124.517321,77.6280052 124.78,77.710416 C125.08888,77.7463428 125.357332,77.9391743 125.49,78.220416 L125.49,78.220416 Z M124.36,78.080416 C124.237601,78.1637435 124.143435,78.2823225 124.09,78.420416 L125.17,78.700416 C125.212138,78.5580756 125.191432,78.404512 125.113099,78.2784153 C125.034766,78.1523186 124.906275,78.0657121 124.76,78.040416 C124.627083,77.9959251 124.481475,78.0104858 124.36,78.080416 L124.36,78.080416 Z" id="形状" fill="url(#linearGradient-31)" fill-rule="nonzero"></path>
            <polygon id="路径" fill="url(#linearGradient-32)" fill-rule="nonzero" points="126.82 77.400416 126.09 80.210416 125.68 80.100416 126.41 77.300416"></polygon>
            <path d="M128.74,79.000416 C128.832247,79.2625369 128.832247,79.5482952 128.74,79.810416 C128.676191,80.0733144 128.528814,80.3084162 128.32,80.480416 C128.105513,80.6414919 127.828153,80.6932659 127.57,80.620416 C127.319211,80.5533911 127.121882,80.359856 127.05,80.110416 L126.77,81.170416 L126.37,81.060416 L127.08,78.310416 L127.46,78.400416 L127.4,78.640416 C127.592689,78.482054 127.852894,78.4330299 128.09,78.510416 C128.372371,78.5608372 128.613796,78.7428348 128.74,79.000416 L128.74,79.000416 Z M127.51,79.000416 C127.383876,79.1263018 127.297025,79.2861069 127.26,79.460416 L127.26,79.460416 C127.193219,79.637668 127.193219,79.8331641 127.26,80.010416 C127.313064,80.1514363 127.433184,80.2565413 127.58,80.290416 C127.746636,80.3448677 127.929335,80.3150393 128.07,80.210416 C128.206901,80.0817392 128.301124,79.9142322 128.34,79.730416 C128.384868,79.5532121 128.384868,79.36762 128.34,79.190416 C128.282166,79.0159871 128.131596,78.8885816 127.95,78.860416 C127.788939,78.8268569 127.622055,78.8799564 127.51,79.000416 Z" id="形状" fill="url(#linearGradient-33)" fill-rule="nonzero"></path>
            <polygon id="路径" fill="url(#linearGradient-34)" fill-rule="nonzero" points="130.48 75.920416 128.87 72.000416 127.56 72.530416"></polygon>
            <polygon id="路径" fill="url(#linearGradient-35)" fill-rule="nonzero" points="123.13 83.760416 128.13 84.760416 124.13 85.760416"></polygon>
        </g>
    </g>
</svg>